Padauk-Book.ufo
<glyph name="numbersign" format="2">
  <advance width="535"/>
  <unicode hex="0023"/>
  <outline>
    <contour>
      <point x="479" y="99" type="line"/>
      <point x="374" y="99" type="line"/>
      <point x="358" y="-28" type="line"/>
      <point x="286" y="-28" type="line"/>
      <point x="302" y="99" type="line"/>
      <point x="200" y="99" type="line"/>
      <point x="184" y="-28" type="line"/>
      <point x="112" y="-28" type="line"/>
      <point x="128" y="99" type="line"/>
      <point x="55" y="99" type="line"/>
      <point x="55" y="171" type="line"/>
      <point x="137" y="171" type="line"/>
      <point x="150" y="273" type="line"/>
      <point x="55" y="273" type="line"/>
      <point x="55" y="345" type="line"/>
      <point x="160" y="345" type="line"/>
      <point x="178" y="487" type="line"/>
      <point x="250" y="487" type="line"/>
      <point x="231" y="345" type="line"/>
      <point x="334" y="345" type="line"/>
      <point x="352" y="487" type="line"/>
      <point x="424" y="487" type="line"/>
      <point x="405" y="345" type="line"/>
      <point x="479" y="345" type="line"/>
      <point x="479" y="273" type="line"/>
      <point x="396" y="273" type="line"/>
      <point x="383" y="171" type="line"/>
      <point x="479" y="171" type="line"/>
    </contour>
    <contour>
      <point x="324" y="273" type="line"/>
      <point x="222" y="273" type="line"/>
      <point x="209" y="171" type="line"/>
      <point x="311" y="171" type="line"/>
    </contour>
  </outline>
</glyph>
<glyph name="dollar" format="2">
  <advance width="502"/>
  <unicode hex="0024"/>
  <outline>
    <contour>
      <point x="473" y="177" type="curve" smooth="yes"/>
      <point x="473" y="48"/>
      <point x="375" y="-4"/>
      <point x="275" y="-12" type="curve"/>
      <point x="275" y="-93" type="line"/>
      <point x="229" y="-93" type="line"/>
      <point x="229" y="-13" type="line"/>
      <point x="98" y="-9"/>
      <point x="29" y="70"/>
      <point x="29" y="191" type="curve"/>
      <point x="129" y="191" type="line"/>
      <point x="129" y="126"/>
      <point x="154" y="76"/>
      <point x="229" y="73" type="curve"/>
      <point x="229" y="283" type="line"/>
      <point x="126" y="312"/>
      <point x="40" y="334"/>
      <point x="40" y="462" type="curve" smooth="yes"/>
      <point x="40" y="565"/>
      <point x="118" y="642"/>
      <point x="229" y="642" type="curve"/>
      <point x="229" y="708" type="line"/>
      <point x="275" y="708" type="line"/>
      <point x="275" y="643" type="line"/>
      <point x="390" y="643"/>
      <point x="450" y="563"/>
      <point x="450" y="465" type="curve"/>
      <point x="350" y="465" type="line"/>
      <point x="350" y="530"/>
      <point x="330" y="555"/>
      <point x="275" y="557" type="curve"/>
      <point x="275" y="367" type="line"/>
      <point x="352" y="347"/>
      <point x="473" y="330"/>
    </contour>
    <contour>
      <point x="229" y="380" type="curve"/>
      <point x="229" y="556" type="line"/>
      <point x="150" y="552"/>
      <point x="139" y="513"/>
      <point x="139" y="465" type="curve" smooth="yes"/>
      <point x="139" y="405"/>
      <point x="171" y="398"/>
    </contour>
    <contour>
      <point x="374" y="169" type="curve" smooth="yes"/>
      <point x="374" y="245"/>
      <point x="335" y="258"/>
      <point x="275" y="275" type="curve"/>
      <point x="275" y="74" type="line"/>
      <point x="337" y="78"/>
      <point x="374" y="102"/>
    </contour>
  </outline>
</glyph>
<glyph name="percent" format="2">
  <advance width="682"/>
  <unicode hex="0025"/>
  <outline>
    <contour>
      <point x="553" y="452" type="line"/>
      <point x="185" y="-68" type="line"/>
      <point x="130" y="-22" type="line"/>
      <point x="494" y="496" type="line"/>
    </contour>
    <contour>
      <point x="296" y="340" type="curve" smooth="yes"/>
      <point x="296" y="274"/>
      <point x="237" y="212"/>
      <point x="169" y="212" type="curve" smooth="yes"/>
      <point x="99" y="212"/>
      <point x="40" y="274"/>
      <point x="40" y="340" type="curve" smooth="yes"/>
      <point x="40" y="410"/>
      <point x="99" y="470"/>
      <point x="169" y="470" type="curve" smooth="yes"/>
      <point x="237" y="470"/>
      <point x="296" y="410"/>
    </contour>
    <contour>
      <point x="642" y="89" type="curve" smooth="yes"/>
      <point x="642" y="22"/>
      <point x="583" y="-40"/>
      <point x="515" y="-40" type="curve" smooth="yes"/>
      <point x="446" y="-40"/>
      <point x="387" y="22"/>
      <point x="387" y="89" type="curve" smooth="yes"/>
      <point x="387" y="159"/>
      <point x="446" y="218"/>
      <point x="515" y="218" type="curve" smooth="yes"/>
      <point x="583" y="218"/>
      <point x="642" y="159"/>
    </contour>
    <contour>
      <point x="232" y="340" type="curve" smooth="yes"/>
      <point x="232" y="375"/>
      <point x="202" y="406"/>
      <point x="169" y="406" type="curve" smooth="yes"/>
      <point x="131" y="406"/>
      <point x="103" y="375"/>
      <point x="103" y="340" type="curve" smooth="yes"/>
      <point x="103" y="305"/>
      <point x="132" y="275"/>
      <point x="169" y="275" type="curve" smooth="yes"/>
      <point x="202" y="275"/>
      <point x="232" y="305"/>
    </contour>
    <contour>
      <point x="579" y="89" type="curve" smooth="yes"/>
      <point x="579" y="124"/>
      <point x="548" y="155"/>
      <point x="515" y="155" type="curve" smooth="yes"/>
      <point x="478" y="155"/>
      <point x="449" y="124"/>
      <point x="449" y="89" type="curve" smooth="yes"/>
      <point x="449" y="54"/>
      <point x="478" y="23"/>
      <point x="515" y="23" type="curve" smooth="yes"/>
      <point x="548" y="23"/>
      <point x="579" y="54"/>
    </contour>
  </outline>
</glyph>
<glyph name="ampersand" format="2">
  <advance width="689"/>
  <unicode hex="0026"/>
  <outline>
    <contour>
      <point x="681" y="0" type="curve"/>
      <point x="547" y="0" type="line"/>
      <point x="484" y="57" type="line"/>
      <point x="438" y="18"/>
      <point x="366" y="-12"/>
      <point x="280" y="-12" type="curve" smooth="yes"/>
      <point x="161" y="-12"/>
      <point x="51" y="57"/>
      <point x="51" y="181" type="curve" smooth="yes"/>
      <point x="51" y="282"/>
      <point x="109" y="335"/>
      <point x="189" y="372" type="curve"/>
      <point x="146" y="413"/>
      <point x="116" y="464"/>
      <point x="116" y="516" type="curve" smooth="yes"/>
      <point x="116" y="604"/>
      <point x="198" y="655"/>
      <point x="284" y="655" type="curve" smooth="yes"/>
      <point x="374" y="655"/>
      <point x="453" y="612"/>
      <point x="453" y="532" type="curve" smooth="yes"/>
      <point x="453" y="441"/>
      <point x="375" y="395"/>
      <point x="316" y="359" type="curve"/>
      <point x="362" y="301"/>
      <point x="415" y="246"/>
      <point x="475" y="189" type="curve"/>
      <point x="488" y="225"/>
      <point x="492" y="260"/>
      <point x="492" y="297" type="curve" smooth="yes"/>
      <point x="492" y="316"/>
      <point x="491" y="336"/>
      <point x="489" y="357" type="curve"/>
      <point x="592" y="357" type="line"/>
      <point x="591" y="270"/>
      <point x="577" y="195"/>
      <point x="541" y="125" type="curve"/>
      <point x="565" y="95"/>
      <point x="634" y="34"/>
    </contour>
    <contour>
      <point x="367" y="520" type="curve" smooth="yes"/>
      <point x="367" y="552"/>
      <point x="332" y="582"/>
      <point x="294" y="582" type="curve" smooth="yes"/>
      <point x="238" y="582"/>
      <point x="213" y="551"/>
      <point x="213" y="517" type="curve" smooth="yes"/>
      <point x="213" y="485"/>
      <point x="233" y="452"/>
      <point x="268" y="411" type="curve"/>
      <point x="321" y="436"/>
      <point x="367" y="479"/>
    </contour>
    <contour>
      <point x="426" y="115" type="curve"/>
      <point x="355" y="180"/>
      <point x="290" y="250"/>
      <point x="236" y="314" type="curve"/>
      <point x="189" y="293"/>
      <point x="153" y="236"/>
      <point x="153" y="187" type="curve" smooth="yes"/>
      <point x="153" y="132"/>
      <point x="210" y="67"/>
      <point x="283" y="67" type="curve" smooth="yes"/>
      <point x="336" y="67"/>
      <point x="386" y="79"/>
    </contour>
  </outline>
</glyph>
<glyph name="parenright" format="2">
  <advance width="419"/>
  <unicode hex="0029"/>
  <outline>
    <contour>
      <point x="344" y="223" type="curve" smooth="yes"/>
      <point x="344" y="-39"/>
      <point x="286" y="-255"/>
      <point x="129" y="-449" type="curve"/>
      <point x="50" y="-449" type="line"/>
      <point x="206" y="-258"/>
      <point x="272" y="-26"/>
      <point x="272" y="223" type="curve" smooth="yes"/>
      <point x="272" y="494"/>
      <point x="201" y="711"/>
      <point x="50" y="918" type="curve"/>
      <point x="127" y="918" type="line"/>
      <point x="276" y="709"/>
      <point x="344" y="493"/>
    </contour>
  </outline>
</glyph>
<glyph name="asterisk" format="2">
  <advance width="566"/>
  <unicode hex="002A"/>
  <outline>
    <contour>
      <point x="511" y="371" type="line"/>
      <point x="472" y="305" type="line"/>
      <point x="322" y="393" type="line"/>
      <point x="322" y="218" type="line"/>
      <point x="247" y="218" type="line"/>
      <point x="247" y="393" type="line"/>
      <point x="95" y="305" type="line"/>
      <point x="55" y="370" type="line"/>
      <point x="209" y="458" type="line"/>
      <point x="55" y="547" type="line"/>
      <point x="95" y="610" type="line"/>
      <point x="244" y="524" type="line"/>
      <point x="244" y="699" type="line"/>
      <point x="322" y="699" type="line"/>
      <point x="322" y="524" type="line"/>
      <point x="472" y="610" type="line"/>
      <point x="511" y="546" type="line"/>
      <point x="357" y="458" type="line"/>
    </contour>
  </outline>
</glyph>
<glyph name="comma" format="2">
  <advance width="240"/>
  <unicode hex="002C"/>
  <outline>
    <contour>
      <point x="200" y="58" type="curve" smooth="yes"/>
      <point x="200" y="-39"/>
      <point x="143" y="-125"/>
      <point x="92" y="-149" type="curve"/>
      <point x="78" y="-137" type="line"/>
      <point x="114" y="-111"/>
      <point x="141" y="-61"/>
      <point x="141" y="-4" type="curve" smooth="yes"/>
      <point x="141" y="11"/>
      <point x="140" y="16"/>
      <point x="138" y="22" type="curve"/>
      <point x="128" y="14"/>
      <point x="87" y="-3"/>
      <point x="67" y="-3" type="curve" smooth="yes"/>
      <point x="48" y="-3"/>
      <point x="40" y="30"/>
      <point x="40" y="58" type="curve" smooth="yes"/>
      <point x="40" y="106"/>
      <point x="79" y="142"/>
      <point x="120" y="142" type="curve" smooth="yes"/>
      <point x="164" y="142"/>
      <point x="200" y="107"/>
    </contour>
  </outline>
</glyph>
<glyph name="hyphen" format="2">
  <advance width="499"/>
  <unicode hex="002D"/>
  <outline>
    <contour>
      <point x="443" y="257" type="line"/>
      <point x="443" y="185" type="line"/>
      <point x="55" y="185" type="line"/>
      <point x="55" y="257" type="line"/>
    </contour>
  </outline>
</glyph>
<glyph name="slash" format="2">
  <advance width="516"/>
  <unicode hex="002F"/>
  <outline>
    <contour>
      <point x="460" y="766" type="line"/>
      <point x="110" y="-233" type="line"/>
      <point x="55" y="-178" type="line"/>
      <point x="405" y="819" type="line"/>
    </contour>
  </outline>
</glyph>
<glyph name="one" format="2">
  <advance width="502"/>
  <unicode hex="0031"/>
  <outline>
    <contour>
      <point x="345" y="0" type="line"/>
      <point x="250" y="0" type="line"/>
      <point x="250" y="529" type="line"/>
      <point x="208" y="493"/>
      <point x="159" y="466"/>
      <point x="106" y="452" type="curve"/>
      <point x="106" y="538" type="line"/>
      <point x="165" y="558"/>
      <point x="213" y="596"/>
      <point x="248" y="643" type="curve"/>
      <point x="345" y="643" type="line"/>
    </contour>
  </outline>
</glyph>
<glyph name="three" format="2">
  <advance width="502"/>
  <unicode hex="0033"/>
  <outline>
    <contour>
      <point x="460" y="174" type="curve" smooth="yes"/>
      <point x="460" y="66"/>
      <point x="366" y="-13"/>
      <point x="249" y="-13" type="curve" smooth="yes"/>
      <point x="104" y="-13"/>
      <point x="41" y="71"/>
      <point x="41" y="173" type="curve"/>
      <point x="146" y="173" type="line"/>
      <point x="150" y="118"/>
      <point x="177" y="65"/>
      <point x="248" y="65" type="curve" smooth="yes"/>
      <point x="306" y="65"/>
      <point x="359" y="111"/>
      <point x="359" y="173" type="curve" smooth="yes"/>
      <point x="359" y="270"/>
      <point x="315" y="295"/>
      <point x="219" y="295" type="curve"/>
      <point x="219" y="375" type="line"/>
      <point x="308" y="375"/>
      <point x="347" y="402"/>
      <point x="347" y="483" type="curve" smooth="yes"/>
      <point x="347" y="553"/>
      <point x="293" y="577"/>
      <point x="248" y="577" type="curve" smooth="yes"/>
      <point x="193" y="577"/>
      <point x="159" y="540"/>
      <point x="151" y="475" type="curve"/>
      <point x="50" y="475" type="line"/>
      <point x="60" y="589"/>
      <point x="131" y="655"/>
      <point x="247" y="655" type="curve" smooth="yes"/>
      <point x="369" y="655"/>
      <point x="449" y="580"/>
      <point x="449" y="481" type="curve" smooth="yes"/>
      <point x="449" y="397"/>
      <point x="410" y="361"/>
      <point x="364" y="337" type="curve"/>
      <point x="418" y="311"/>
      <point x="460" y="276"/>
    </contour>
  </outline>
</glyph>
<glyph name="four" format="2">
  <advance width="502"/>
  <unicode hex="0034"/>
  <outline>
    <contour>
      <point x="478" y="151" type="line"/>
      <point x="398" y="151" type="line"/>
      <point x="398" y="0" type="line"/>
      <point x="303" y="0" type="line"/>
      <point x="303" y="151" type="line"/>
      <point x="23" y="151" type="line"/>
      <point x="23" y="251" type="line"/>
      <point x="281" y="643" type="line"/>
      <point x="398" y="643" type="line"/>
      <point x="398" y="235" type="line"/>
      <point x="478" y="235" type="line"/>
    </contour>
    <contour>
      <point x="303" y="235" type="line"/>
      <point x="303" y="538" type="line"/>
      <point x="108" y="235" type="line"/>
    </contour>
  </outline>
</glyph>
<glyph name="five" format="2">
  <advance width="502"/>
  <unicode hex="0035"/>
  <outline>
    <contour>
      <point x="459" y="215" type="curve" smooth="yes"/>
      <point x="459" y="101"/>
      <point x="369" y="-12"/>
      <point x="252" y="-12" type="curve" smooth="yes"/>
      <point x="126" y="-12"/>
      <point x="45" y="50"/>
      <point x="42" y="158" type="curve"/>
      <point x="145" y="158" type="line"/>
      <point x="145" y="97"/>
      <point x="185" y="67"/>
      <point x="245" y="67" type="curve" smooth="yes"/>
      <point x="308" y="67"/>
      <point x="357" y="124"/>
      <point x="357" y="212" type="curve" smooth="yes"/>
      <point x="357" y="297"/>
      <point x="329" y="350"/>
      <point x="257" y="350" type="curve" smooth="yes"/>
      <point x="200" y="350"/>
      <point x="167" y="315"/>
      <point x="143" y="265" type="curve"/>
      <point x="52" y="265" type="line"/>
      <point x="66" y="643" type="line"/>
      <point x="420" y="643" type="line"/>
      <point x="420" y="559" type="line"/>
      <point x="163" y="559" type="line"/>
      <point x="153" y="369" type="line"/>
      <point x="183" y="405"/>
      <point x="218" y="425"/>
      <point x="283" y="425" type="curve" smooth="yes"/>
      <point x="395" y="425"/>
      <point x="459" y="325"/>
    </contour>
  </outline>
</glyph>
<glyph name="equal" format="2">
  <advance width="581"/>
  <unicode hex="003D"/>
  <outline>
    <contour>
      <point x="535" y="166" type="line"/>
      <point x="535" y="95" type="line"/>
      <point x="45" y="95" type="line"/>
      <point x="45" y="166" type="line"/>
    </contour>
    <contour>
      <point x="535" y="350" type="line"/>
      <point x="535" y="278" type="line"/>
      <point x="45" y="278" type="line"/>
      <point x="45" y="350" type="line"/>
    </contour>
  </outline>
</glyph>
<glyph name="at" format="2">
  <advance width="903"/>
  <unicode hex="0040"/>
  <outline>
    <contour>
      <point x="855" y="268" type="curve" smooth="yes"/>
      <point x="855" y="141"/>
      <point x="784" y="13"/>
      <point x="671" y="13" type="curve" smooth="yes"/>
      <point x="613" y="13"/>
      <point x="574" y="42"/>
      <point x="550" y="94" type="curve"/>
      <point x="518" y="44"/>
      <point x="480" y="17"/>
      <point x="418" y="17" type="curve" smooth="yes"/>
      <point x="318" y="17"/>
      <point x="247" y="114"/>
      <point x="247" y="228" type="curve" smooth="yes"/>
      <point x="247" y="353"/>
      <point x="315" y="442"/>
      <point x="415" y="442" type="curve" smooth="yes"/>
      <point x="467" y="442"/>
      <point x="501" y="427"/>
      <point x="537" y="383" type="curve"/>
      <point x="537" y="433" type="line"/>
      <point x="632" y="433" type="line"/>
      <point x="632" y="135" type="line" smooth="yes"/>
      <point x="632" y="102"/>
      <point x="660" y="96"/>
      <point x="679" y="96" type="curve" smooth="yes"/>
      <point x="712" y="96"/>
      <point x="757" y="142"/>
      <point x="757" y="256" type="curve" smooth="yes"/>
      <point x="757" y="464"/>
      <point x="639" y="556"/>
      <point x="455" y="556" type="curve" smooth="yes"/>
      <point x="301" y="556"/>
      <point x="145" y="456"/>
      <point x="145" y="244" type="curve" smooth="yes"/>
      <point x="145" y="50"/>
      <point x="264" y="-80"/>
      <point x="455" y="-80" type="curve" smooth="yes"/>
      <point x="534" y="-80"/>
      <point x="573" y="-77"/>
      <point x="630" y="-60" type="curve"/>
      <point x="630" y="-148" type="line"/>
      <point x="558" y="-167"/>
      <point x="524" y="-169"/>
      <point x="473" y="-169" type="curve" smooth="yes"/>
      <point x="254" y="-169"/>
      <point x="47" y="-55"/>
      <point x="47" y="247" type="curve" smooth="yes"/>
      <point x="47" y="494"/>
      <point x="243" y="643"/>
      <point x="453" y="643" type="curve" smooth="yes"/>
      <point x="689" y="643"/>
      <point x="855" y="506"/>
    </contour>
    <contour>
      <point x="535" y="236" type="curve" smooth="yes"/>
      <point x="535" y="313"/>
      <point x="506" y="370"/>
      <point x="441" y="370" type="curve" smooth="yes"/>
      <point x="372" y="370"/>
      <point x="346" y="298"/>
      <point x="346" y="233" type="curve" smooth="yes"/>
      <point x="346" y="165"/>
      <point x="366" y="89"/>
      <point x="440" y="89" type="curve" smooth="yes"/>
      <point x="507" y="89"/>
      <point x="535" y="167"/>
    </contour>
  </outline>
</glyph>
<glyph name="B" format="2">
  <advance width="600"/>
  <unicode hex="0042"/>
  <outline>
    <contour>
      <point x="548" y="174" type="curve" smooth="yes"/>
      <point x="548" y="69"/>
      <point x="445" y="0"/>
      <point x="347" y="0" type="curve" smooth="yes"/>
      <point x="69" y="0" type="line"/>
      <point x="69" y="643" type="line"/>
      <point x="329" y="643" type="line" smooth="yes"/>
      <point x="431" y="643"/>
      <point x="522" y="593"/>
      <point x="522" y="485" type="curve" smooth="yes"/>
      <point x="522" y="408"/>
      <point x="465" y="360"/>
      <point x="406" y="340" type="curve"/>
      <point x="483" y="318"/>
      <point x="548" y="264"/>
    </contour>
    <contour>
      <point x="422" y="467" type="curve" smooth="yes"/>
      <point x="422" y="522"/>
      <point x="385" y="557"/>
      <point x="298" y="557" type="curve" smooth="yes"/>
      <point x="172" y="557" type="line"/>
      <point x="172" y="376" type="line"/>
      <point x="294" y="376" type="line" smooth="yes"/>
      <point x="383" y="376"/>
      <point x="422" y="415"/>
    </contour>
    <contour>
      <point x="444" y="190" type="curve" smooth="yes"/>
      <point x="444" y="259"/>
      <point x="385" y="294"/>
      <point x="294" y="294" type="curve" smooth="yes"/>
      <point x="172" y="294" type="line"/>
      <point x="172" y="86" type="line"/>
      <point x="297" y="86" type="line" smooth="yes"/>
      <point x="382" y="86"/>
      <point x="444" y="124"/>
    </contour>
  </outline>
</glyph>
<glyph name="D" format="2">
  <advance width="643"/>
  <unicode hex="0044"/>
  <outline>
    <contour>
      <point x="592" y="322" type="curve" smooth="yes"/>
      <point x="592" y="147"/>
      <point x="494" y="0"/>
      <point x="267" y="0" type="curve" smooth="yes"/>
      <point x="69" y="0" type="line"/>
      <point x="69" y="643" type="line"/>
      <point x="267" y="643" type="line" smooth="yes"/>
      <point x="497" y="643"/>
      <point x="592" y="499"/>
    </contour>
    <contour>
      <point x="489" y="322" type="curve" smooth="yes"/>
      <point x="489" y="476"/>
      <point x="407" y="557"/>
      <point x="268" y="557" type="curve" smooth="yes"/>
      <point x="172" y="557" type="line"/>
      <point x="172" y="86" type="line"/>
      <point x="268" y="86" type="line" smooth="yes"/>
      <point x="407" y="86"/>
      <point x="489" y="169"/>
    </contour>
  </outline>
</glyph>
<glyph name="E" format="2">
  <advance width="546"/>
  <unicode hex="0045"/>
  <outline>
    <contour>
      <point x="484" y="0" type="line"/>
      <point x="69" y="0" type="line"/>
      <point x="69" y="643" type="line"/>
      <point x="475" y="643" type="line"/>
      <point x="475" y="557" type="line"/>
      <point x="170" y="557" type="line"/>
      <point x="170" y="372" type="line"/>
      <point x="463" y="372" type="line"/>
      <point x="463" y="289" type="line"/>
      <point x="170" y="289" type="line"/>
      <point x="170" y="86" type="line"/>
      <point x="484" y="86" type="line"/>
    </contour>
  </outline>
</glyph>
<glyph name="H" format="2">
  <advance width="633"/>
  <unicode hex="0048"/>
  <outline>
    <contour>
      <point x="565" y="0" type="line"/>
      <point x="461" y="0" type="line"/>
      <point x="461" y="289" type="line"/>
      <point x="171" y="289" type="line"/>
      <point x="171" y="0" type="line"/>
      <point x="69" y="0" type="line"/>
      <point x="69" y="643" type="line"/>
      <point x="171" y="643" type="line"/>
      <point x="171" y="374" type="line"/>
      <point x="461" y="374" type="line"/>
      <point x="461" y="643" type="line"/>
      <point x="565" y="643" type="line"/>
    </contour>
  </outline>
</glyph>
<glyph name="J" format="2">
  <advance width="524"/>
  <unicode hex="004A"/>
  <outline>
    <contour>
      <point x="455" y="191" type="line" smooth="yes"/>
      <point x="455" y="67"/>
      <point x="363" y="-13"/>
      <point x="248" y="-13" type="curve" smooth="yes"/>
      <point x="119" y="-13"/>
      <point x="51" y="63"/>
      <point x="51" y="182" type="curve"/>
      <point x="155" y="182" type="line"/>
      <point x="156" y="101"/>
      <point x="196" y="74"/>
      <point x="250" y="74" type="curve" smooth="yes"/>
      <point x="310" y="74"/>
      <point x="351" y="111"/>
      <point x="351" y="194" type="curve" smooth="yes"/>
      <point x="351" y="644" type="line"/>
      <point x="455" y="644" type="line"/>
    </contour>
  </outline>
</glyph>
<glyph name="M" format="2">
  <advance width="809"/>
  <unicode hex="004D"/>
  <outline>
    <contour>
      <point x="740" y="0" type="line"/>
      <point x="639" y="0" type="line"/>
      <point x="639" y="550" type="line"/>
      <point x="448" y="0" type="line"/>
      <point x="358" y="0" type="line"/>
      <point x="169" y="547" type="line"/>
      <point x="169" y="0" type="line"/>
      <point x="69" y="0" type="line"/>
      <point x="69" y="643" type="line"/>
      <point x="234" y="643" type="line"/>
      <point x="404" y="142" type="line"/>
      <point x="575" y="644" type="line"/>
      <point x="740" y="644" type="line"/>
    </contour>
  </outline>
</glyph>
<glyph name="O" format="2">
  <advance width="695"/>
  <unicode hex="004F"/>
  <outline>
    <contour>
      <point x="643" y="330" type="curve" smooth="yes"/>
      <point x="643" y="143"/>
      <point x="545" y="-13"/>
      <point x="348" y="-13" type="curve" smooth="yes"/>
      <point x="148" y="-13"/>
      <point x="51" y="146"/>
      <point x="51" y="330" type="curve" smooth="yes"/>
      <point x="51" y="517"/>
      <point x="152" y="655"/>
      <point x="348" y="655" type="curve" smooth="yes"/>
      <point x="548" y="655"/>
      <point x="643" y="513"/>
    </contour>
    <contour>
      <point x="536" y="330" type="curve" smooth="yes"/>
      <point x="536" y="471"/>
      <point x="490" y="569"/>
      <point x="348" y="569" type="curve" smooth="yes"/>
      <point x="206" y="569"/>
      <point x="158" y="471"/>
      <point x="158" y="330" type="curve" smooth="yes"/>
      <point x="158" y="188"/>
      <point x="206" y="74"/>
      <point x="348" y="74" type="curve" smooth="yes"/>
      <point x="490" y="74"/>
      <point x="536" y="188"/>
    </contour>
  </outline>
</glyph>
<glyph name="Q" format="2">
  <advance width="714"/>
  <unicode hex="0051"/>
  <outline>
    <contour>
      <point x="685" y="0" type="line"/>
      <point x="447" y="0" type="line"/>
      <point x="401" y="-9"/>
      <point x="371" y="-13"/>
      <point x="348" y="-13" type="curve" smooth="yes"/>
      <point x="147" y="-13"/>
      <point x="51" y="147"/>
      <point x="51" y="330" type="curve" smooth="yes"/>
      <point x="51" y="517"/>
      <point x="151" y="655"/>
      <point x="348" y="655" type="curve" smooth="yes"/>
      <point x="548" y="655"/>
      <point x="643" y="513"/>
      <point x="643" y="330" type="curve" smooth="yes"/>
      <point x="643" y="227"/>
      <point x="613" y="133"/>
      <point x="554" y="76" type="curve"/>
      <point x="685" y="76" type="line"/>
    </contour>
    <contour>
      <point x="536" y="330" type="curve" smooth="yes"/>
      <point x="536" y="471"/>
      <point x="490" y="569"/>
      <point x="348" y="569" type="curve" smooth="yes"/>
      <point x="206" y="569"/>
      <point x="158" y="471"/>
      <point x="158" y="330" type="curve" smooth="yes"/>
      <point x="158" y="188"/>
      <point x="206" y="74"/>
      <point x="348" y="74" type="curve" smooth="yes"/>
      <point x="490" y="74"/>
      <point x="536" y="188"/>
    </contour>
  </outline>
</glyph>
<glyph name="V" format="2">
  <advance width="607"/>
  <unicode hex="0056"/>
  <outline>
    <contour>
      <point x="594" y="643" type="line"/>
      <point x="361" y="0" type="line"/>
      <point x="243" y="0" type="line"/>
      <point x="12" y="643" type="line"/>
      <point x="126" y="643" type="line"/>
      <point x="303" y="126" type="line"/>
      <point x="481" y="643" type="line"/>
    </contour>
  </outline>
</glyph>
<glyph name="W" format="2">
  <advance width="874"/>
  <unicode hex="0057"/>
  <outline>
    <contour>
      <point x="862" y="643" type="line"/>
      <point x="681" y="0" type="line"/>
      <point x="577" y="0" type="line"/>
      <point x="436" y="517" type="line"/>
      <point x="296" y="0" type="line"/>
      <point x="192" y="0" type="line"/>
      <point x="12" y="643" type="line"/>
      <point x="122" y="643" type="line"/>
      <point x="245" y="142" type="line"/>
      <point x="378" y="643" type="line"/>
      <point x="496" y="643" type="line"/>
      <point x="628" y="142" type="line"/>
      <point x="751" y="643" type="line"/>
    </contour>
  </outline>
</glyph>
<glyph name="bracketleft" format="2">
  <advance width="351"/>
  <unicode hex="005B"/>
  <outline>
    <contour>
      <point x="264" y="-177" type="line"/>
      <point x="87" y="-177" type="line"/>
      <point x="87" y="643" type="line"/>
      <point x="264" y="643" type="line"/>
      <point x="264" y="585" type="line"/>
      <point x="174" y="585" type="line"/>
      <point x="174" y="-120" type="line"/>
      <point x="264" y="-120" type="line"/>
    </contour>
  </outline>
</glyph>
<glyph name="grave" format="2">
  <advance width="211"/>
  <unicode hex="0060"/>
  <outline>
    <contour>
      <point x="162" y="534" type="line"/>
      <point x="105" y="534" type="line"/>
      <point x="-23" y="689" type="line"/>
      <point x="76" y="689" type="line"/>
    </contour>
  </outline>
</glyph>
<glyph name="a" format="2">
  <advance width="491"/>
  <unicode hex="0061"/>
  <outline>
    <contour>
      <point x="443" y="0" type="curve"/>
      <point x="353" y="0" type="line"/>
      <point x="349" y="19"/>
      <point x="345" y="40"/>
      <point x="342" y="60" type="curve"/>
      <point x="296" y="9"/>
      <point x="264" y="-12"/>
      <point x="207" y="-12" type="curve" smooth="yes"/>
      <point x="128" y="-12"/>
      <point x="42" y="34"/>
      <point x="42" y="119" type="curve" smooth="yes"/>
      <point x="42" y="251"/>
      <point x="170" y="284"/>
      <point x="274" y="284" type="curve" smooth="yes"/>
      <point x="337" y="284" type="line"/>
      <point x="338" y="291"/>
      <point x="338" y="298"/>
      <point x="338" y="304" type="curve" smooth="yes"/>
      <point x="338" y="357"/>
      <point x="318" y="393"/>
      <point x="248" y="393" type="curve" smooth="yes"/>
      <point x="200" y="393"/>
      <point x="162" y="374"/>
      <point x="159" y="324" type="curve"/>
      <point x="64" y="324" type="line"/>
      <point x="64" y="420"/>
      <point x="149" y="456"/>
      <point x="247" y="456" type="curve" smooth="yes"/>
      <point x="310" y="456"/>
      <point x="397" y="443"/>
      <point x="421" y="376" type="curve" smooth="yes"/>
      <point x="428" y="356"/>
      <point x="430" y="309"/>
      <point x="430" y="267" type="curve" smooth="yes"/>
      <point x="430" y="137" type="line" smooth="yes"/>
      <point x="430" y="88"/>
      <point x="433" y="28"/>
    </contour>
    <contour>
      <point x="336" y="220" type="curve"/>
      <point x="325" y="221"/>
      <point x="305" y="222"/>
      <point x="292" y="222" type="curve" smooth="yes"/>
      <point x="227" y="222"/>
      <point x="138" y="200"/>
      <point x="138" y="129" type="curve" smooth="yes"/>
      <point x="138" y="84"/>
      <point x="175" y="54"/>
      <point x="220" y="54" type="curve" smooth="yes"/>
      <point x="319" y="54"/>
      <point x="336" y="131"/>
    </contour>
  </outline>
</glyph>
<glyph name="b" format="2">
  <advance width="532"/>
  <unicode hex="0062"/>
  <outline>
    <contour>
      <point x="490" y="233" type="curve" smooth="yes"/>
      <point x="490" y="78"/>
      <point x="397" y="-12"/>
      <point x="295" y="-12" type="curve" smooth="yes"/>
      <point x="230" y="-12"/>
      <point x="182" y="17"/>
      <point x="154" y="52" type="curve"/>
      <point x="154" y="0" type="line"/>
      <point x="60" y="0" type="line"/>
      <point x="60" y="643" type="line"/>
      <point x="152" y="643" type="line"/>
      <point x="152" y="391" type="line"/>
      <point x="177" y="423"/>
      <point x="219" y="456"/>
      <point x="297" y="456" type="curve" smooth="yes"/>
      <point x="447" y="456"/>
      <point x="490" y="321"/>
    </contour>
    <contour>
      <point x="392" y="227" type="curve" smooth="yes"/>
      <point x="392" y="308"/>
      <point x="362" y="397"/>
      <point x="272" y="397" type="curve" smooth="yes"/>
      <point x="191" y="397"/>
      <point x="153" y="321"/>
      <point x="153" y="228" type="curve" smooth="yes"/>
      <point x="153" y="128"/>
      <point x="190" y="54"/>
      <point x="272" y="54" type="curve" smooth="yes"/>
      <point x="345" y="54"/>
      <point x="391" y="127"/>
    </contour>
  </outline>
</glyph>
<glyph name="e" format="2">
  <advance width="495"/>
  <unicode hex="0065"/>
  <outline>
    <contour>
      <point x="447" y="141" type="line"/>
      <point x="435" y="59"/>
      <point x="375" y="-12"/>
      <point x="247" y="-12" type="curve" smooth="yes"/>
      <point x="97" y="-12"/>
      <point x="43" y="110"/>
      <point x="43" y="221" type="curve" smooth="yes"/>
      <point x="43" y="341"/>
      <point x="101" y="456"/>
      <point x="253" y="456" type="curve" smooth="yes"/>
      <point x="417" y="456"/>
      <point x="452" y="331"/>
      <point x="452" y="245" type="curve" smooth="yes"/>
      <point x="452" y="233"/>
      <point x="451" y="218"/>
      <point x="449" y="206" type="curve"/>
      <point x="141" y="206" type="line"/>
      <point x="141" y="117"/>
      <point x="167" y="52"/>
      <point x="249" y="52" type="curve" smooth="yes"/>
      <point x="318" y="52"/>
      <point x="343" y="98"/>
      <point x="349" y="141" type="curve"/>
    </contour>
    <contour>
      <point x="351" y="270" type="line"/>
      <point x="351" y="275"/>
      <point x="352" y="281"/>
      <point x="352" y="286" type="curve" smooth="yes"/>
      <point x="352" y="346"/>
      <point x="324" y="394"/>
      <point x="248" y="394" type="curve" smooth="yes"/>
      <point x="172" y="394"/>
      <point x="146" y="328"/>
      <point x="141" y="270" type="curve"/>
    </contour>
  </outline>
</glyph>
<glyph name="g" format="2">
  <advance width="532"/>
  <unicode hex="0067"/>
  <outline>
    <contour>
      <point x="471" y="18" type="line" smooth="yes"/>
      <point x="471" y="-98"/>
      <point x="395" y="-177"/>
      <point x="253" y="-177" type="curve" smooth="yes"/>
      <point x="101" y="-177"/>
      <point x="66" y="-89"/>
      <point x="66" y="-40" type="curve"/>
      <point x="161" y="-40" type="line"/>
      <point x="161" y="-90"/>
      <point x="210" y="-115"/>
      <point x="263" y="-115" type="curve" smooth="yes"/>
      <point x="345" y="-115"/>
      <point x="377" y="-69"/>
      <point x="377" y="80" type="curve"/>
      <point x="348" y="35"/>
      <point x="293" y="8"/>
      <point x="243" y="8" type="curve" smooth="yes"/>
      <point x="118" y="8"/>
      <point x="43" y="86"/>
      <point x="43" y="230" type="curve" smooth="yes"/>
      <point x="43" y="365"/>
      <point x="120" y="456"/>
      <point x="234" y="456" type="curve" smooth="yes"/>
      <point x="305" y="456"/>
      <point x="348" y="440"/>
      <point x="377" y="399" type="curve"/>
      <point x="377" y="445" type="line"/>
      <point x="471" y="445" type="line"/>
    </contour>
    <contour>
      <point x="377" y="230" type="curve" smooth="yes"/>
      <point x="377" y="329"/>
      <point x="341" y="394"/>
      <point x="255" y="394" type="curve" smooth="yes"/>
      <point x="164" y="394"/>
      <point x="138" y="312"/>
      <point x="138" y="230" type="curve" smooth="yes"/>
      <point x="138" y="139"/>
      <point x="176" y="73"/>
      <point x="256" y="73" type="curve" smooth="yes"/>
      <point x="344" y="73"/>
      <point x="377" y="153"/>
    </contour>
  </outline>
</glyph>
<glyph name="i" format="2">
  <advance width="214"/>
  <unicode hex="0069"/>
  <outline>
    <contour>
      <point x="159" y="549" type="line"/>
      <point x="55" y="549" type="line"/>
      <point x="55" y="643" type="line"/>
      <point x="159" y="643" type="line"/>
    </contour>
    <contour>
      <point x="154" y="0" type="line"/>
      <point x="60" y="0" type="line"/>
      <point x="60" y="445" type="line"/>
      <point x="154" y="445" type="line"/>
    </contour>
  </outline>
</glyph>
<glyph name="l" format="2">
  <advance width="214"/>
  <unicode hex="006C"/>
  <outline>
    <contour>
      <point x="154" y="0" type="line"/>
      <point x="60" y="0" type="line"/>
      <point x="60" y="643" type="line"/>
      <point x="154" y="643" type="line"/>
    </contour>
  </outline>
</glyph>
<glyph name="p" format="2">
  <advance width="538"/>
  <unicode hex="0070"/>
  <outline>
    <contour>
      <point x="495" y="224" type="curve" smooth="yes"/>
      <point x="495" y="86"/>
      <point x="432" y="-13"/>
      <point x="291" y="-13" type="curve" smooth="yes"/>
      <point x="232" y="-13"/>
      <point x="193" y="11"/>
      <point x="154" y="44" type="curve"/>
      <point x="154" y="-177" type="line"/>
      <point x="60" y="-177" type="line"/>
      <point x="60" y="445" type="line"/>
      <point x="154" y="445" type="line"/>
      <point x="154" y="387" type="line"/>
      <point x="195" y="429"/>
      <point x="234" y="456"/>
      <point x="288" y="456" type="curve" smooth="yes"/>
      <point x="433" y="456"/>
      <point x="495" y="354"/>
    </contour>
    <contour>
      <point x="398" y="224" type="curve" smooth="yes"/>
      <point x="398" y="308"/>
      <point x="363" y="393"/>
      <point x="275" y="393" type="curve" smooth="yes"/>
      <point x="186" y="393"/>
      <point x="154" y="304"/>
      <point x="154" y="223" type="curve" smooth="yes"/>
      <point x="154" y="126"/>
      <point x="189" y="51"/>
      <point x="274" y="51" type="curve" smooth="yes"/>
      <point x="364" y="51"/>
      <point x="398" y="141"/>
    </contour>
  </outline>
</glyph>
<glyph name="z" format="2">
  <advance width="429"/>
  <unicode hex="007A"/>
  <outline>
    <contour>
      <point x="385" y="0" type="line"/>
      <point x="43" y="0" type="line"/>
      <point x="43" y="80" type="line"/>
      <point x="279" y="378" type="line"/>
      <point x="56" y="378" type="line"/>
      <point x="56" y="445" type="line"/>
      <point x="381" y="445" type="line"/>
      <point x="381" y="365" type="line"/>
      <point x="144" y="66" type="line"/>
      <point x="385" y="66" type="line"/>
    </contour>
  </outline>
</glyph>
<glyph name="braceleft" format="2">
  <advance width="418"/>
  <unicode hex="007B"/>
  <outline>
    <contour>
      <point x="363" y="-428" type="line"/>
      <point x="187" y="-428"/>
      <point x="175" y="-215"/>
      <point x="175" y="54" type="curve" smooth="yes"/>
      <point x="175" y="146"/>
      <point x="70" y="172"/>
      <point x="70" y="225" type="curve" smooth="yes"/>
      <point x="70" y="277"/>
      <point x="175" y="305"/>
      <point x="175" y="397" type="curve" smooth="yes"/>
      <point x="175" y="665"/>
      <point x="187" y="878"/>
      <point x="363" y="878" type="curve"/>
      <point x="363" y="808" type="line"/>
      <point x="263" y="808"/>
      <point x="247" y="656"/>
      <point x="247" y="382" type="curve" smooth="yes"/>
      <point x="247" y="273"/>
      <point x="149" y="239"/>
      <point x="149" y="225" type="curve" smooth="yes"/>
      <point x="149" y="211"/>
      <point x="247" y="178"/>
      <point x="247" y="68" type="curve" smooth="yes"/>
      <point x="247" y="-205"/>
      <point x="263" y="-358"/>
      <point x="363" y="-358" type="curve"/>
    </contour>
  </outline>
</glyph>
<glyph name="asciitilde" format="2">
  <advance width="567"/>
  <unicode hex="007E"/>
  <outline>
    <contour>
      <point x="511" y="236" type="line"/>
      <point x="465" y="192"/>
      <point x="416" y="173"/>
      <point x="372" y="173" type="curve" smooth="yes"/>
      <point x="289" y="173"/>
      <point x="242" y="234"/>
      <point x="197" y="234" type="curve" smooth="yes"/>
      <point x="167" y="234"/>
      <point x="137" y="225"/>
      <point x="77" y="174" type="curve"/>
      <point x="55" y="231" type="line"/>
      <point x="105" y="278"/>
      <point x="149" y="295"/>
      <point x="197" y="295" type="curve" smooth="yes"/>
      <point x="275" y="295"/>
      <point x="303" y="235"/>
      <point x="372" y="235" type="curve" smooth="yes"/>
      <point x="402" y="235"/>
      <point x="431" y="249"/>
      <point x="472" y="282" type="curve"/>
    </contour>
  </outline>
</glyph>
<glyph name="multiply" format="2">
  <advance width="512"/>
  <unicode hex="00D7"/>
  <outline>
    <contour>
      <point x="418" y="111" type="line"/>
      <point x="368" y="60" type="line"/>
      <point x="257" y="172" type="line"/>
      <point x="145" y="60" type="line"/>
      <point x="93" y="112" type="line"/>
      <point x="205" y="224" type="line"/>
      <point x="94" y="335" type="line"/>
      <point x="144" y="386" type="line"/>
      <point x="256" y="274" type="line"/>
      <point x="368" y="387" type="line"/>
      <point x="420" y="335" type="line"/>
      <point x="307" y="223" type="line"/>
    </contour>
  </outline>
</glyph>
<glyph name="u1001" format="2">
  <advance width="584"/>
  <unicode hex="1001"/>
  <anchor x="0" y="0" name="_R"/>
  <anchor x="289" y="-53" name="BS"/>
  <anchor x="289" y="-53" name="L"/>
  <anchor x="289" y="495" name="U"/>
  <anchor x="283" y="-53" name="BD"/>
  <outline>
    <contour>
      <point x="529" y="222" type="curve" smooth="yes"/>
      <point x="529" y="92"/>
      <point x="426" y="-18"/>
      <point x="289" y="-18" type="curve" smooth="yes"/>
      <point x="181" y="-18"/>
      <point x="67" y="53"/>
      <point x="56" y="164" type="curve"/>
      <point x="120" y="205"/>
      <point x="181" y="221"/>
      <point x="223" y="221" type="curve" smooth="yes"/>
      <point x="301" y="221"/>
      <point x="380" y="176"/>
      <point x="420" y="121" type="curve"/>
      <point x="443" y="148"/>
      <point x="457" y="182"/>
      <point x="457" y="222" type="curve" smooth="yes"/>
      <point x="457" y="297"/>
      <point x="394" y="390"/>
      <point x="289" y="390" type="curve" smooth="yes"/>
      <point x="228" y="390"/>
      <point x="164" y="355"/>
      <point x="130" y="292" type="curve"/>
      <point x="68" y="327" type="line"/>
      <point x="108" y="411"/>
      <point x="198" y="461"/>
      <point x="289" y="461" type="curve" smooth="yes"/>
      <point x="429" y="461"/>
      <point x="529" y="344"/>
    </contour>
    <contour>
      <point x="372" y="75" type="curve"/>
      <point x="344" y="123"/>
      <point x="285" y="156"/>
      <point x="225" y="156" type="curve" smooth="yes"/>
      <point x="200" y="156"/>
      <point x="168" y="150"/>
      <point x="137" y="136" type="curve"/>
      <point x="175" y="78"/>
      <point x="234" y="54"/>
      <point x="289" y="54" type="curve" smooth="yes"/>
      <point x="321" y="54"/>
      <point x="347" y="61"/>
    </contour>
  </outline>
</glyph>
<glyph name="u1002" format="2">
  <advance width="590"/>
  <unicode hex="1002"/>
  <anchor x="0" y="0" name="_R"/>
  <anchor x="295" y="-53" name="BS"/>
  <anchor x="295" y="-53" name="L"/>
  <anchor x="295" y="495" name="U"/>
  <anchor x="292" y="-53" name="BD"/>
  <outline>
    <contour>
      <point x="535" y="204" type="curve" smooth="yes"/>
      <point x="535" y="97"/>
      <point x="502" y="34"/>
      <point x="439" y="-18" type="curve"/>
      <point x="397" y="42" type="line"/>
      <point x="439" y="84"/>
      <point x="462" y="128"/>
      <point x="462" y="204" type="curve" smooth="yes"/>
      <point x="462" y="307"/>
      <point x="391" y="388"/>
      <point x="295" y="388" type="curve" smooth="yes"/>
      <point x="199" y="388"/>
      <point x="127" y="307"/>
      <point x="127" y="204" type="curve" smooth="yes"/>
      <point x="127" y="128"/>
      <point x="151" y="84"/>
      <point x="192" y="42" type="curve"/>
      <point x="150" y="-18" type="line"/>
      <point x="89" y="34"/>
      <point x="55" y="97"/>
      <point x="55" y="204" type="curve" smooth="yes"/>
      <point x="55" y="352"/>
      <point x="161" y="460"/>
      <point x="295" y="460" type="curve" smooth="yes"/>
      <point x="422" y="460"/>
      <point x="535" y="358"/>
    </contour>
  </outline>
</glyph>
<glyph name="u1004" format="2">
  <advance width="571"/>
  <unicode hex="1004"/>
  <anchor x="0" y="0" name="_R"/>
  <anchor x="294" y="-53" name="BS"/>
  <anchor x="294" y="-53" name="L"/>
  <anchor x="294" y="495" name="U"/>
  <anchor x="292" y="-53" name="BD"/>
  <outline>
    <contour>
      <point x="516" y="117" type="line"/>
      <point x="476" y="30"/>
      <point x="384" y="-18"/>
      <point x="294" y="-18" type="curve" smooth="yes"/>
      <point x="163" y="-18"/>
      <point x="55" y="90"/>
      <point x="55" y="222" type="curve" smooth="yes"/>
      <point x="55" y="352"/>
      <point x="163" y="461"/>
      <point x="294" y="461" type="curve" smooth="yes"/>
      <point x="381" y="461"/>
      <point x="476" y="415"/>
      <point x="516" y="327" type="curve"/>
      <point x="453" y="292" type="line"/>
      <point x="417" y="356"/>
      <point x="358" y="390"/>
      <point x="294" y="390" type="curve" smooth="yes"/>
      <point x="203" y="390"/>
      <point x="127" y="313"/>
      <point x="127" y="222" type="curve" smooth="yes"/>
      <point x="127" y="130"/>
      <point x="203" y="54"/>
      <point x="294" y="54" type="curve" smooth="yes"/>
      <point x="359" y="54"/>
      <point x="419" y="89"/>
      <point x="453" y="151" type="curve"/>
    </contour>
  </outline>
</glyph>
<glyph name="u1009" format="2">
  <advance width="572"/>
  <unicode hex="1009"/>
  <anchor x="0" y="0" name="_R"/>
  <anchor x="450" y="-53" name="BS"/>
  <anchor x="724" y="-53" name="LL"/>
  <anchor x="285" y="-53" name="L"/>
  <anchor x="277" y="495" name="U"/>
  <anchor x="450" y="-53" name="BD"/>
  <outline>
    <contour>
      <point x="910" y="-292" type="line"/>
      <point x="910" y="-346" type="line" smooth="yes"/>
      <point x="910" y="-392"/>
      <point x="904" y="-413"/>
      <point x="891" y="-428" type="curve" smooth="yes"/>
      <point x="876" y="-447"/>
      <point x="857" y="-457"/>
      <point x="812" y="-457" type="curve" smooth="yes"/>
      <point x="296" y="-457" type="line" smooth="yes"/>
      <point x="214" y="-457"/>
      <point x="160" y="-436"/>
      <point x="117" y="-392" type="curve" smooth="yes"/>
      <point x="72" y="-346"/>
      <point x="55" y="-291"/>
      <point x="55" y="-217" type="curve" smooth="yes"/>
      <point x="55" y="117" type="line"/>
      <point x="119" y="151" type="line"/>
      <point x="157" y="81"/>
      <point x="224" y="54"/>
      <point x="277" y="54" type="curve" smooth="yes"/>
      <point x="369" y="54"/>
      <point x="445" y="130"/>
      <point x="445" y="222" type="curve" smooth="yes"/>
      <point x="445" y="313"/>
      <point x="369" y="390"/>
      <point x="277" y="390" type="curve" smooth="yes"/>
      <point x="224" y="390"/>
      <point x="157" y="362"/>
      <point x="119" y="292" type="curve"/>
      <point x="55" y="327" type="line"/>
      <point x="97" y="419"/>
      <point x="193" y="461"/>
      <point x="277" y="461" type="curve" smooth="yes"/>
      <point x="408" y="461"/>
      <point x="516" y="352"/>
      <point x="516" y="222" type="curve" smooth="yes"/>
      <point x="516" y="90"/>
      <point x="408" y="-18"/>
      <point x="277" y="-18" type="curve" smooth="yes"/>
      <point x="226" y="-18"/>
      <point x="171" y="0"/>
      <point x="127" y="33" type="curve"/>
      <point x="127" y="-202" type="line" smooth="yes"/>
      <point x="127" y="-261"/>
      <point x="136" y="-309"/>
      <point x="169" y="-342" type="curve" smooth="yes"/>
      <point x="203" y="-376"/>
      <point x="251" y="-385"/>
      <point x="310" y="-385" type="curve" smooth="yes"/>
      <point x="790" y="-385" type="line" smooth="yes"/>
      <point x="833" y="-385"/>
      <point x="838" y="-377"/>
      <point x="838" y="-332" type="curve" smooth="yes"/>
      <point x="838" y="-292" type="line"/>
    </contour>
  </outline>
</glyph>
<glyph name="u100A" format="2">
  <advance width="978"/>
  <unicode hex="100A"/>
  <anchor x="0" y="0" name="_R"/>
  <anchor x="1056" y="-53" name="BS"/>
  <anchor x="670" y="-53" name="L"/>
  <anchor x="686" y="495" name="U"/>
  <anchor x="1063" y="-53" name="BD"/>
  <outline>
    <contour>
      <point x="923" y="222" type="curve" smooth="yes"/>
      <point x="923" y="90"/>
      <point x="815" y="-18"/>
      <point x="686" y="-18" type="curve" smooth="yes"/>
      <point x="599" y="-18"/>
      <point x="527" y="37"/>
      <point x="485" y="109" type="curve"/>
      <point x="446" y="34"/>
      <point x="367" y="-18"/>
      <point x="277" y="-18" type="curve" smooth="yes"/>
      <point x="226" y="-18"/>
      <point x="170" y="-1"/>
      <point x="127" y="34" type="curve"/>
      <point x="127" y="-202" type="line" smooth="yes"/>
      <point x="127" y="-261"/>
      <point x="136" y="-309"/>
      <point x="169" y="-342" type="curve" smooth="yes"/>
      <point x="203" y="-376"/>
      <point x="251" y="-385"/>
      <point x="310" y="-385" type="curve" smooth="yes"/>
      <point x="786" y="-385" type="line" smooth="yes"/>
      <point x="830" y="-385"/>
      <point x="835" y="-377"/>
      <point x="835" y="-332" type="curve" smooth="yes"/>
      <point x="835" y="-292" type="line"/>
      <point x="907" y="-292" type="line"/>
      <point x="907" y="-346" type="line" smooth="yes"/>
      <point x="907" y="-392"/>
      <point x="901" y="-413"/>
      <point x="888" y="-428" type="curve" smooth="yes"/>
      <point x="873" y="-447"/>
      <point x="854" y="-457"/>
      <point x="809" y="-457" type="curve" smooth="yes"/>
      <point x="296" y="-457" type="line" smooth="yes"/>
      <point x="214" y="-457"/>
      <point x="160" y="-436"/>
      <point x="117" y="-392" type="curve" smooth="yes"/>
      <point x="72" y="-346"/>
      <point x="55" y="-291"/>
      <point x="55" y="-217" type="curve" smooth="yes"/>
      <point x="55" y="117" type="line"/>
      <point x="119" y="151" type="line"/>
      <point x="152" y="87"/>
      <point x="214" y="54"/>
      <point x="277" y="54" type="curve" smooth="yes"/>
      <point x="369" y="54"/>
      <point x="445" y="130"/>
      <point x="445" y="220" type="curve" smooth="yes"/>
      <point x="445" y="303"/>
      <point x="374" y="390"/>
      <point x="277" y="390" type="curve" smooth="yes"/>
      <point x="212" y="390"/>
      <point x="155" y="358"/>
      <point x="119" y="292" type="curve"/>
      <point x="55" y="327" type="line"/>
      <point x="97" y="419"/>
      <point x="193" y="461"/>
      <point x="277" y="461" type="curve" smooth="yes"/>
      <point x="405" y="461"/>
      <point x="513" y="353"/>
      <point x="516" y="225" type="curve"/>
      <point x="528" y="142"/>
      <point x="603" y="54"/>
      <point x="686" y="54" type="curve" smooth="yes"/>
      <point x="777" y="54"/>
      <point x="851" y="130"/>
      <point x="851" y="222" type="curve" smooth="yes"/>
      <point x="851" y="313"/>
      <point x="777" y="390"/>
      <point x="686" y="390" type="curve" smooth="yes"/>
      <point x="673" y="390"/>
      <point x="656" y="386"/>
      <point x="644" y="381" type="curve"/>
      <point x="616" y="447" type="line"/>
      <point x="636" y="455"/>
      <point x="664" y="461"/>
      <point x="686" y="461" type="curve" smooth="yes"/>
      <point x="815" y="461"/>
      <point x="923" y="354"/>
    </contour>
  </outline>
</glyph>
<glyph name="u100B" format="2">
  <advance width="595"/>
  <unicode hex="100B"/>
  <anchor x="0" y="0" name="_R"/>
  <anchor x="666" y="-53" name="BS"/>
  <anchor x="666" y="-53" name="L"/>
  <anchor x="295" y="495" name="U"/>
  <anchor x="657" y="-53" name="BD"/>
  <outline>
    <contour>
      <point x="596" y="-426" type="line"/>
      <point x="569" y="-440"/>
      <point x="527" y="-457"/>
      <point x="511" y="-457" type="curve" smooth="yes"/>
      <point x="465" y="-457"/>
      <point x="444" y="-427"/>
      <point x="444" y="-381" type="curve" smooth="yes"/>
      <point x="444" y="-281" type="line"/>
      <point x="397" y="-299"/>
      <point x="346" y="-305"/>
      <point x="294" y="-305" type="curve" smooth="yes"/>
      <point x="221" y="-305"/>
      <point x="147" y="-289"/>
      <point x="86" y="-251" type="curve"/>
      <point x="86" y="-23" type="line"/>
      <point x="146" y="-65"/>
      <point x="214" y="-95"/>
      <point x="294" y="-95" type="curve" smooth="yes"/>
      <point x="348" y="-95"/>
      <point x="398" y="-80"/>
      <point x="444" y="-56" type="curve"/>
      <point x="444" y="33" type="line"/>
      <point x="400" y="0"/>
      <point x="345" y="-18"/>
      <point x="294" y="-18" type="curve" smooth="yes"/>
      <point x="163" y="-18"/>
      <point x="55" y="90"/>
      <point x="55" y="222" type="curve" smooth="yes"/>
      <point x="55" y="352"/>
      <point x="163" y="461"/>
      <point x="294" y="461" type="curve" smooth="yes"/>
      <point x="378" y="461"/>
      <point x="474" y="419"/>
      <point x="516" y="327" type="curve"/>
      <point x="453" y="292" type="line"/>
      <point x="419" y="354"/>
      <point x="358" y="390"/>
      <point x="294" y="390" type="curve" smooth="yes"/>
      <point x="203" y="390"/>
      <point x="127" y="313"/>
      <point x="127" y="222" type="curve" smooth="yes"/>
      <point x="127" y="130"/>
      <point x="203" y="54"/>
      <point x="294" y="54" type="curve" smooth="yes"/>
      <point x="359" y="54"/>
      <point x="419" y="89"/>
      <point x="453" y="151" type="curve"/>
      <point x="516" y="117" type="line"/>
      <point x="516" y="-92" type="line"/>
      <point x="448" y="-138"/>
      <point x="374" y="-164"/>
      <point x="294" y="-164" type="curve" smooth="yes"/>
      <point x="247" y="-164"/>
      <point x="200" y="-155"/>
      <point x="157" y="-138" type="curve"/>
      <point x="157" y="-208" type="line"/>
      <point x="201" y="-227"/>
      <point x="247" y="-236"/>
      <point x="294" y="-236" type="curve" smooth="yes"/>
      <point x="373" y="-236"/>
      <point x="441" y="-217"/>
      <point x="516" y="-177" type="curve"/>
      <point x="516" y="-352" type="line" smooth="yes"/>
      <point x="516" y="-369"/>
      <point x="518" y="-375"/>
      <point x="527" y="-375" type="curve" smooth="yes"/>
      <point x="538" y="-375"/>
      <point x="565" y="-364"/>
      <point x="578" y="-357" type="curve"/>
    </contour>
  </outline>
</glyph>
<glyph name="u100C" format="2">
  <advance width="571"/>
  <unicode hex="100C"/>
  <anchor x="0" y="0" name="_R"/>
  <anchor x="666" y="-53" name="BS"/>
  <anchor x="666" y="-53" name="L"/>
  <anchor x="294" y="495" name="U"/>
  <anchor x="657" y="-53" name="BD"/>
  <outline>
    <contour>
      <point x="516" y="117" type="line"/>
      <point x="516" y="-272" type="line" smooth="yes"/>
      <point x="516" y="-331"/>
      <point x="492" y="-372"/>
      <point x="463" y="-401" type="curve" smooth="yes"/>
      <point x="433" y="-432"/>
      <point x="392" y="-457"/>
      <point x="336" y="-457" type="curve" smooth="yes"/>
      <point x="184" y="-457" type="line" smooth="yes"/>
      <point x="106" y="-457"/>
      <point x="70" y="-391"/>
      <point x="70" y="-335" type="curve" smooth="yes"/>
      <point x="70" y="-273"/>
      <point x="120" y="-216"/>
      <point x="195" y="-216" type="curve" smooth="yes"/>
      <point x="231" y="-216"/>
      <point x="255" y="-225"/>
      <point x="272" y="-240" type="curve"/>
      <point x="233" y="-300" type="line"/>
      <point x="220" y="-292"/>
      <point x="209" y="-288"/>
      <point x="195" y="-288" type="curve" smooth="yes"/>
      <point x="164" y="-288"/>
      <point x="141" y="-306"/>
      <point x="141" y="-335" type="curve" smooth="yes"/>
      <point x="141" y="-362"/>
      <point x="162" y="-385"/>
      <point x="193" y="-385" type="curve" smooth="yes"/>
      <point x="308" y="-385" type="line" smooth="yes"/>
      <point x="364" y="-385"/>
      <point x="383" y="-378"/>
      <point x="411" y="-352" type="curve" smooth="yes"/>
      <point x="432" y="-332"/>
      <point x="444" y="-297"/>
      <point x="444" y="-262" type="curve" smooth="yes"/>
      <point x="444" y="33" type="line"/>
      <point x="400" y="0"/>
      <point x="345" y="-18"/>
      <point x="294" y="-18" type="curve" smooth="yes"/>
      <point x="163" y="-18"/>
      <point x="55" y="90"/>
      <point x="55" y="222" type="curve" smooth="yes"/>
      <point x="55" y="352"/>
      <point x="163" y="461"/>
      <point x="294" y="461" type="curve" smooth="yes"/>
      <point x="378" y="461"/>
      <point x="474" y="419"/>
      <point x="516" y="327" type="curve"/>
      <point x="453" y="292" type="line"/>
      <point x="417" y="356"/>
      <point x="357" y="390"/>
      <point x="294" y="390" type="curve" smooth="yes"/>
      <point x="203" y="390"/>
      <point x="127" y="313"/>
      <point x="127" y="222" type="curve" smooth="yes"/>
      <point x="127" y="130"/>
      <point x="203" y="54"/>
      <point x="294" y="54" type="curve" smooth="yes"/>
      <point x="357" y="54"/>
      <point x="417" y="86"/>
      <point x="453" y="151" type="curve"/>
    </contour>
  </outline>
</glyph>
<glyph name="u1013" format="2">
  <advance width="581"/>
  <unicode hex="1013"/>
  <anchor x="0" y="0" name="_R"/>
  <anchor x="291" y="-53" name="BS"/>
  <anchor x="291" y="-53" name="L"/>
  <anchor x="291" y="495" name="U"/>
  <anchor x="288" y="-53" name="BD"/>
  <outline>
    <contour>
      <point x="525" y="222" type="curve" smooth="yes"/>
      <point x="525" y="90"/>
      <point x="421" y="-18"/>
      <point x="292" y="-18" type="curve" smooth="yes"/>
      <point x="158" y="-18"/>
      <point x="55" y="90"/>
      <point x="55" y="222" type="curve" smooth="yes"/>
      <point x="55" y="352"/>
      <point x="159" y="461"/>
      <point x="289" y="461" type="curve" smooth="yes"/>
      <point x="422" y="461"/>
      <point x="525" y="352"/>
    </contour>
    <contour>
      <point x="453" y="225" type="curve" smooth="yes"/>
      <point x="451" y="314"/>
      <point x="379" y="390"/>
      <point x="292" y="390" type="curve" smooth="yes"/>
      <point x="202" y="390"/>
      <point x="128" y="315"/>
      <point x="127" y="225" type="curve" smooth="yes"/>
      <point x="127" y="208"/>
      <point x="130" y="192"/>
      <point x="136" y="178" type="curve"/>
      <point x="184" y="223"/>
      <point x="242" y="237"/>
      <point x="290" y="237" type="curve" smooth="yes"/>
      <point x="339" y="237"/>
      <point x="397" y="222"/>
      <point x="444" y="179" type="curve"/>
      <point x="450" y="193"/>
      <point x="453" y="209"/>
    </contour>
    <contour>
      <point x="418" y="119" type="curve"/>
      <point x="374" y="161"/>
      <point x="327" y="172"/>
      <point x="292" y="172" type="curve" smooth="yes"/>
      <point x="258" y="172"/>
      <point x="209" y="159"/>
      <point x="162" y="117" type="curve"/>
      <point x="193" y="78"/>
      <point x="238" y="54"/>
      <point x="289" y="54" type="curve" smooth="yes"/>
      <point x="342" y="54"/>
      <point x="388" y="80"/>
    </contour>
  </outline>
</glyph>
<glyph name="u1018" format="2">
  <advance width="975"/>
  <unicode hex="1018"/>
  <anchor x="0" y="0" name="_R"/>
  <anchor x="684" y="-53" name="BS"/>
  <anchor x="684" y="-53" name="L"/>
  <anchor x="484" y="-53" name="BD"/>
  <anchor x="684" y="495" name="U"/>
  <outline>
    <contour>
      <point x="921" y="222" type="curve" smooth="yes"/>
      <point x="921" y="90"/>
      <point x="813" y="-18"/>
      <point x="684" y="-18" type="curve" smooth="yes"/>
      <point x="658" y="-18"/>
      <point x="634" y="-13"/>
      <point x="614" y="-4" type="curve"/>
      <point x="641" y="62" type="line"/>
      <point x="654" y="56"/>
      <point x="670" y="54"/>
      <point x="684" y="54" type="curve" smooth="yes"/>
      <point x="775" y="54"/>
      <point x="849" y="130"/>
      <point x="849" y="222" type="curve" smooth="yes"/>
      <point x="849" y="312"/>
      <point x="775" y="390"/>
      <point x="684" y="390" type="curve" smooth="yes"/>
      <point x="597" y="390"/>
      <point x="517" y="287"/>
      <point x="515" y="202" type="curve" smooth="yes"/>
      <point x="515" y="111"/>
      <point x="424" y="-18"/>
      <point x="277" y="-18" type="curve" smooth="yes"/>
      <point x="190" y="-18"/>
      <point x="95" y="27"/>
      <point x="55" y="117" type="curve"/>
      <point x="119" y="151" type="line"/>
      <point x="157" y="81"/>
      <point x="224" y="54"/>
      <point x="277" y="54" type="curve" smooth="yes"/>
      <point x="374" y="54"/>
      <point x="445" y="133"/>
      <point x="445" y="219" type="curve" smooth="yes"/>
      <point x="445" y="311"/>
      <point x="371" y="390"/>
      <point x="277" y="390" type="curve" smooth="yes"/>
      <point x="224" y="390"/>
      <point x="157" y="361"/>
      <point x="119" y="292" type="curve"/>
      <point x="55" y="327" type="line"/>
      <point x="99" y="417"/>
      <point x="191" y="461"/>
      <point x="277" y="461" type="curve" smooth="yes"/>
      <point x="367" y="461"/>
      <point x="446" y="411"/>
      <point x="485" y="336" type="curve"/>
      <point x="526" y="406"/>
      <point x="597" y="461"/>
      <point x="684" y="461" type="curve" smooth="yes"/>
      <point x="813" y="461"/>
      <point x="921" y="352"/>
    </contour>
  </outline>
</glyph>
<glyph name="u101D" format="2">
  <advance width="580"/>
  <unicode hex="101D"/>
  <anchor x="0" y="0" name="_R"/>
  <anchor x="290" y="-53" name="BS"/>
  <anchor x="290" y="-53" name="L"/>
  <anchor x="290" y="495" name="U"/>
  <anchor x="286" y="-53" name="BD"/>
  <outline>
    <contour>
      <point x="525" y="222" type="curve" smooth="yes"/>
      <point x="525" y="90"/>
      <point x="420" y="-18"/>
      <point x="290" y="-18" type="curve" smooth="yes"/>
      <point x="166" y="-18"/>
      <point x="55" y="90"/>
      <point x="55" y="222" type="curve" smooth="yes"/>
      <point x="55" y="352"/>
      <point x="161" y="461"/>
      <point x="289" y="461" type="curve" smooth="yes"/>
      <point x="420" y="461"/>
      <point x="525" y="352"/>
    </contour>
    <contour>
      <point x="453" y="222" type="curve" smooth="yes"/>
      <point x="453" y="313"/>
      <point x="379" y="390"/>
      <point x="290" y="390" type="curve" smooth="yes"/>
      <point x="198" y="390"/>
      <point x="127" y="313"/>
      <point x="127" y="222" type="curve" smooth="yes"/>
      <point x="127" y="130"/>
      <point x="199" y="54"/>
      <point x="289" y="54" type="curve" smooth="yes"/>
      <point x="379" y="54"/>
      <point x="453" y="130"/>
    </contour>
  </outline>
</glyph>
<glyph name="u101F" format="2">
  <advance width="993"/>
  <unicode hex="101F"/>
  <anchor x="0" y="0" name="_R"/>
  <anchor x="701" y="-53" name="BS"/>
  <anchor x="701" y="-53" name="L"/>
  <anchor x="506" y="-53" name="BD"/>
  <anchor x="701" y="495" name="U"/>
  <outline>
    <contour>
      <point x="938" y="222" type="curve" smooth="yes"/>
      <point x="938" y="90"/>
      <point x="830" y="-18"/>
      <point x="701" y="-18" type="curve" smooth="yes"/>
      <point x="677" y="-18"/>
      <point x="651" y="-14"/>
      <point x="631" y="-4" type="curve"/>
      <point x="659" y="62" type="line"/>
      <point x="671" y="56"/>
      <point x="685" y="54"/>
      <point x="701" y="54" type="curve" smooth="yes"/>
      <point x="792" y="54"/>
      <point x="866" y="130"/>
      <point x="866" y="222" type="curve" smooth="yes"/>
      <point x="866" y="313"/>
      <point x="792" y="390"/>
      <point x="701" y="390" type="curve" smooth="yes"/>
      <point x="610" y="390"/>
      <point x="538" y="284"/>
      <point x="534" y="222" type="curve" smooth="yes"/>
      <point x="532" y="107"/>
      <point x="442" y="-18"/>
      <point x="295" y="-18" type="curve" smooth="yes"/>
      <point x="162" y="-18"/>
      <point x="55" y="91"/>
      <point x="55" y="239" type="curve" smooth="yes"/>
      <point x="55" y="343"/>
      <point x="89" y="408"/>
      <point x="150" y="460" type="curve"/>
      <point x="194" y="402" type="line"/>
      <point x="151" y="360"/>
      <point x="127" y="314"/>
      <point x="127" y="239" type="curve" smooth="yes"/>
      <point x="127" y="135"/>
      <point x="203" y="54"/>
      <point x="295" y="54" type="curve" smooth="yes"/>
      <point x="386" y="54"/>
      <point x="462" y="135"/>
      <point x="462" y="239" type="curve" smooth="yes"/>
      <point x="462" y="314"/>
      <point x="438" y="359"/>
      <point x="395" y="402" type="curve"/>
      <point x="439" y="460" type="line"/>
      <point x="473" y="431"/>
      <point x="500" y="400"/>
      <point x="515" y="353" type="curve"/>
      <point x="558" y="415"/>
      <point x="625" y="461"/>
      <point x="701" y="461" type="curve" smooth="yes"/>
      <point x="830" y="461"/>
      <point x="938" y="352"/>
    </contour>
  </outline>
</glyph>
<glyph name="u1021" format="2">
  <advance width="936"/>
  <unicode hex="1021"/>
  <anchor x="0" y="0" name="_R"/>
  <anchor x="642" y="-53" name="BS"/>
  <anchor x="642" y="-53" name="L"/>
  <anchor x="459" y="-53" name="BD"/>
  <anchor x="642" y="495" name="U"/>
  <outline>
    <contour>
      <point x="881" y="222" type="curve" smooth="yes"/>
      <point x="881" y="83"/>
      <point x="767" y="-18"/>
      <point x="639" y="-18" type="curve" smooth="yes"/>
      <point x="604" y="-18"/>
      <point x="569" y="-11"/>
      <point x="539" y="6" type="curve"/>
      <point x="553" y="93"/>
      <point x="582" y="168"/>
      <point x="662" y="219" type="curve" smooth="yes"/>
      <point x="699" y="244"/>
      <point x="755" y="258"/>
      <point x="797" y="258" type="curve"/>
      <point x="790" y="329"/>
      <point x="721" y="390"/>
      <point x="642" y="390" type="curve" smooth="yes"/>
      <point x="583" y="390"/>
      <point x="522" y="360"/>
      <point x="483" y="307" type="curve"/>
      <point x="478" y="267"/>
      <point x="455" y="234"/>
      <point x="416" y="221" type="curve"/>
      <point x="459" y="205"/>
      <point x="484" y="167"/>
      <point x="484" y="126" type="curve" smooth="yes"/>
      <point x="484" y="87"/>
      <point x="467" y="53"/>
      <point x="433" y="24" type="curve" smooth="yes"/>
      <point x="399" y="-4"/>
      <point x="345" y="-18"/>
      <point x="270" y="-18" type="curve" smooth="yes"/>
      <point x="127" y="-18"/>
      <point x="55" y="38"/>
      <point x="55" y="117" type="curve"/>
      <point x="123" y="143" type="line"/>
      <point x="126" y="82"/>
      <point x="182" y="55"/>
      <point x="270" y="54" type="curve" smooth="yes"/>
      <point x="344" y="54"/>
      <point x="413" y="72"/>
      <point x="413" y="127" type="curve" smooth="yes"/>
      <point x="413" y="172"/>
      <point x="338" y="188"/>
      <point x="280" y="190" type="curve"/>
      <point x="280" y="254" type="line"/>
      <point x="337" y="257"/>
      <point x="413" y="269"/>
      <point x="413" y="317" type="curve" smooth="yes"/>
      <point x="413" y="370"/>
      <point x="344" y="390"/>
      <point x="270" y="390" type="curve" smooth="yes"/>
      <point x="180" y="390"/>
      <point x="126" y="361"/>
      <point x="123" y="301" type="curve"/>
      <point x="55" y="326" type="line"/>
      <point x="55" y="404"/>
      <point x="129" y="461"/>
      <point x="270" y="461" type="curve" smooth="yes"/>
      <point x="369" y="461"/>
      <point x="429" y="433"/>
      <point x="459" y="391" type="curve"/>
      <point x="506" y="436"/>
      <point x="566" y="461"/>
      <point x="642" y="461" type="curve" smooth="yes"/>
      <point x="773" y="461"/>
      <point x="881" y="354"/>
    </contour>
    <contour>
      <point x="806" y="196" type="curve"/>
      <point x="802" y="196"/>
      <point x="797" y="196"/>
      <point x="793" y="196" type="curve" smooth="yes"/>
      <point x="758" y="196"/>
      <point x="728" y="186"/>
      <point x="701" y="171" type="curve" smooth="yes"/>
      <point x="655" y="145"/>
      <point x="632" y="108"/>
      <point x="618" y="57" type="curve"/>
      <point x="627" y="56"/>
      <point x="636" y="55"/>
      <point x="645" y="55" type="curve" smooth="yes"/>
      <point x="681" y="55"/>
      <point x="714" y="66"/>
      <point x="744" y="89" type="curve" smooth="yes"/>
      <point x="776" y="113"/>
      <point x="798" y="149"/>
    </contour>
  </outline>
</glyph>
<glyph name="u1023" format="2">
  <advance width="996"/>
  <unicode hex="1023"/>
  <anchor x="7" y="-53" name="LL"/>
  <anchor x="989" y="-53" name="L"/>
  <anchor x="701" y="495" name="U"/>
  <anchor x="993" y="-53" name="BS"/>
  <anchor x="993" y="-53" name="BD"/>
  <outline>
    <contour>
      <point x="941" y="204" type="curve" smooth="yes"/>
      <point x="941" y="98"/>
      <point x="907" y="33"/>
      <point x="846" y="-18" type="curve"/>
      <point x="804" y="42" type="line"/>
      <point x="847" y="85"/>
      <point x="869" y="128"/>
      <point x="869" y="204" type="curve" smooth="yes"/>
      <point x="869" y="307"/>
      <point x="797" y="388"/>
      <point x="701" y="388" type="curve" smooth="yes"/>
      <point x="607" y="388"/>
      <point x="534" y="309"/>
      <point x="534" y="204" type="curve" smooth="yes"/>
      <point x="534" y="93" type="line"/>
      <point x="462" y="93" type="line"/>
      <point x="462" y="204" type="line" smooth="yes"/>
      <point x="462" y="309"/>
      <point x="389" y="388"/>
      <point x="295" y="388" type="curve" smooth="yes"/>
      <point x="199" y="388"/>
      <point x="127" y="307"/>
      <point x="127" y="204" type="curve" smooth="yes"/>
      <point x="127" y="128"/>
      <point x="150" y="85"/>
      <point x="192" y="42" type="curve"/>
      <point x="150" y="-18" type="line"/>
      <point x="89" y="33"/>
      <point x="55" y="98"/>
      <point x="55" y="204" type="curve" smooth="yes"/>
      <point x="55" y="351"/>
      <point x="161" y="460"/>
      <point x="295" y="460" type="curve" smooth="yes"/>
      <point x="381" y="460"/>
      <point x="456" y="414"/>
      <point x="498" y="339" type="curve"/>
      <point x="540" y="414"/>
      <point x="614" y="460"/>
      <point x="701" y="460" type="curve" smooth="yes"/>
      <point x="835" y="460"/>
      <point x="941" y="351"/>
    </contour>
    <contour>
      <point x="881" y="-457" type="line"/>
      <point x="735" y="-457" type="line"/>
      <point x="735" y="-411" type="line"/>
      <point x="760" y="-384"/>
      <point x="784" y="-350"/>
      <point x="784" y="-287" type="curve" smooth="yes"/>
      <point x="784" y="-204"/>
      <point x="730" y="-144"/>
      <point x="655" y="-144" type="curve" smooth="yes"/>
      <point x="581" y="-144"/>
      <point x="526" y="-203"/>
      <point x="526" y="-287" type="curve" smooth="yes"/>
      <point x="526" y="-373" type="line"/>
      <point x="471" y="-373" type="line"/>
      <point x="471" y="-287" type="line" smooth="yes"/>
      <point x="471" y="-203"/>
      <point x="413" y="-144"/>
      <point x="341" y="-144" type="curve" smooth="yes"/>
      <point x="268" y="-144"/>
      <point x="212" y="-204"/>
      <point x="212" y="-287" type="curve" smooth="yes"/>
      <point x="212" y="-345"/>
      <point x="226" y="-379"/>
      <point x="262" y="-412" type="curve"/>
      <point x="231" y="-458" type="line"/>
      <point x="182" y="-419"/>
      <point x="157" y="-369"/>
      <point x="157" y="-287" type="curve" smooth="yes"/>
      <point x="157" y="-174"/>
      <point x="239" y="-89"/>
      <point x="341" y="-89" type="curve" smooth="yes"/>
      <point x="409" y="-89"/>
      <point x="465" y="-125"/>
      <point x="498" y="-183" type="curve"/>
      <point x="530" y="-125"/>
      <point x="587" y="-89"/>
      <point x="655" y="-89" type="curve" smooth="yes"/>
      <point x="758" y="-89"/>
      <point x="839" y="-174"/>
      <point x="839" y="-287" type="curve" smooth="yes"/>
      <point x="839" y="-345"/>
      <point x="827" y="-376"/>
      <point x="807" y="-407" type="curve"/>
      <point x="881" y="-407" type="line"/>
    </contour>
  </outline>
</glyph>
<glyph name="u1024" format="2">
  <advance width="1191"/>
  <unicode hex="1024"/>
  <outline>
    <contour>
      <point x="938" y="-277" type="line" smooth="yes"/>
      <point x="938" y="-331"/>
      <point x="910" y="-374"/>
      <point x="886" y="-400" type="curve" smooth="yes"/>
      <point x="867" y="-419"/>
      <point x="827" y="-457"/>
      <point x="758" y="-457" type="curve" smooth="yes"/>
      <point x="173" y="-457" type="line" smooth="yes"/>
      <point x="89" y="-457"/>
      <point x="55" y="-386"/>
      <point x="55" y="-341" type="curve" smooth="yes"/>
      <point x="55" y="-229"/>
      <point x="164" y="-184"/>
      <point x="335" y="-184" type="curve" smooth="yes"/>
      <point x="481" y="-184"/>
      <point x="602" y="-220"/>
      <point x="647" y="-258" type="curve"/>
      <point x="604" y="-311" type="line"/>
      <point x="551" y="-284"/>
      <point x="475" y="-256"/>
      <point x="335" y="-256" type="curve" smooth="yes"/>
      <point x="205" y="-256"/>
      <point x="127" y="-280"/>
      <point x="127" y="-341" type="curve" smooth="yes"/>
      <point x="127" y="-356"/>
      <point x="139" y="-385"/>
      <point x="179" y="-385" type="curve" smooth="yes"/>
      <point x="729" y="-385" type="line" smooth="yes"/>
      <point x="788" y="-385"/>
      <point x="801" y="-380"/>
      <point x="832" y="-353" type="curve" smooth="yes"/>
      <point x="855" y="-332"/>
      <point x="866" y="-299"/>
      <point x="866" y="-267" type="curve" smooth="yes"/>
      <point x="866" y="222" type="line" smooth="yes"/>
      <point x="866" y="303"/>
      <point x="801" y="390"/>
      <point x="702" y="390" type="curve" smooth="yes"/>
      <point x="612" y="390"/>
      <point x="534" y="285"/>
      <point x="534" y="197" type="curve" smooth="yes"/>
      <point x="534" y="94"/>
      <point x="500" y="31"/>
      <point x="439" y="-18" type="curve"/>
      <point x="397" y="42" type="line"/>
      <point x="439" y="85"/>
      <point x="462" y="128"/>
      <point x="462" y="204" type="curve" smooth="yes"/>
      <point x="462" y="307"/>
      <point x="391" y="388"/>
      <point x="295" y="388" type="curve" smooth="yes"/>
      <point x="199" y="388"/>
      <point x="127" y="307"/>
      <point x="127" y="204" type="curve" smooth="yes"/>
      <point x="127" y="128"/>
      <point x="150" y="85"/>
      <point x="192" y="42" type="curve"/>
      <point x="150" y="-18" type="line"/>
      <point x="89" y="33"/>
      <point x="55" y="98"/>
      <point x="55" y="204" type="curve" smooth="yes"/>
      <point x="55" y="351"/>
      <point x="161" y="460"/>
      <point x="295" y="460" type="curve" smooth="yes"/>
      <point x="385" y="460"/>
      <point x="463" y="412"/>
      <point x="502" y="331" type="curve"/>
      <point x="542" y="405"/>
      <point x="615" y="461"/>
      <point x="702" y="461" type="curve" smooth="yes"/>
      <point x="830" y="461"/>
      <point x="938" y="352"/>
      <point x="938" y="222" type="curve" smooth="yes"/>
    </contour>
    <contour>
      <point x="1126" y="-457" type="line"/>
      <point x="1054" y="-457" type="line"/>
      <point x="1054" y="386" type="line" smooth="yes"/>
      <point x="1054" y="562"/>
      <point x="807" y="553"/>
      <point x="807" y="731" type="curve" smooth="yes"/>
      <point x="807" y="832"/>
      <point x="888" y="911"/>
      <point x="990" y="911" type="curve" smooth="yes"/>
      <point x="1069" y="911"/>
      <point x="1120" y="863"/>
      <point x="1135" y="816" type="curve"/>
      <point x="1073" y="782" type="line"/>
      <point x="1061" y="817"/>
      <point x="1026" y="839"/>
      <point x="990" y="839" type="curve" smooth="yes"/>
      <point x="925" y="839"/>
      <point x="879" y="790"/>
      <point x="879" y="731" type="curve" smooth="yes"/>
      <point x="879" y="607"/>
      <point x="1126" y="602"/>
      <point x="1126" y="387" type="curve" smooth="yes"/>
    </contour>
  </outline>
</glyph>
<glyph name="u1026" format="2">
  <advance width="571"/>
  <unicode hex="1026"/>
  <anchor x="277" y="0" name="BS"/>
  <anchor x="277" y="-53" name="L"/>
  <anchor x="277" y="495" name="U"/>
  <anchor x="276" y="0" name="BD"/>
  <outline>
    <contour>
      <point x="457" y="725" type="curve" smooth="yes"/>
      <point x="457" y="622"/>
      <point x="377" y="540"/>
      <point x="277" y="540" type="curve" smooth="yes"/>
      <point x="178" y="540"/>
      <point x="97" y="622"/>
      <point x="97" y="725" type="curve" smooth="yes"/>
      <point x="97" y="826"/>
      <point x="178" y="910"/>
      <point x="276" y="910" type="curve" smooth="yes"/>
      <point x="377" y="910"/>
      <point x="457" y="826"/>
    </contour>
    <contour>
      <point x="403" y="728" type="curve" smooth="yes"/>
      <point x="401" y="796"/>
      <point x="346" y="855"/>
      <point x="277" y="855" type="curve" smooth="yes"/>
      <point x="210" y="855"/>
      <point x="153" y="796"/>
      <point x="152" y="727" type="curve" smooth="yes"/>
      <point x="152" y="717"/>
      <point x="154" y="704"/>
      <point x="158" y="691" type="curve"/>
      <point x="197" y="726"/>
      <point x="238" y="737"/>
      <point x="277" y="737" type="curve" smooth="yes"/>
      <point x="315" y="737"/>
      <point x="360" y="726"/>
      <point x="397" y="692" type="curve"/>
      <point x="401" y="703"/>
      <point x="403" y="715"/>
    </contour>
    <contour>
      <point x="378" y="647" type="curve"/>
      <point x="347" y="680"/>
      <point x="302" y="691"/>
      <point x="277" y="691" type="curve" smooth="yes"/>
      <point x="252" y="691"/>
      <point x="212" y="680"/>
      <point x="177" y="647" type="curve"/>
      <point x="199" y="618"/>
      <point x="237" y="595"/>
      <point x="276" y="595" type="curve" smooth="yes"/>
      <point x="318" y="595"/>
      <point x="355" y="614"/>
    </contour>
    <contour>
      <point x="504" y="-292" type="line"/>
      <point x="504" y="-348" type="line" smooth="yes"/>
      <point x="504" y="-380"/>
      <point x="500" y="-413"/>
      <point x="480" y="-432" type="curve" smooth="yes"/>
      <point x="461" y="-452"/>
      <point x="436" y="-457"/>
      <point x="392" y="-457" type="curve" smooth="yes"/>
      <point x="235" y="-457" type="line" smooth="yes"/>
      <point x="165" y="-457"/>
      <point x="123" y="-418"/>
      <point x="107" y="-402" type="curve" smooth="yes"/>
      <point x="84" y="-379"/>
      <point x="55" y="-332"/>
      <point x="55" y="-277" type="curve" smooth="yes"/>
      <point x="55" y="117" type="line"/>
      <point x="119" y="151" type="line"/>
      <point x="153" y="87"/>
      <point x="215" y="54"/>
      <point x="277" y="54" type="curve" smooth="yes"/>
      <point x="369" y="54"/>
      <point x="445" y="130"/>
      <point x="445" y="222" type="curve" smooth="yes"/>
      <point x="445" y="313"/>
      <point x="369" y="390"/>
      <point x="277" y="390" type="curve" smooth="yes"/>
      <point x="215" y="390"/>
      <point x="153" y="355"/>
      <point x="119" y="292" type="curve"/>
      <point x="55" y="327" type="line"/>
      <point x="97" y="419"/>
      <point x="193" y="461"/>
      <point x="277" y="461" type="curve" smooth="yes"/>
      <point x="408" y="461"/>
      <point x="516" y="352"/>
      <point x="516" y="222" type="curve" smooth="yes"/>
      <point x="516" y="90"/>
      <point x="408" y="-18"/>
      <point x="277" y="-18" type="curve" smooth="yes"/>
      <point x="226" y="-18"/>
      <point x="171" y="-1"/>
      <point x="127" y="34" type="curve"/>
      <point x="127" y="-267" type="line" smooth="yes"/>
      <point x="127" y="-298"/>
      <point x="137" y="-332"/>
      <point x="161" y="-352" type="curve" smooth="yes"/>
      <point x="184" y="-372"/>
      <point x="213" y="-385"/>
      <point x="248" y="-385" type="curve" smooth="yes"/>
      <point x="384" y="-385" type="line" smooth="yes"/>
      <point x="424" y="-385"/>
      <point x="432" y="-377"/>
      <point x="432" y="-340" type="curve" smooth="yes"/>
      <point x="432" y="-292" type="line"/>
    </contour>
  </outline>
</glyph>
<glyph name="u1027" format="2">
  <advance width="587"/>
  <unicode hex="1027"/>
  <anchor x="299" y="-53" name="BS"/>
  <anchor x="299" y="-53" name="L"/>
  <anchor x="299" y="495" name="U"/>
  <anchor x="292" y="-53" name="BD"/>
  <outline>
    <contour>
      <point x="531" y="141" type="curve"/>
      <point x="507" y="71"/>
      <point x="435" y="-18"/>
      <point x="299" y="-18" type="curve" smooth="yes"/>
      <point x="152" y="-18"/>
      <point x="55" y="98"/>
      <point x="55" y="222" type="curve" smooth="yes"/>
      <point x="55" y="344"/>
      <point x="152" y="461"/>
      <point x="299" y="461" type="curve" smooth="yes"/>
      <point x="417" y="461"/>
      <point x="503" y="388"/>
      <point x="530" y="303" type="curve"/>
      <point x="479" y="263"/>
      <point x="418" y="246"/>
      <point x="363" y="246" type="curve" smooth="yes"/>
      <point x="279" y="246"/>
      <point x="219" y="284"/>
      <point x="175" y="339" type="curve"/>
      <point x="143" y="309"/>
      <point x="127" y="262"/>
      <point x="127" y="222" type="curve" smooth="yes"/>
      <point x="127" y="180"/>
      <point x="144" y="135"/>
      <point x="175" y="104" type="curve"/>
      <point x="219" y="160"/>
      <point x="282" y="197"/>
      <point x="365" y="197" type="curve" smooth="yes"/>
      <point x="428" y="197"/>
      <point x="489" y="172"/>
    </contour>
    <contour>
      <point x="443" y="320" type="curve"/>
      <point x="409" y="369"/>
      <point x="348" y="392"/>
      <point x="299" y="392" type="curve" smooth="yes"/>
      <point x="271" y="392"/>
      <point x="248" y="385"/>
      <point x="224" y="375" type="curve"/>
      <point x="265" y="325"/>
      <point x="302" y="301"/>
      <point x="364" y="301" type="curve" smooth="yes"/>
      <point x="393" y="301"/>
      <point x="421" y="308"/>
    </contour>
    <contour>
      <point x="443" y="122" type="curve"/>
      <point x="414" y="135"/>
      <point x="392" y="142"/>
      <point x="365" y="142" type="curve" smooth="yes"/>
      <point x="294" y="142"/>
      <point x="258" y="112"/>
      <point x="225" y="67" type="curve"/>
      <point x="250" y="57"/>
      <point x="275" y="52"/>
      <point x="299" y="52" type="curve" smooth="yes"/>
      <point x="351" y="52"/>
      <point x="409" y="74"/>
    </contour>
  </outline>
</glyph>
<glyph name="u1028" format="2">
  <advance width="581"/>
  <unicode hex="1028"/>
  <anchor x="293" y="-53" name="BS"/>
  <anchor x="293" y="-53" name="L"/>
  <anchor x="293" y="545" name="U"/>
  <anchor x="292" y="-53" name="BD"/>
  <outline>
    <contour>
      <point x="525" y="-219" type="line"/>
      <point x="525" y="-338"/>
      <point x="432" y="-457"/>
      <point x="293" y="-457" type="curve" smooth="yes"/>
      <point x="141" y="-457"/>
      <point x="55" y="-333"/>
      <point x="55" y="-219" type="curve" smooth="yes"/>
      <point x="55" y="224" type="line" smooth="yes"/>
      <point x="55" y="340"/>
      <point x="141" y="461"/>
      <point x="293" y="461" type="curve" smooth="yes"/>
      <point x="436" y="461"/>
      <point x="525" y="334"/>
      <point x="525" y="223" type="curve" smooth="yes"/>
      <point x="525" y="106"/>
      <point x="473" y="-18"/>
      <point x="337" y="-18" type="curve" smooth="yes"/>
      <point x="281" y="-18"/>
      <point x="224" y="12"/>
      <point x="224" y="77" type="curve" smooth="yes"/>
      <point x="224" y="154"/>
      <point x="333" y="144"/>
      <point x="333" y="176" type="curve" smooth="yes"/>
      <point x="333" y="206"/>
      <point x="311" y="221"/>
      <point x="288" y="221" type="curve" smooth="yes"/>
      <point x="267" y="221"/>
      <point x="248" y="202"/>
      <point x="247" y="191" type="curve"/>
      <point x="196" y="222" type="line"/>
      <point x="203" y="248"/>
      <point x="242" y="282"/>
      <point x="288" y="282" type="curve" smooth="yes"/>
      <point x="345" y="282"/>
      <point x="393" y="239"/>
      <point x="393" y="176" type="curve" smooth="yes"/>
      <point x="393" y="100"/>
      <point x="287" y="105"/>
      <point x="287" y="80" type="curve" smooth="yes"/>
      <point x="287" y="51"/>
      <point x="318" y="48"/>
      <point x="337" y="48" type="curve" smooth="yes"/>
      <point x="402" y="48"/>
      <point x="459" y="97"/>
      <point x="459" y="222" type="curve" smooth="yes"/>
      <point x="459" y="327"/>
      <point x="367" y="390"/>
      <point x="293" y="390" type="curve" smooth="yes"/>
      <point x="201" y="390"/>
      <point x="127" y="320"/>
      <point x="127" y="222" type="curve" smooth="yes"/>
      <point x="127" y="-218" type="line" smooth="yes"/>
      <point x="127" y="-313"/>
      <point x="201" y="-385"/>
      <point x="293" y="-385" type="curve" smooth="yes"/>
      <point x="386" y="-385"/>
      <point x="453" y="-303"/>
      <point x="453" y="-219" type="curve"/>
    </contour>
  </outline>
</glyph>
<glyph name="u102B" format="2">
  <advance width="196"/>
  <unicode hex="102B"/>
  <anchor x="-270" y="0" name="KL"/>
  <anchor x="104" y="-53" name="BS"/>
  <anchor x="104" y="-53" name="L"/>
  <anchor x="96" y="-53" name="BD"/>
  <outline>
    <contour>
      <point x="140" y="0" type="line"/>
      <point x="69" y="0" type="line"/>
      <point x="69" y="716" type="line" smooth="yes"/>
      <point x="69" y="803"/>
      <point x="31" y="831"/>
      <point x="-30" y="832" type="curve" smooth="yes"/>
      <point x="-88" y="832"/>
      <point x="-129" y="803"/>
      <point x="-129" y="718" type="curve"/>
      <point x="-200" y="718" type="line"/>
      <point x="-200" y="817"/>
      <point x="-148" y="904"/>
      <point x="-29" y="904" type="curve" smooth="yes"/>
      <point x="68" y="904"/>
      <point x="140" y="844"/>
      <point x="140" y="716" type="curve" smooth="yes"/>
    </contour>
  </outline>
</glyph>
<glyph name="u102D" format="2">
  <advance width="0"/>
  <unicode hex="102D"/>
  <anchor x="-83" y="495" name="_Y"/>
  <anchor x="-235" y="495" name="_U"/>
  <anchor x="-234" y="495" name="UM"/>
  <outline>
    <contour>
      <point x="-55" y="725" type="curve" smooth="yes"/>
      <point x="-55" y="622"/>
      <point x="-136" y="540"/>
      <point x="-235" y="540" type="curve" smooth="yes"/>
      <point x="-335" y="540"/>
      <point x="-416" y="622"/>
      <point x="-416" y="725" type="curve" smooth="yes"/>
      <point x="-416" y="826"/>
      <point x="-335" y="910"/>
      <point x="-236" y="910" type="curve" smooth="yes"/>
      <point x="-136" y="910"/>
      <point x="-55" y="826"/>
    </contour>
    <contour>
      <point x="-110" y="725" type="curve" smooth="yes"/>
      <point x="-110" y="794"/>
      <point x="-166" y="855"/>
      <point x="-235" y="855" type="curve" smooth="yes"/>
      <point x="-304" y="855"/>
      <point x="-361" y="794"/>
      <point x="-361" y="725" type="curve" smooth="yes"/>
      <point x="-361" y="655"/>
      <point x="-304" y="595"/>
      <point x="-236" y="595" type="curve" smooth="yes"/>
      <point x="-166" y="595"/>
      <point x="-110" y="655"/>
    </contour>
  </outline>
</glyph>
<glyph name="u102E" format="2">
  <advance width="0"/>
  <unicode hex="102E"/>
  <anchor x="-83" y="495" name="_Y"/>
  <anchor x="-237" y="495" name="_U"/>
  <anchor x="-237" y="495" name="UM"/>
  <outline>
    <contour>
      <point x="-55" y="725" type="curve" smooth="yes"/>
      <point x="-55" y="622"/>
      <point x="-135" y="540"/>
      <point x="-235" y="540" type="curve" smooth="yes"/>
      <point x="-334" y="540"/>
      <point x="-416" y="622"/>
      <point x="-416" y="725" type="curve" smooth="yes"/>
      <point x="-416" y="826"/>
      <point x="-334" y="910"/>
      <point x="-236" y="910" type="curve" smooth="yes"/>
      <point x="-135" y="910"/>
      <point x="-55" y="826"/>
    </contour>
    <contour>
      <point x="-235" y="855" type="curve" smooth="yes"/>
      <point x="-303" y="855"/>
      <point x="-359" y="796"/>
      <point x="-361" y="727" type="curve" smooth="yes"/>
      <point x="-361" y="717"/>
      <point x="-359" y="704"/>
      <point x="-354" y="691" type="curve"/>
      <point x="-315" y="726"/>
      <point x="-274" y="737"/>
      <point x="-235" y="737" type="curve" smooth="yes"/>
      <point x="-197" y="737"/>
      <point x="-153" y="726"/>
      <point x="-116" y="692" type="curve"/>
      <point x="-112" y="703"/>
      <point x="-110" y="715"/>
      <point x="-110" y="728" type="curve" smooth="yes"/>
      <point x="-111" y="796"/>
      <point x="-166" y="855"/>
    </contour>
    <contour>
      <point x="-134" y="647" type="curve"/>
      <point x="-166" y="680"/>
      <point x="-210" y="690"/>
      <point x="-235" y="690" type="curve" smooth="yes"/>
      <point x="-260" y="690"/>
      <point x="-300" y="680"/>
      <point x="-335" y="647" type="curve"/>
      <point x="-313" y="618"/>
      <point x="-275" y="595"/>
      <point x="-236" y="595" type="curve" smooth="yes"/>
      <point x="-194" y="595"/>
      <point x="-157" y="614"/>
    </contour>
  </outline>
</glyph>
<glyph name="u1030" format="2">
  <advance width="326"/>
  <unicode hex="1030"/>
  <anchor x="448" y="-53" name="BS"/>
  <anchor x="235" y="495" name="Y"/>
  <anchor x="448" y="-53" name="L"/>
  <anchor x="235" y="495" name="U"/>
  <anchor x="384" y="-53" name="BD"/>
  <outline>
    <contour>
      <point x="352" y="-457" type="line"/>
      <point x="200" y="-457" type="line"/>
      <point x="200" y="444" type="line"/>
      <point x="272" y="444" type="line"/>
      <point x="272" y="-385" type="line"/>
      <point x="352" y="-385" type="line"/>
    </contour>
    <contour>
      <point x="111" y="-457" type="line"/>
      <point x="40" y="-457" type="line"/>
      <point x="40" y="444" type="line"/>
      <point x="111" y="444" type="line"/>
    </contour>
  </outline>
</glyph>
<glyph name="u1031" format="2">
  <advance width="584"/>
  <unicode hex="1031"/>
  <anchor x="0" y="0" name="_R"/>
  <anchor x="294" y="-53" name="BS"/>
  <anchor x="294" y="-53" name="L"/>
  <anchor x="294" y="495" name="U"/>
  <anchor x="292" y="-53" name="BD"/>
  <outline>
    <contour>
      <point x="528" y="166" type="curve"/>
      <point x="526" y="88"/>
      <point x="433" y="-18"/>
      <point x="294" y="-18" type="curve" smooth="yes"/>
      <point x="158" y="-18"/>
      <point x="55" y="92"/>
      <point x="55" y="222" type="curve" smooth="yes"/>
      <point x="55" y="344"/>
      <point x="156" y="461"/>
      <point x="294" y="461" type="curve" smooth="yes"/>
      <point x="382" y="461"/>
      <point x="478" y="414"/>
      <point x="515" y="327" type="curve"/>
      <point x="453" y="292" type="line"/>
      <point x="418" y="353"/>
      <point x="360" y="390"/>
      <point x="294" y="390" type="curve" smooth="yes"/>
      <point x="190" y="390"/>
      <point x="127" y="297"/>
      <point x="127" y="222" type="curve" smooth="yes"/>
      <point x="127" y="183"/>
      <point x="142" y="149"/>
      <point x="164" y="122" type="curve"/>
      <point x="214" y="188"/>
      <point x="286" y="220"/>
      <point x="360" y="220" type="curve" smooth="yes"/>
      <point x="411" y="220"/>
      <point x="467" y="201"/>
    </contour>
    <contour>
      <point x="446" y="136" type="curve"/>
      <point x="415" y="149"/>
      <point x="387" y="155"/>
      <point x="358" y="155" type="curve" smooth="yes"/>
      <point x="294" y="155"/>
      <point x="246" y="126"/>
      <point x="212" y="75" type="curve"/>
      <point x="237" y="62"/>
      <point x="264" y="54"/>
      <point x="294" y="54" type="curve" smooth="yes"/>
      <point x="351" y="54"/>
      <point x="411" y="79"/>
    </contour>
  </outline>
</glyph>
<glyph name="u1035" format="2">
  <advance width="0"/>
  <unicode hex="1035"/>
  <anchor x="-84" y="495" name="_Y"/>
  <anchor x="-236" y="495" name="_U"/>
  <anchor x="-231" y="495" name="UM"/>
  <outline>
    <contour>
      <point x="-56" y="683" type="curve"/>
      <point x="-56" y="622"/>
      <point x="-132" y="541"/>
      <point x="-236" y="541" type="curve" smooth="yes"/>
      <point x="-341" y="541"/>
      <point x="-419" y="625"/>
      <point x="-419" y="726" type="curve" smooth="yes"/>
      <point x="-419" y="821"/>
      <point x="-343" y="910"/>
      <point x="-236" y="910" type="curve" smooth="yes"/>
      <point x="-169" y="910"/>
      <point x="-95" y="873"/>
      <point x="-66" y="807" type="curve"/>
      <point x="-113" y="780" type="line"/>
      <point x="-142" y="830"/>
      <point x="-186" y="855"/>
      <point x="-236" y="855" type="curve" smooth="yes"/>
      <point x="-310" y="855"/>
      <point x="-364" y="794"/>
      <point x="-364" y="726" type="curve" smooth="yes"/>
      <point x="-364" y="696"/>
      <point x="-354" y="669"/>
      <point x="-334" y="648" type="curve"/>
      <point x="-301" y="694"/>
      <point x="-246" y="725"/>
      <point x="-185" y="725" type="curve" smooth="yes"/>
      <point x="-147" y="725"/>
      <point x="-105" y="712"/>
    </contour>
    <contour>
      <point x="-117" y="662" type="curve"/>
      <point x="-140" y="673"/>
      <point x="-162" y="679"/>
      <point x="-185" y="679" type="curve" smooth="yes"/>
      <point x="-232" y="679"/>
      <point x="-279" y="653"/>
      <point x="-302" y="613" type="curve"/>
      <point x="-281" y="603"/>
      <point x="-259" y="596"/>
      <point x="-236" y="596" type="curve" smooth="yes"/>
      <point x="-194" y="596"/>
      <point x="-143" y="617"/>
    </contour>
  </outline>
</glyph>
<glyph name="u1039" format="2">
  <advance width="55"/>
  <unicode hex="1039"/>
  <anchor x="-180" y="-53" name="_BS"/>
  <anchor x="-511" y="-53" name="LLM"/>
  <anchor x="-180" y="-53" name="_BSM"/>
  <anchor x="150" y="-53" name="LM"/>
  <anchor x="144" y="-53" name="BSM"/>
  <outline>
    <contour>
      <point x="0" y="-271" type="curve" smooth="yes"/>
      <point x="0" y="-283"/>
      <point x="-5" y="-288"/>
      <point x="-17" y="-288" type="curve" smooth="yes"/>
      <point x="-29" y="-288"/>
      <point x="-34" y="-283"/>
      <point x="-34" y="-271" type="curve" smooth="yes"/>
      <point x="-34" y="-260"/>
      <point x="-29" y="-254"/>
      <point x="-17" y="-254" type="curve" smooth="yes"/>
      <point x="-5" y="-254"/>
      <point x="0" y="-260"/>
    </contour>
    <contour>
      <point x="-14" y="-207" type="curve" smooth="yes"/>
      <point x="-14" y="-219"/>
      <point x="-19" y="-224"/>
      <point x="-29" y="-224" type="curve" smooth="yes"/>
      <point x="-41" y="-224"/>
      <point x="-46" y="-219"/>
      <point x="-46" y="-207" type="curve" smooth="yes"/>
      <point x="-46" y="-197"/>
      <point x="-41" y="-191"/>
      <point x="-29" y="-191" type="curve" smooth="yes"/>
      <point x="-19" y="-191"/>
      <point x="-14" y="-197"/>
    </contour>
    <contour>
      <point x="-50" y="-153" type="curve" smooth="yes"/>
      <point x="-50" y="-165"/>
      <point x="-56" y="-170"/>
      <point x="-67" y="-170" type="curve" smooth="yes"/>
      <point x="-79" y="-170"/>
      <point x="-84" y="-165"/>
      <point x="-84" y="-153" type="curve" smooth="yes"/>
      <point x="-84" y="-142"/>
      <point x="-79" y="-136"/>
      <point x="-67" y="-136" type="curve" smooth="yes"/>
      <point x="-56" y="-136"/>
      <point x="-50" y="-142"/>
    </contour>
    <contour>
      <point x="-105" y="-116" type="curve" smooth="yes"/>
      <point x="-105" y="-127"/>
      <point x="-110" y="-133"/>
      <point x="-122" y="-133" type="curve" smooth="yes"/>
      <point x="-133" y="-133"/>
      <point x="-138" y="-127"/>
      <point x="-138" y="-116" type="curve" smooth="yes"/>
      <point x="-138" y="-104"/>
      <point x="-133" y="-99"/>
      <point x="-122" y="-99" type="curve" smooth="yes"/>
      <point x="-110" y="-99"/>
      <point x="-105" y="-104"/>
    </contour>
    <contour>
      <point x="-170" y="-103" type="curve" smooth="yes"/>
      <point x="-170" y="-115"/>
      <point x="-175" y="-120"/>
      <point x="-185" y="-120" type="curve" smooth="yes"/>
      <point x="-197" y="-120"/>
      <point x="-202" y="-115"/>
      <point x="-202" y="-103" type="curve" smooth="yes"/>
      <point x="-202" y="-92"/>
      <point x="-197" y="-86"/>
      <point x="-185" y="-86" type="curve" smooth="yes"/>
      <point x="-175" y="-86"/>
      <point x="-170" y="-92"/>
    </contour>
    <contour>
      <point x="-233" y="-116" type="curve" smooth="yes"/>
      <point x="-233" y="-127"/>
      <point x="-239" y="-133"/>
      <point x="-250" y="-133" type="curve" smooth="yes"/>
      <point x="-262" y="-133"/>
      <point x="-268" y="-127"/>
      <point x="-268" y="-116" type="curve" smooth="yes"/>
      <point x="-268" y="-104"/>
      <point x="-262" y="-99"/>
      <point x="-250" y="-99" type="curve" smooth="yes"/>
      <point x="-239" y="-99"/>
      <point x="-233" y="-104"/>
    </contour>
    <contour>
      <point x="-289" y="-153" type="curve" smooth="yes"/>
      <point x="-289" y="-165"/>
      <point x="-293" y="-170"/>
      <point x="-305" y="-170" type="curve" smooth="yes"/>
      <point x="-317" y="-170"/>
      <point x="-322" y="-165"/>
      <point x="-322" y="-153" type="curve" smooth="yes"/>
      <point x="-322" y="-142"/>
      <point x="-317" y="-136"/>
      <point x="-305" y="-136" type="curve" smooth="yes"/>
      <point x="-293" y="-136"/>
      <point x="-289" y="-142"/>
    </contour>
    <contour>
      <point x="-325" y="-207" type="curve" smooth="yes"/>
      <point x="-325" y="-219"/>
      <point x="-331" y="-224"/>
      <point x="-342" y="-224" type="curve" smooth="yes"/>
      <point x="-353" y="-224"/>
      <point x="-359" y="-219"/>
      <point x="-359" y="-207" type="curve" smooth="yes"/>
      <point x="-359" y="-197"/>
      <point x="-353" y="-191"/>
      <point x="-342" y="-191" type="curve" smooth="yes"/>
      <point x="-331" y="-191"/>
      <point x="-325" y="-197"/>
    </contour>
    <contour>
      <point x="-339" y="-271" type="curve" smooth="yes"/>
      <point x="-339" y="-283"/>
      <point x="-344" y="-288"/>
      <point x="-355" y="-288" type="curve" smooth="yes"/>
      <point x="-366" y="-288"/>
      <point x="-372" y="-283"/>
      <point x="-372" y="-271" type="curve" smooth="yes"/>
      <point x="-372" y="-260"/>
      <point x="-366" y="-254"/>
      <point x="-355" y="-254" type="curve" smooth="yes"/>
      <point x="-344" y="-254"/>
      <point x="-339" y="-260"/>
    </contour>
    <contour>
      <point x="-325" y="-337" type="curve" smooth="yes"/>
      <point x="-325" y="-348"/>
      <point x="-331" y="-353"/>
      <point x="-342" y="-353" type="curve" smooth="yes"/>
      <point x="-353" y="-353"/>
      <point x="-359" y="-348"/>
      <point x="-359" y="-337" type="curve" smooth="yes"/>
      <point x="-359" y="-325"/>
      <point x="-353" y="-320"/>
      <point x="-342" y="-320" type="curve" smooth="yes"/>
      <point x="-331" y="-320"/>
      <point x="-325" y="-325"/>
    </contour>
    <contour>
      <point x="-289" y="-391" type="curve" smooth="yes"/>
      <point x="-289" y="-403"/>
      <point x="-293" y="-409"/>
      <point x="-305" y="-409" type="curve" smooth="yes"/>
      <point x="-317" y="-409"/>
      <point x="-322" y="-403"/>
      <point x="-322" y="-391" type="curve" smooth="yes"/>
      <point x="-322" y="-380"/>
      <point x="-317" y="-374"/>
      <point x="-305" y="-374" type="curve" smooth="yes"/>
      <point x="-293" y="-374"/>
      <point x="-289" y="-380"/>
    </contour>
    <contour>
      <point x="-233" y="-428" type="curve" smooth="yes"/>
      <point x="-233" y="-439"/>
      <point x="-239" y="-443"/>
      <point x="-250" y="-443" type="curve" smooth="yes"/>
      <point x="-262" y="-443"/>
      <point x="-268" y="-439"/>
      <point x="-268" y="-428" type="curve" smooth="yes"/>
      <point x="-268" y="-416"/>
      <point x="-262" y="-411"/>
      <point x="-250" y="-411" type="curve" smooth="yes"/>
      <point x="-239" y="-411"/>
      <point x="-233" y="-416"/>
    </contour>
    <contour>
      <point x="-170" y="-441" type="curve" smooth="yes"/>
      <point x="-170" y="-451"/>
      <point x="-175" y="-456"/>
      <point x="-185" y="-456" type="curve" smooth="yes"/>
      <point x="-197" y="-456"/>
      <point x="-202" y="-451"/>
      <point x="-202" y="-441" type="curve" smooth="yes"/>
      <point x="-202" y="-430"/>
      <point x="-197" y="-424"/>
      <point x="-185" y="-424" type="curve" smooth="yes"/>
      <point x="-175" y="-424"/>
      <point x="-170" y="-430"/>
    </contour>
    <contour>
      <point x="-105" y="-428" type="curve" smooth="yes"/>
      <point x="-105" y="-439"/>
      <point x="-110" y="-443"/>
      <point x="-122" y="-443" type="curve" smooth="yes"/>
      <point x="-133" y="-443"/>
      <point x="-138" y="-439"/>
      <point x="-138" y="-428" type="curve" smooth="yes"/>
      <point x="-138" y="-416"/>
      <point x="-133" y="-411"/>
      <point x="-122" y="-411" type="curve" smooth="yes"/>
      <point x="-110" y="-411"/>
      <point x="-105" y="-416"/>
    </contour>
    <contour>
      <point x="-50" y="-391" type="curve" smooth="yes"/>
      <point x="-50" y="-403"/>
      <point x="-56" y="-409"/>
      <point x="-67" y="-409" type="curve" smooth="yes"/>
      <point x="-79" y="-409"/>
      <point x="-84" y="-403"/>
      <point x="-84" y="-391" type="curve" smooth="yes"/>
      <point x="-84" y="-380"/>
      <point x="-79" y="-374"/>
      <point x="-67" y="-374" type="curve" smooth="yes"/>
      <point x="-56" y="-374"/>
      <point x="-50" y="-380"/>
    </contour>
    <contour>
      <point x="-14" y="-337" type="curve" smooth="yes"/>
      <point x="-14" y="-348"/>
      <point x="-19" y="-353"/>
      <point x="-29" y="-353" type="curve" smooth="yes"/>
      <point x="-41" y="-353"/>
      <point x="-46" y="-348"/>
      <point x="-46" y="-337" type="curve" smooth="yes"/>
      <point x="-46" y="-325"/>
      <point x="-41" y="-320"/>
      <point x="-29" y="-320" type="curve" smooth="yes"/>
      <point x="-19" y="-320"/>
      <point x="-14" y="-325"/>
    </contour>
  </outline>
</glyph>
<glyph name="u103B" format="2">
  <advance width="183"/>
  <unicode hex="103B"/>
  <anchor x="277" y="-53" name="BS"/>
  <anchor x="-363" y="-53" name="LL"/>
  <anchor x="277" y="-53" name="L"/>
  <anchor x="91" y="495" name="Y"/>
  <anchor x="-255" y="-53" name="dot"/>
  <anchor x="-31" y="495" name="U"/>
  <anchor x="250" y="-53" name="BD"/>
  <outline>
    <contour>
      <point x="127" y="-457" type="line"/>
      <point x="-213" y="-370" type="line"/>
      <point x="-213" y="56" type="line"/>
      <point x="-141" y="56" type="line"/>
      <point x="-141" y="-313" type="line"/>
      <point x="55" y="-364" type="line"/>
      <point x="55" y="444" type="line"/>
      <point x="127" y="444" type="line"/>
    </contour>
  </outline>
</glyph>
<glyph name="u103C" format="2">
  <advance width="192"/>
  <unicode hex="103C"/>
  <anchor x="192" y="0" name="R"/>
  <anchor x="868" y="-53" name="BS"/>
  <anchor x="500" y="-53" name="LL"/>
  <anchor x="868" y="-53" name="L"/>
  <anchor x="841" y="-53" name="BD"/>
  <outline>
    <contour>
      <point x="728" y="-92" type="line"/>
      <point x="728" y="-190" type="line" smooth="yes"/>
      <point x="728" y="-244"/>
      <point x="719" y="-328"/>
      <point x="662" y="-387" type="curve" smooth="yes"/>
      <point x="604" y="-448"/>
      <point x="534" y="-457"/>
      <point x="462" y="-457" type="curve" smooth="yes"/>
      <point x="337" y="-457" type="line" smooth="yes"/>
      <point x="265" y="-457"/>
      <point x="195" y="-448"/>
      <point x="136" y="-387" type="curve" smooth="yes"/>
      <point x="80" y="-329"/>
      <point x="70" y="-248"/>
      <point x="70" y="-190" type="curve" smooth="yes"/>
      <point x="70" y="696" type="line" smooth="yes"/>
      <point x="70" y="750"/>
      <point x="80" y="836"/>
      <point x="137" y="893" type="curve" smooth="yes"/>
      <point x="196" y="952"/>
      <point x="266" y="963"/>
      <point x="337" y="963" type="curve" smooth="yes"/>
      <point x="462" y="963" type="line" smooth="yes"/>
      <point x="533" y="963"/>
      <point x="603" y="951"/>
      <point x="661" y="891" type="curve" smooth="yes"/>
      <point x="705" y="846"/>
      <point x="728" y="774"/>
      <point x="728" y="736" type="curve"/>
      <point x="657" y="736" type="line"/>
      <point x="657" y="758"/>
      <point x="637" y="813"/>
      <point x="607" y="843" type="curve" smooth="yes"/>
      <point x="562" y="890"/>
      <point x="493" y="891"/>
      <point x="442" y="891" type="curve" smooth="yes"/>
      <point x="356" y="891" type="line" smooth="yes"/>
      <point x="305" y="891"/>
      <point x="237" y="889"/>
      <point x="191" y="844" type="curve" smooth="yes"/>
      <point x="144" y="798"/>
      <point x="141" y="724"/>
      <point x="141" y="677" type="curve" smooth="yes"/>
      <point x="141" y="-173" type="line" smooth="yes"/>
      <point x="141" y="-220"/>
      <point x="145" y="-293"/>
      <point x="191" y="-338" type="curve" smooth="yes"/>
      <point x="233" y="-381"/>
      <point x="299" y="-385"/>
      <point x="357" y="-385" type="curve" smooth="yes"/>
      <point x="441" y="-385" type="line" smooth="yes"/>
      <point x="501" y="-385"/>
      <point x="566" y="-379"/>
      <point x="608" y="-338" type="curve" smooth="yes"/>
      <point x="651" y="-295"/>
      <point x="657" y="-225"/>
      <point x="657" y="-173" type="curve" smooth="yes"/>
      <point x="657" y="-92" type="line"/>
    </contour>
  </outline>
</glyph>
<glyph name="u103E" format="2">
  <advance width="0"/>
  <unicode hex="103E"/>
  <anchor x="-89" y="-53" name="_BS"/>
  <anchor x="-275" y="-53" name="LLM"/>
  <anchor x="-89" y="-53" name="_BSM"/>
  <anchor x="97" y="-53" name="LM"/>
  <anchor x="144" y="-53" name="BSM"/>
  <outline>
    <contour>
      <point x="-55" y="-457" type="line"/>
      <point x="-208" y="-457" type="line"/>
      <point x="-208" y="-390" type="line"/>
      <point x="-123" y="-390" type="line"/>
      <point x="-123" y="-98" type="line"/>
      <point x="-55" y="-98" type="line"/>
    </contour>
  </outline>
</glyph>
<glyph name="u103F" format="2">
  <advance width="1384"/>
  <unicode hex="103F"/>
  <anchor x="0" y="0" name="_R"/>
  <anchor x="1092" y="-53" name="BS"/>
  <anchor x="1092" y="-53" name="L"/>
  <anchor x="686" y="-53" name="BD"/>
  <anchor x="1092" y="495" name="U"/>
  <outline>
    <contour>
      <point x="1329" y="222" type="curve" smooth="yes"/>
      <point x="1329" y="90"/>
      <point x="1223" y="-18"/>
      <point x="1092" y="-18" type="curve" smooth="yes"/>
      <point x="1006" y="-18"/>
      <point x="935" y="36"/>
      <point x="892" y="109" type="curve"/>
      <point x="853" y="34"/>
      <point x="776" y="-18"/>
      <point x="686" y="-18" type="curve" smooth="yes"/>
      <point x="601" y="-18"/>
      <point x="527" y="38"/>
      <point x="485" y="109" type="curve"/>
      <point x="446" y="34"/>
      <point x="368" y="-18"/>
      <point x="277" y="-18" type="curve" smooth="yes"/>
      <point x="191" y="-18"/>
      <point x="99" y="25"/>
      <point x="55" y="117" type="curve"/>
      <point x="119" y="151" type="line"/>
      <point x="155" y="85"/>
      <point x="216" y="54"/>
      <point x="277" y="54" type="curve" smooth="yes"/>
      <point x="372" y="54"/>
      <point x="445" y="131"/>
      <point x="445" y="225" type="curve" smooth="yes"/>
      <point x="445" y="314"/>
      <point x="368" y="390"/>
      <point x="277" y="390" type="curve" smooth="yes"/>
      <point x="216" y="390"/>
      <point x="153" y="356"/>
      <point x="119" y="292" type="curve"/>
      <point x="55" y="327" type="line"/>
      <point x="95" y="415"/>
      <point x="190" y="461"/>
      <point x="277" y="461" type="curve" smooth="yes"/>
      <point x="406" y="461"/>
      <point x="516" y="352"/>
      <point x="516" y="228" type="curve" smooth="yes"/>
      <point x="519" y="181"/>
      <point x="578" y="54"/>
      <point x="686" y="54" type="curve" smooth="yes"/>
      <point x="780" y="54"/>
      <point x="851" y="132"/>
      <point x="851" y="225" type="curve" smooth="yes"/>
      <point x="851" y="304"/>
      <point x="784" y="390"/>
      <point x="686" y="390" type="curve" smooth="yes"/>
      <point x="671" y="390"/>
      <point x="656" y="387"/>
      <point x="643" y="381" type="curve"/>
      <point x="616" y="447" type="line"/>
      <point x="635" y="457"/>
      <point x="660" y="461"/>
      <point x="686" y="461" type="curve" smooth="yes"/>
      <point x="825" y="461"/>
      <point x="922" y="343"/>
      <point x="922" y="228" type="curve" smooth="yes"/>
      <point x="925" y="179"/>
      <point x="986" y="54"/>
      <point x="1092" y="54" type="curve" smooth="yes"/>
      <point x="1183" y="54"/>
      <point x="1257" y="130"/>
      <point x="1257" y="222" type="curve" smooth="yes"/>
      <point x="1257" y="312"/>
      <point x="1183" y="390"/>
      <point x="1092" y="390" type="curve" smooth="yes"/>
      <point x="1077" y="390"/>
      <point x="1064" y="387"/>
      <point x="1051" y="381" type="curve"/>
      <point x="1022" y="447" type="line"/>
      <point x="1042" y="457"/>
      <point x="1066" y="461"/>
      <point x="1092" y="461" type="curve" smooth="yes"/>
      <point x="1223" y="461"/>
      <point x="1329" y="353"/>
    </contour>
  </outline>
</glyph>
<glyph name="u1040" format="2">
  <advance width="581"/>
  <unicode hex="1040"/>
  <anchor x="292" y="-53" name="BS"/>
  <anchor x="292" y="-53" name="L"/>
  <anchor x="292" y="495" name="U"/>
  <anchor x="292" y="-53" name="BD"/>
  <outline>
    <contour>
      <point x="525" y="222" type="curve" smooth="yes"/>
      <point x="525" y="90"/>
      <point x="421" y="-18"/>
      <point x="291" y="-18" type="curve" smooth="yes"/>
      <point x="158" y="-18"/>
      <point x="55" y="90"/>
      <point x="55" y="222" type="curve" smooth="yes"/>
      <point x="55" y="352"/>
      <point x="159" y="461"/>
      <point x="288" y="461" type="curve" smooth="yes"/>
      <point x="421" y="461"/>
      <point x="525" y="352"/>
    </contour>
    <contour>
      <point x="453" y="222" type="curve" smooth="yes"/>
      <point x="453" y="313"/>
      <point x="381" y="390"/>
      <point x="291" y="390" type="curve" smooth="yes"/>
      <point x="200" y="390"/>
      <point x="127" y="313"/>
      <point x="127" y="222" type="curve" smooth="yes"/>
      <point x="127" y="130"/>
      <point x="199" y="54"/>
      <point x="288" y="54" type="curve" smooth="yes"/>
      <point x="379" y="54"/>
      <point x="453" y="130"/>
    </contour>
  </outline>
</glyph>
<glyph name="u1042" format="2">
  <advance width="535"/>
  <unicode hex="1042"/>
  <anchor x="268" y="-53" name="BS"/>
  <anchor x="268" y="-53" name="L"/>
  <anchor x="268" y="495" name="U"/>
  <anchor x="252" y="-53" name="BD"/>
  <outline>
    <contour>
      <point x="468" y="452" type="line"/>
      <point x="468" y="-280" type="line" smooth="yes"/>
      <point x="468" y="-377"/>
      <point x="404" y="-457"/>
      <point x="268" y="-457" type="curve" smooth="yes"/>
      <point x="133" y="-457"/>
      <point x="68" y="-377"/>
      <point x="68" y="-260" type="curve"/>
      <point x="139" y="-260" type="line"/>
      <point x="139" y="-355"/>
      <point x="200" y="-385"/>
      <point x="268" y="-385" type="curve" smooth="yes"/>
      <point x="337" y="-385"/>
      <point x="396" y="-352"/>
      <point x="396" y="-265" type="curve" smooth="yes"/>
      <point x="396" y="452" type="line"/>
    </contour>
  </outline>
</glyph>
<glyph name="u1043" format="2">
  <advance width="584"/>
  <unicode hex="1043"/>
  <anchor x="281" y="-53" name="BS"/>
  <anchor x="281" y="-53" name="L"/>
  <anchor x="281" y="495" name="U"/>
  <anchor x="279" y="-53" name="BD"/>
  <outline>
    <contour>
      <point x="520" y="222" type="curve" smooth="yes"/>
      <point x="520" y="90"/>
      <point x="412" y="-18"/>
      <point x="281" y="-18" type="curve" smooth="yes"/>
      <point x="262" y="-18"/>
      <point x="237" y="-14"/>
      <point x="215" y="-7" type="curve"/>
      <point x="484" y="-457" type="line"/>
      <point x="399" y="-457" type="line"/>
      <point x="80" y="80" type="line" smooth="yes"/>
      <point x="71" y="93"/>
      <point x="63" y="105"/>
      <point x="59" y="117" type="curve"/>
      <point x="122" y="151" type="line"/>
      <point x="157" y="86"/>
      <point x="219" y="54"/>
      <point x="281" y="54" type="curve" smooth="yes"/>
      <point x="373" y="54"/>
      <point x="449" y="130"/>
      <point x="449" y="222" type="curve" smooth="yes"/>
      <point x="449" y="312"/>
      <point x="373" y="390"/>
      <point x="281" y="390" type="curve" smooth="yes"/>
      <point x="219" y="390"/>
      <point x="159" y="356"/>
      <point x="122" y="292" type="curve"/>
      <point x="59" y="327" type="line"/>
      <point x="103" y="417"/>
      <point x="195" y="461"/>
      <point x="281" y="461" type="curve" smooth="yes"/>
      <point x="412" y="461"/>
      <point x="520" y="352"/>
    </contour>
  </outline>
</glyph>
<glyph name="u1045" format="2">
  <advance width="584"/>
  <unicode hex="1045"/>
  <anchor x="289" y="-53" name="BS"/>
  <anchor x="289" y="-53" name="L"/>
  <anchor x="289" y="495" name="U"/>
  <anchor x="283" y="-53" name="BD"/>
  <outline>
    <contour>
      <point x="527" y="-220" type="line" smooth="yes"/>
      <point x="527" y="-336"/>
      <point x="440" y="-457"/>
      <point x="289" y="-457" type="curve" smooth="yes"/>
      <point x="145" y="-457"/>
      <point x="57" y="-334"/>
      <point x="57" y="-218" type="curve"/>
      <point x="128" y="-218" type="line"/>
      <point x="128" y="-302"/>
      <point x="196" y="-385"/>
      <point x="289" y="-385" type="curve" smooth="yes"/>
      <point x="381" y="-385"/>
      <point x="455" y="-316"/>
      <point x="455" y="-218" type="curve" smooth="yes"/>
      <point x="455" y="222" type="line" smooth="yes"/>
      <point x="455" y="318"/>
      <point x="381" y="390"/>
      <point x="289" y="390" type="curve" smooth="yes"/>
      <point x="241" y="390"/>
      <point x="202" y="366"/>
      <point x="175" y="333" type="curve"/>
      <point x="177" y="333"/>
      <point x="178" y="333"/>
      <point x="180" y="333" type="curve" smooth="yes"/>
      <point x="231" y="333"/>
      <point x="291" y="290"/>
      <point x="291" y="224" type="curve" smooth="yes"/>
      <point x="291" y="159"/>
      <point x="235" y="105"/>
      <point x="172" y="105" type="curve" smooth="yes"/>
      <point x="107" y="105"/>
      <point x="57" y="162"/>
      <point x="57" y="224" type="curve" smooth="yes"/>
      <point x="57" y="232" type="line" smooth="yes"/>
      <point x="60" y="349"/>
      <point x="152" y="461"/>
      <point x="289" y="461" type="curve" smooth="yes"/>
      <point x="440" y="461"/>
      <point x="527" y="337"/>
      <point x="527" y="223" type="curve" smooth="yes"/>
    </contour>
    <contour>
      <point x="228" y="224" type="curve" smooth="yes"/>
      <point x="228" y="254"/>
      <point x="203" y="277"/>
      <point x="173" y="277" type="curve" smooth="yes"/>
      <point x="141" y="277"/>
      <point x="119" y="254"/>
      <point x="119" y="224" type="curve" smooth="yes"/>
      <point x="119" y="193"/>
      <point x="143" y="168"/>
      <point x="172" y="168" type="curve" smooth="yes"/>
      <point x="203" y="168"/>
      <point x="228" y="193"/>
    </contour>
  </outline>
</glyph>
<glyph name="u1046" format="2">
  <advance width="584"/>
  <unicode hex="1046"/>
  <anchor x="295" y="-53" name="BS"/>
  <anchor x="295" y="-53" name="L"/>
  <anchor x="297" y="495" name="U"/>
  <anchor x="292" y="-53" name="BD"/>
  <outline>
    <contour>
      <point x="527" y="221" type="line"/>
      <point x="527" y="109"/>
      <point x="438" y="-18"/>
      <point x="295" y="-18" type="curve" smooth="yes"/>
      <point x="143" y="-18"/>
      <point x="57" y="104"/>
      <point x="57" y="220" type="curve" smooth="yes"/>
      <point x="57" y="662" type="line" smooth="yes"/>
      <point x="57" y="777"/>
      <point x="143" y="900"/>
      <point x="295" y="900" type="curve" smooth="yes"/>
      <point x="434" y="900"/>
      <point x="527" y="783"/>
      <point x="527" y="663" type="curve"/>
      <point x="455" y="663" type="line"/>
      <point x="455" y="747"/>
      <point x="388" y="829"/>
      <point x="295" y="829" type="curve" smooth="yes"/>
      <point x="203" y="829"/>
      <point x="128" y="757"/>
      <point x="128" y="661" type="curve" smooth="yes"/>
      <point x="128" y="222" type="line" smooth="yes"/>
      <point x="128" y="123"/>
      <point x="203" y="54"/>
      <point x="295" y="54" type="curve" smooth="yes"/>
      <point x="369" y="54"/>
      <point x="431" y="111"/>
      <point x="448" y="177" type="curve"/>
      <point x="307" y="224" type="line" smooth="yes"/>
      <point x="251" y="243"/>
      <point x="218" y="282"/>
      <point x="218" y="337" type="curve" smooth="yes"/>
      <point x="218" y="400"/>
      <point x="273" y="454"/>
      <point x="336" y="454" type="curve" smooth="yes"/>
      <point x="400" y="454"/>
      <point x="452" y="398"/>
      <point x="452" y="337" type="curve" smooth="yes"/>
      <point x="452" y="304"/>
      <point x="441" y="278"/>
      <point x="419" y="257" type="curve"/>
    </contour>
    <contour>
      <point x="389" y="337" type="curve" smooth="yes"/>
      <point x="389" y="368"/>
      <point x="367" y="391"/>
      <point x="336" y="391" type="curve" smooth="yes"/>
      <point x="305" y="391"/>
      <point x="281" y="368"/>
      <point x="281" y="337" type="curve" smooth="yes"/>
      <point x="281" y="307"/>
      <point x="305" y="280"/>
      <point x="335" y="280" type="curve" smooth="yes"/>
      <point x="366" y="280"/>
      <point x="389" y="307"/>
    </contour>
  </outline>
</glyph>
<glyph name="u1048" format="2">
  <advance width="590"/>
  <unicode hex="1048"/>
  <anchor x="295" y="-53" name="BS"/>
  <anchor x="301" y="-53" name="L"/>
  <anchor x="295" y="495" name="U"/>
  <anchor x="292" y="-53" name="BD"/>
  <outline>
    <contour>
      <point x="534" y="204" type="curve" smooth="yes"/>
      <point x="534" y="97"/>
      <point x="501" y="31"/>
      <point x="439" y="-18" type="curve"/>
      <point x="397" y="42" type="line"/>
      <point x="437" y="82"/>
      <point x="462" y="128"/>
      <point x="462" y="204" type="curve" smooth="yes"/>
      <point x="462" y="311"/>
      <point x="386" y="388"/>
      <point x="295" y="388" type="curve" smooth="yes"/>
      <point x="260" y="388"/>
      <point x="231" y="379"/>
      <point x="207" y="360" type="curve"/>
      <point x="259" y="314"/>
      <point x="286" y="264"/>
      <point x="286" y="192" type="curve" smooth="yes"/>
      <point x="286" y="104"/>
      <point x="237" y="29"/>
      <point x="180" y="-18" type="curve"/>
      <point x="118" y="31"/>
      <point x="55" y="98"/>
      <point x="55" y="204" type="curve" smooth="yes"/>
      <point x="55" y="353"/>
      <point x="163" y="460"/>
      <point x="295" y="460" type="curve" smooth="yes"/>
      <point x="427" y="460"/>
      <point x="534" y="353"/>
    </contour>
    <contour>
      <point x="221" y="192" type="curve" smooth="yes"/>
      <point x="221" y="245"/>
      <point x="198" y="284"/>
      <point x="159" y="314" type="curve"/>
      <point x="139" y="284"/>
      <point x="127" y="246"/>
      <point x="127" y="204" type="curve" smooth="yes"/>
      <point x="127" y="150"/>
      <point x="153" y="114"/>
      <point x="186" y="80" type="curve"/>
      <point x="212" y="119"/>
      <point x="221" y="155"/>
    </contour>
  </outline>
</glyph>
<glyph name="u1049" format="2">
  <advance width="584"/>
  <unicode hex="1049"/>
  <anchor x="295" y="-53" name="BS"/>
  <anchor x="295" y="-53" name="L"/>
  <anchor x="295" y="495" name="U"/>
  <anchor x="292" y="-53" name="BD"/>
  <outline>
    <contour>
      <point x="527" y="-199" type="line"/>
      <point x="527" y="-346"/>
      <point x="434" y="-457"/>
      <point x="295" y="-457" type="curve" smooth="yes"/>
      <point x="143" y="-457"/>
      <point x="57" y="-334"/>
      <point x="57" y="-219" type="curve" smooth="yes"/>
      <point x="57" y="224" type="line" smooth="yes"/>
      <point x="57" y="339"/>
      <point x="143" y="461"/>
      <point x="295" y="461" type="curve" smooth="yes"/>
      <point x="440" y="461"/>
      <point x="527" y="344"/>
      <point x="527" y="202" type="curve"/>
      <point x="419" y="166" type="line"/>
      <point x="441" y="144"/>
      <point x="452" y="117"/>
      <point x="452" y="87" type="curve" smooth="yes"/>
      <point x="452" y="23"/>
      <point x="400" y="-30"/>
      <point x="336" y="-30" type="curve" smooth="yes"/>
      <point x="273" y="-30"/>
      <point x="218" y="18"/>
      <point x="218" y="87" type="curve" smooth="yes"/>
      <point x="218" y="142"/>
      <point x="251" y="182"/>
      <point x="307" y="200" type="curve" smooth="yes"/>
      <point x="448" y="246" type="line"/>
      <point x="434" y="333"/>
      <point x="376" y="390"/>
      <point x="295" y="390" type="curve" smooth="yes"/>
      <point x="203" y="390"/>
      <point x="128" y="318"/>
      <point x="128" y="222" type="curve" smooth="yes"/>
      <point x="128" y="-218" type="line" smooth="yes"/>
      <point x="128" y="-316"/>
      <point x="203" y="-385"/>
      <point x="295" y="-385" type="curve" smooth="yes"/>
      <point x="387" y="-385"/>
      <point x="455" y="-313"/>
      <point x="455" y="-199" type="curve"/>
    </contour>
    <contour>
      <point x="389" y="87" type="curve" smooth="yes"/>
      <point x="389" y="118"/>
      <point x="364" y="142"/>
      <point x="335" y="142" type="curve" smooth="yes"/>
      <point x="305" y="142"/>
      <point x="281" y="118"/>
      <point x="281" y="87" type="curve" smooth="yes"/>
      <point x="281" y="56"/>
      <point x="305" y="33"/>
      <point x="336" y="33" type="curve" smooth="yes"/>
      <point x="367" y="33"/>
      <point x="389" y="56"/>
    </contour>
  </outline>
</glyph>
<glyph name="u104D" format="2">
  <advance width="803"/>
  <unicode hex="104D"/>
  <outline>
    <contour>
      <point x="738" y="-277" type="line" smooth="yes"/>
      <point x="738" y="-332"/>
      <point x="709" y="-377"/>
      <point x="686" y="-401" type="curve" smooth="yes"/>
      <point x="669" y="-418"/>
      <point x="627" y="-457"/>
      <point x="552" y="-457" type="curve" smooth="yes"/>
      <point x="197" y="-457" type="line" smooth="yes"/>
      <point x="120" y="-457"/>
      <point x="82" y="-391"/>
      <point x="82" y="-335" type="curve" smooth="yes"/>
      <point x="82" y="-273"/>
      <point x="133" y="-216"/>
      <point x="207" y="-216" type="curve" smooth="yes"/>
      <point x="249" y="-216"/>
      <point x="268" y="-225"/>
      <point x="285" y="-240" type="curve"/>
      <point x="245" y="-300" type="line"/>
      <point x="233" y="-292"/>
      <point x="222" y="-288"/>
      <point x="207" y="-288" type="curve" smooth="yes"/>
      <point x="177" y="-288"/>
      <point x="154" y="-305"/>
      <point x="154" y="-335" type="curve" smooth="yes"/>
      <point x="154" y="-358"/>
      <point x="172" y="-385"/>
      <point x="204" y="-385" type="curve" smooth="yes"/>
      <point x="528" y="-385" type="line" smooth="yes"/>
      <point x="587" y="-385"/>
      <point x="602" y="-377"/>
      <point x="632" y="-352" type="curve" smooth="yes"/>
      <point x="656" y="-332"/>
      <point x="666" y="-298"/>
      <point x="666" y="-267" type="curve" smooth="yes"/>
      <point x="666" y="387" type="line" smooth="yes"/>
      <point x="666" y="562"/>
      <point x="419" y="556"/>
      <point x="419" y="728" type="curve" smooth="yes"/>
      <point x="419" y="834"/>
      <point x="503" y="911"/>
      <point x="603" y="911" type="curve" smooth="yes"/>
      <point x="683" y="911"/>
      <point x="732" y="863"/>
      <point x="747" y="816" type="curve"/>
      <point x="684" y="782" type="line"/>
      <point x="673" y="816"/>
      <point x="640" y="839"/>
      <point x="603" y="839" type="curve" smooth="yes"/>
      <point x="537" y="839"/>
      <point x="490" y="791"/>
      <point x="490" y="728" type="curve" smooth="yes"/>
      <point x="490" y="608"/>
      <point x="738" y="602"/>
      <point x="738" y="387" type="curve" smooth="yes"/>
    </contour>
    <contour>
      <point x="552" y="-304" type="line"/>
      <point x="481" y="-304" type="line"/>
      <point x="481" y="180" type="line" smooth="yes"/>
      <point x="481" y="315"/>
      <point x="383" y="390"/>
      <point x="294" y="390" type="curve" smooth="yes"/>
      <point x="208" y="390"/>
      <point x="140" y="325"/>
      <point x="131" y="247" type="curve"/>
      <point x="138" y="248"/>
      <point x="146" y="248"/>
      <point x="153" y="248" type="curve" smooth="yes"/>
      <point x="197" y="248"/>
      <point x="242" y="236"/>
      <point x="278" y="215" type="curve" smooth="yes"/>
      <point x="360" y="169"/>
      <point x="391" y="101"/>
      <point x="415" y="12" type="curve"/>
      <point x="380" y="-10"/>
      <point x="337" y="-18"/>
      <point x="294" y="-18" type="curve" smooth="yes"/>
      <point x="163" y="-18"/>
      <point x="55" y="90"/>
      <point x="55" y="222" type="curve" smooth="yes"/>
      <point x="55" y="346"/>
      <point x="157" y="460"/>
      <point x="294" y="460" type="curve" smooth="yes"/>
      <point x="429" y="460"/>
      <point x="552" y="358"/>
      <point x="552" y="184" type="curve" smooth="yes"/>
    </contour>
    <contour>
      <point x="331" y="57" type="curve"/>
      <point x="313" y="103"/>
      <point x="287" y="140"/>
      <point x="243" y="161" type="curve" smooth="yes"/>
      <point x="215" y="175"/>
      <point x="185" y="181"/>
      <point x="155" y="181" type="curve" smooth="yes"/>
      <point x="147" y="181"/>
      <point x="140" y="181"/>
      <point x="132" y="180" type="curve"/>
      <point x="149" y="109"/>
      <point x="216" y="54"/>
      <point x="294" y="54" type="curve" smooth="yes"/>
      <point x="309" y="54"/>
      <point x="318" y="54"/>
    </contour>
  </outline>
</glyph>
<glyph name="u1050" format="2">
  <advance width="590"/>
  <unicode hex="1050"/>
  <anchor x="0" y="0" name="_R"/>
  <anchor x="295" y="-53" name="BS"/>
  <anchor x="295" y="-53" name="L"/>
  <anchor x="295" y="495" name="U"/>
  <anchor x="292" y="-53" name="BD"/>
  <outline>
    <contour>
      <point x="535" y="204" type="curve" smooth="yes"/>
      <point x="535" y="98"/>
      <point x="502" y="33"/>
      <point x="439" y="-18" type="curve"/>
      <point x="397" y="42" type="line"/>
      <point x="439" y="85"/>
      <point x="462" y="128"/>
      <point x="462" y="204" type="curve" smooth="yes"/>
      <point x="462" y="307"/>
      <point x="391" y="388"/>
      <point x="295" y="388" type="curve" smooth="yes"/>
      <point x="199" y="388"/>
      <point x="127" y="307"/>
      <point x="127" y="204" type="curve" smooth="yes"/>
      <point x="127" y="128"/>
      <point x="150" y="85"/>
      <point x="192" y="42" type="curve"/>
      <point x="150" y="-18" type="line"/>
      <point x="89" y="33"/>
      <point x="55" y="98"/>
      <point x="55" y="204" type="curve" smooth="yes"/>
      <point x="55" y="351"/>
      <point x="161" y="460"/>
      <point x="295" y="460" type="curve" smooth="yes"/>
      <point x="428" y="460"/>
      <point x="535" y="351"/>
    </contour>
    <contour>
      <point x="380" y="204" type="curve" smooth="yes"/>
      <point x="380" y="158"/>
      <point x="342" y="116"/>
      <point x="295" y="116" type="curve" smooth="yes"/>
      <point x="248" y="116"/>
      <point x="209" y="157"/>
      <point x="209" y="204" type="curve" smooth="yes"/>
      <point x="209" y="250"/>
      <point x="248" y="290"/>
      <point x="295" y="290" type="curve" smooth="yes"/>
      <point x="341" y="290"/>
      <point x="380" y="250"/>
    </contour>
    <contour>
      <point x="335" y="204" type="curve" smooth="yes"/>
      <point x="335" y="226"/>
      <point x="317" y="244"/>
      <point x="295" y="244" type="curve" smooth="yes"/>
      <point x="271" y="244"/>
      <point x="253" y="226"/>
      <point x="253" y="204" type="curve" smooth="yes"/>
      <point x="253" y="180"/>
      <point x="271" y="162"/>
      <point x="295" y="162" type="curve" smooth="yes"/>
      <point x="317" y="162"/>
      <point x="335" y="180"/>
    </contour>
  </outline>
</glyph>
<glyph name="u1052" format="2">
  <advance width="582"/>
  <unicode hex="1052"/>
  <anchor x="0" y="0" name="_R"/>
  <anchor x="287" y="-53" name="BS"/>
  <anchor x="287" y="-53" name="L"/>
  <anchor x="287" y="495" name="U"/>
  <anchor x="285" y="-53" name="BD"/>
  <outline>
    <contour>
      <point x="527" y="167" type="curve" smooth="yes"/>
      <point x="527" y="86"/>
      <point x="437" y="-18"/>
      <point x="295" y="-18" type="curve" smooth="yes"/>
      <point x="164" y="-18"/>
      <point x="55" y="86"/>
      <point x="55" y="240" type="curve" smooth="yes"/>
      <point x="55" y="349"/>
      <point x="91" y="414"/>
      <point x="150" y="460" type="curve"/>
      <point x="192" y="400" type="line"/>
      <point x="150" y="360"/>
      <point x="127" y="308"/>
      <point x="127" y="240" type="curve" smooth="yes"/>
      <point x="127" y="120"/>
      <point x="213" y="54"/>
      <point x="295" y="54" type="curve" smooth="yes"/>
      <point x="405" y="54"/>
      <point x="455" y="141"/>
      <point x="455" y="167" type="curve" smooth="yes"/>
      <point x="455" y="250"/>
      <point x="321" y="239"/>
      <point x="321" y="340" type="curve" smooth="yes"/>
      <point x="321" y="419"/>
      <point x="374" y="459"/>
      <point x="434" y="459" type="curve" smooth="yes"/>
      <point x="474" y="459"/>
      <point x="515" y="433"/>
      <point x="527" y="404" type="curve"/>
      <point x="470" y="369" type="line"/>
      <point x="466" y="380"/>
      <point x="450" y="392"/>
      <point x="434" y="392" type="curve" smooth="yes"/>
      <point x="411" y="392"/>
      <point x="388" y="380"/>
      <point x="388" y="340" type="curve" smooth="yes"/>
      <point x="388" y="286"/>
      <point x="527" y="303"/>
    </contour>
  </outline>
</glyph>
<glyph name="u1054" format="2">
  <advance width="584"/>
  <unicode hex="1054"/>
  <anchor x="0" y="0" name="_R"/>
  <anchor x="289" y="-53" name="BS"/>
  <anchor x="289" y="495" name="U"/>
  <anchor x="283" y="-53" name="L"/>
  <anchor x="283" y="-53" name="BD"/>
  <outline>
    <contour>
      <point x="528" y="278" type="curve"/>
      <point x="455" y="237"/>
      <point x="406" y="223"/>
      <point x="360" y="223" type="curve" smooth="yes"/>
      <point x="288" y="223"/>
      <point x="209" y="261"/>
      <point x="163" y="322" type="curve"/>
      <point x="141" y="295"/>
      <point x="127" y="261"/>
      <point x="127" y="222" type="curve" smooth="yes"/>
      <point x="127" y="137"/>
      <point x="196" y="54"/>
      <point x="294" y="54" type="curve" smooth="yes"/>
      <point x="359" y="54"/>
      <point x="415" y="88"/>
      <point x="453" y="151" type="curve"/>
      <point x="515" y="117" type="line"/>
      <point x="471" y="27"/>
      <point x="381" y="-18"/>
      <point x="294" y="-18" type="curve" smooth="yes"/>
      <point x="155" y="-18"/>
      <point x="55" y="99"/>
      <point x="55" y="222" type="curve" smooth="yes"/>
      <point x="55" y="352"/>
      <point x="158" y="461"/>
      <point x="294" y="461" type="curve" smooth="yes"/>
      <point x="434" y="461"/>
      <point x="524" y="356"/>
    </contour>
    <contour>
      <point x="446" y="308" type="curve"/>
      <point x="408" y="368"/>
      <point x="349" y="390"/>
      <point x="294" y="390" type="curve" smooth="yes"/>
      <point x="262" y="390"/>
      <point x="237" y="382"/>
      <point x="212" y="369" type="curve"/>
      <point x="245" y="319"/>
      <point x="298" y="287"/>
      <point x="358" y="287" type="curve" smooth="yes"/>
      <point x="383" y="287"/>
      <point x="412" y="294"/>
    </contour>
  </outline>
</glyph>
<glyph name="u1055" format="2">
  <advance width="584"/>
  <unicode hex="1055"/>
  <anchor x="0" y="0" name="_R"/>
  <anchor x="289" y="-53" name="BS"/>
  <anchor x="289" y="495" name="U"/>
  <anchor x="283" y="-53" name="L"/>
  <anchor x="283" y="-53" name="BD"/>
  <outline>
    <contour>
      <point x="528" y="278" type="curve"/>
      <point x="464" y="241"/>
      <point x="410" y="224"/>
      <point x="360" y="224" type="curve" smooth="yes"/>
      <point x="287" y="224"/>
      <point x="211" y="259"/>
      <point x="163" y="322" type="curve"/>
      <point x="141" y="296"/>
      <point x="127" y="263"/>
      <point x="127" y="222" type="curve" smooth="yes"/>
      <point x="127" y="157"/>
      <point x="164" y="57"/>
      <point x="216" y="57" type="curve" smooth="yes"/>
      <point x="242" y="56"/>
      <point x="251" y="147"/>
      <point x="304" y="147" type="curve" smooth="yes"/>
      <point x="357" y="147"/>
      <point x="367" y="57"/>
      <point x="392" y="57" type="curve" smooth="yes"/>
      <point x="418" y="57"/>
      <point x="437" y="94"/>
      <point x="451" y="128" type="curve"/>
      <point x="514" y="98" type="line"/>
      <point x="492" y="45"/>
      <point x="452" y="-15"/>
      <point x="392" y="-15" type="curve" smooth="yes"/>
      <point x="329" y="-15"/>
      <point x="322" y="76"/>
      <point x="304" y="76" type="curve" smooth="yes"/>
      <point x="286" y="76"/>
      <point x="278" y="-15"/>
      <point x="214" y="-15" type="curve" smooth="yes"/>
      <point x="115" y="-15"/>
      <point x="55" y="121"/>
      <point x="55" y="222" type="curve" smooth="yes"/>
      <point x="55" y="348"/>
      <point x="158" y="461"/>
      <point x="294" y="461" type="curve" smooth="yes"/>
      <point x="437" y="461"/>
      <point x="524" y="356"/>
    </contour>
    <contour>
      <point x="446" y="308" type="curve"/>
      <point x="408" y="368"/>
      <point x="349" y="390"/>
      <point x="294" y="390" type="curve" smooth="yes"/>
      <point x="262" y="390"/>
      <point x="237" y="382"/>
      <point x="212" y="369" type="curve"/>
      <point x="246" y="318"/>
      <point x="298" y="289"/>
      <point x="358" y="289" type="curve" smooth="yes"/>
      <point x="383" y="289"/>
      <point x="412" y="294"/>
    </contour>
  </outline>
</glyph>
<glyph name="u1058" format="2">
  <advance width="475"/>
  <unicode hex="1058"/>
  <anchor x="236" y="-53" name="_BS"/>
  <anchor x="236" y="-53" name="_BSM"/>
  <anchor x="-495" y="-53" name="BDM"/>
  <anchor x="32" y="-53" name="_LM"/>
  <anchor x="-613" y="-53" name="_LLM"/>
  <anchor x="-293" y="495" name="UM"/>
  <anchor x="32" y="-53" name="BSM"/>
  <outline>
    <contour>
      <point x="419" y="-229" type="curve"/>
      <point x="369" y="-259"/>
      <point x="328" y="-273"/>
      <point x="290" y="-273" type="curve" smooth="yes"/>
      <point x="242" y="-273"/>
      <point x="171" y="-242"/>
      <point x="141" y="-195" type="curve"/>
      <point x="121" y="-216"/>
      <point x="111" y="-243"/>
      <point x="111" y="-272" type="curve" smooth="yes"/>
      <point x="111" y="-337"/>
      <point x="163" y="-401"/>
      <point x="239" y="-401" type="curve" smooth="yes"/>
      <point x="287" y="-401"/>
      <point x="334" y="-376"/>
      <point x="362" y="-326" type="curve"/>
      <point x="409" y="-353" type="line"/>
      <point x="378" y="-423"/>
      <point x="300" y="-457"/>
      <point x="239" y="-457" type="curve" smooth="yes"/>
      <point x="132" y="-457"/>
      <point x="56" y="-368"/>
      <point x="56" y="-272" type="curve" smooth="yes"/>
      <point x="56" y="-171"/>
      <point x="134" y="-87"/>
      <point x="239" y="-87" type="curve" smooth="yes"/>
      <point x="343" y="-87"/>
      <point x="419" y="-169"/>
    </contour>
    <contour>
      <point x="357" y="-208" type="curve"/>
      <point x="331" y="-163"/>
      <point x="281" y="-142"/>
      <point x="239" y="-142" type="curve" smooth="yes"/>
      <point x="216" y="-142"/>
      <point x="193" y="-149"/>
      <point x="174" y="-159" type="curve"/>
      <point x="194" y="-197"/>
      <point x="244" y="-225"/>
      <point x="290" y="-225" type="curve" smooth="yes"/>
      <point x="313" y="-225"/>
      <point x="334" y="-220"/>
    </contour>
  </outline>
</glyph>
<glyph name="u105C" format="2">
  <advance width="583"/>
  <unicode hex="105C"/>
  <anchor x="0" y="0" name="_R"/>
  <anchor x="293" y="-64" name="BS"/>
  <anchor x="293" y="-64" name="L"/>
  <anchor x="293" y="495" name="U"/>
  <anchor x="290" y="-69" name="BD"/>
  <outline>
    <contour>
      <point x="528" y="222" type="curve" smooth="yes"/>
      <point x="528" y="89"/>
      <point x="422" y="-18"/>
      <point x="293" y="-18" type="curve" smooth="yes"/>
      <point x="161" y="-18"/>
      <point x="55" y="89"/>
      <point x="55" y="222" type="curve" smooth="yes"/>
      <point x="55" y="352"/>
      <point x="160" y="462"/>
      <point x="291" y="462" type="curve" smooth="yes"/>
      <point x="423" y="462"/>
      <point x="528" y="352"/>
    </contour>
    <contour>
      <point x="460" y="222" type="curve" smooth="yes"/>
      <point x="460" y="315"/>
      <point x="385" y="393"/>
      <point x="293" y="393" type="curve" smooth="yes"/>
      <point x="199" y="393"/>
      <point x="124" y="315"/>
      <point x="124" y="222" type="curve" smooth="yes"/>
      <point x="124" y="127"/>
      <point x="199" y="51"/>
      <point x="291" y="51" type="curve" smooth="yes"/>
      <point x="385" y="51"/>
      <point x="460" y="127"/>
    </contour>
    <contour>
      <point x="379" y="222" type="curve" smooth="yes"/>
      <point x="379" y="174"/>
      <point x="340" y="134"/>
      <point x="293" y="134" type="curve" smooth="yes"/>
      <point x="247" y="134"/>
      <point x="208" y="175"/>
      <point x="208" y="222" type="curve" smooth="yes"/>
      <point x="208" y="268"/>
      <point x="247" y="308"/>
      <point x="293" y="308" type="curve" smooth="yes"/>
      <point x="340" y="308"/>
      <point x="379" y="268"/>
    </contour>
    <contour>
      <point x="334" y="222" type="curve" smooth="yes"/>
      <point x="334" y="244"/>
      <point x="315" y="262"/>
      <point x="293" y="262" type="curve" smooth="yes"/>
      <point x="270" y="262"/>
      <point x="252" y="244"/>
      <point x="252" y="222" type="curve" smooth="yes"/>
      <point x="252" y="198"/>
      <point x="270" y="180"/>
      <point x="293" y="180" type="curve" smooth="yes"/>
      <point x="315" y="180"/>
      <point x="334" y="198"/>
    </contour>
  </outline>
</glyph>
<glyph name="u105F" format="2">
  <advance width="0"/>
  <unicode hex="105F"/>
  <anchor x="-85" y="-54" name="_BS"/>
  <anchor x="-297" y="-53" name="LLM"/>
  <anchor x="-85" y="-54" name="_BSM"/>
  <anchor x="127" y="-53" name="LM"/>
  <anchor x="144" y="-53" name="BSM"/>
  <outline>
    <contour>
      <point x="60" y="-391" type="line"/>
      <point x="10" y="-440"/>
      <point x="-41" y="-457"/>
      <point x="-103" y="-457" type="curve" smooth="yes"/>
      <point x="-157" y="-457"/>
      <point x="-282" y="-446"/>
      <point x="-282" y="-327" type="curve" smooth="yes"/>
      <point x="-282" y="-220"/>
      <point x="-171" y="-202"/>
      <point x="-118" y="-200" type="curve"/>
      <point x="-118" y="-98" type="line"/>
      <point x="-55" y="-98" type="line"/>
      <point x="-55" y="-266" type="line"/>
      <point x="-66" y="-264"/>
      <point x="-82" y="-262"/>
      <point x="-103" y="-262" type="curve" smooth="yes"/>
      <point x="-153" y="-262"/>
      <point x="-219" y="-275"/>
      <point x="-219" y="-327" type="curve" smooth="yes"/>
      <point x="-219" y="-383"/>
      <point x="-158" y="-394"/>
      <point x="-103" y="-394" type="curve" smooth="yes"/>
      <point x="-62" y="-394"/>
      <point x="-9" y="-382"/>
      <point x="33" y="-351" type="curve"/>
    </contour>
  </outline>
</glyph>
<glyph name="u1060" format="2">
  <advance width="0"/>
  <unicode hex="1060"/>
  <anchor x="-248" y="-53" name="_BS"/>
  <anchor x="-248" y="-53" name="_BSM"/>
  <anchor x="-501" y="-53" name="LLM"/>
  <anchor x="-501" y="-53" name="BSM"/>
  <outline>
    <contour>
      <point x="-55" y="-457" type="line"/>
      <point x="-401" y="-457" type="line"/>
      <point x="-202" y="-95" type="line"/>
      <point x="-122" y="-95" type="line"/>
      <point x="-281" y="-386" type="line"/>
      <point x="-55" y="-386" type="line"/>
    </contour>
  </outline>
</glyph>
<glyph name="u1061" format="2">
  <advance width="608"/>
  <unicode hex="1061"/>
  <anchor x="0" y="0" name="_R"/>
  <anchor x="264" y="-53" name="BS"/>
  <anchor x="238" y="-53" name="LL"/>
  <anchor x="682" y="-53" name="L"/>
  <anchor x="90" y="-53" name="BD"/>
  <anchor x="296" y="495" name="U"/>
  <outline>
    <contour>
      <point x="552" y="-457" type="line"/>
      <point x="481" y="-457" type="line"/>
      <point x="481" y="181" type="line" smooth="yes"/>
      <point x="481" y="315"/>
      <point x="383" y="390"/>
      <point x="294" y="390" type="curve" smooth="yes"/>
      <point x="208" y="390"/>
      <point x="140" y="324"/>
      <point x="131" y="247" type="curve"/>
      <point x="138" y="248"/>
      <point x="145" y="248"/>
      <point x="152" y="248" type="curve" smooth="yes"/>
      <point x="196" y="248"/>
      <point x="240" y="237"/>
      <point x="278" y="215" type="curve" smooth="yes"/>
      <point x="356" y="172"/>
      <point x="391" y="107"/>
      <point x="415" y="12" type="curve"/>
      <point x="380" y="-9"/>
      <point x="340" y="-18"/>
      <point x="294" y="-18" type="curve" smooth="yes"/>
      <point x="163" y="-18"/>
      <point x="55" y="90"/>
      <point x="55" y="222" type="curve" smooth="yes"/>
      <point x="55" y="347"/>
      <point x="158" y="460"/>
      <point x="294" y="460" type="curve" smooth="yes"/>
      <point x="429" y="460"/>
      <point x="552" y="359"/>
      <point x="552" y="185" type="curve" smooth="yes"/>
    </contour>
    <contour>
      <point x="331" y="58" type="curve"/>
      <point x="313" y="103"/>
      <point x="291" y="139"/>
      <point x="243" y="161" type="curve" smooth="yes"/>
      <point x="213" y="176"/>
      <point x="183" y="182"/>
      <point x="152" y="182" type="curve" smooth="yes"/>
      <point x="145" y="182"/>
      <point x="139" y="182"/>
      <point x="132" y="181" type="curve"/>
      <point x="150" y="108"/>
      <point x="215" y="55"/>
      <point x="294" y="55" type="curve" smooth="yes"/>
      <point x="310" y="55"/>
      <point x="319" y="55"/>
    </contour>
    <contour>
      <point x="393" y="-457" type="line"/>
      <point x="240" y="-457" type="line"/>
      <point x="240" y="-390" type="line"/>
      <point x="325" y="-390" type="line"/>
      <point x="325" y="-98" type="line"/>
      <point x="393" y="-98" type="line"/>
    </contour>
  </outline>
</glyph>
<glyph name="u1065" format="2">
  <advance width="577"/>
  <unicode hex="1065"/>
  <anchor x="0" y="0" name="_R"/>
  <anchor x="279" y="-53" name="BS"/>
  <anchor x="279" y="-53" name="L"/>
  <anchor x="282" y="495" name="U"/>
  <anchor x="279" y="-53" name="BD"/>
  <outline>
    <contour>
      <point x="518" y="222" type="curve" smooth="yes"/>
      <point x="518" y="90"/>
      <point x="410" y="-18"/>
      <point x="279" y="-18" type="curve" smooth="yes"/>
      <point x="188" y="-18"/>
      <point x="97" y="30"/>
      <point x="57" y="117" type="curve"/>
      <point x="120" y="151" type="line"/>
      <point x="157" y="87"/>
      <point x="214" y="54"/>
      <point x="279" y="54" type="curve" smooth="yes"/>
      <point x="371" y="54"/>
      <point x="447" y="130"/>
      <point x="447" y="222" type="curve" smooth="yes"/>
      <point x="447" y="313"/>
      <point x="371" y="390"/>
      <point x="279" y="390" type="curve" smooth="yes"/>
      <point x="214" y="390"/>
      <point x="154" y="354"/>
      <point x="120" y="292" type="curve"/>
      <point x="57" y="327" type="line"/>
      <point x="98" y="415"/>
      <point x="189" y="461"/>
      <point x="279" y="461" type="curve" smooth="yes"/>
      <point x="410" y="461"/>
      <point x="518" y="352"/>
    </contour>
  </outline>
</glyph>
<glyph name="u1066" format="2">
  <advance width="589"/>
  <unicode hex="1066"/>
  <anchor x="0" y="0" name="_R"/>
  <anchor x="295" y="-53" name="BS"/>
  <anchor x="295" y="-53" name="L"/>
  <anchor x="295" y="495" name="U"/>
  <anchor x="292" y="-53" name="BD"/>
  <outline>
    <contour>
      <point x="535" y="239" type="curve" smooth="yes"/>
      <point x="535" y="91"/>
      <point x="428" y="-18"/>
      <point x="295" y="-18" type="curve" smooth="yes"/>
      <point x="161" y="-18"/>
      <point x="55" y="91"/>
      <point x="55" y="239" type="curve" smooth="yes"/>
      <point x="55" y="343"/>
      <point x="89" y="408"/>
      <point x="150" y="460" type="curve"/>
      <point x="192" y="400" type="line"/>
      <point x="150" y="357"/>
      <point x="127" y="314"/>
      <point x="127" y="239" type="curve" smooth="yes"/>
      <point x="127" y="136"/>
      <point x="199" y="54"/>
      <point x="295" y="54" type="curve" smooth="yes"/>
      <point x="391" y="54"/>
      <point x="462" y="136"/>
      <point x="462" y="239" type="curve" smooth="yes"/>
      <point x="462" y="314"/>
      <point x="439" y="357"/>
      <point x="397" y="400" type="curve"/>
      <point x="439" y="460" type="line"/>
      <point x="503" y="408"/>
      <point x="535" y="343"/>
    </contour>
    <contour>
      <point x="329" y="-457" type="line"/>
      <point x="176" y="-457" type="line"/>
      <point x="176" y="-390" type="line"/>
      <point x="261" y="-390" type="line"/>
      <point x="261" y="-98" type="line"/>
      <point x="329" y="-98" type="line"/>
    </contour>
  </outline>
</glyph>
<glyph name="u106A" format="2">
  <advance width="321"/>
  <unicode hex="106A"/>
  <anchor x="167" y="-53" name="BS"/>
  <anchor x="167" y="-53" name="L"/>
  <anchor x="238" y="495" name="U"/>
  <anchor x="154" y="-53" name="BD"/>
  <outline>
    <contour>
      <point x="276" y="454" type="line"/>
      <point x="276" y="102" type="line" smooth="yes"/>
      <point x="276" y="27"/>
      <point x="228" y="-18"/>
      <point x="166" y="-18" type="curve" smooth="yes"/>
      <point x="100" y="-18"/>
      <point x="56" y="33"/>
      <point x="56" y="96" type="curve"/>
      <point x="127" y="96" type="line"/>
      <point x="127" y="69"/>
      <point x="148" y="52"/>
      <point x="166" y="52" type="curve" smooth="yes"/>
      <point x="186" y="52"/>
      <point x="205" y="68"/>
      <point x="205" y="102" type="curve" smooth="yes"/>
      <point x="205" y="454" type="line"/>
    </contour>
  </outline>
</glyph>
<glyph name="u106D" format="2">
  <advance width="368"/>
  <unicode hex="106D"/>
  <anchor x="0" y="0" name="_R"/>
  <anchor x="182" y="-52" name="BS"/>
  <anchor x="182" y="-52" name="L"/>
  <anchor x="178" y="496" name="U"/>
  <anchor x="174" y="-51" name="BD"/>
  <outline>
    <contour>
      <point x="327" y="142" type="curve" smooth="yes"/>
      <point x="327" y="21"/>
      <point x="235" y="-18"/>
      <point x="182" y="-18" type="curve" smooth="yes"/>
      <point x="149" y="-18"/>
      <point x="89" y="-10"/>
      <point x="53" y="35" type="curve"/>
      <point x="99" y="90" type="line"/>
      <point x="128" y="60"/>
      <point x="159" y="54"/>
      <point x="182" y="54" type="curve" smooth="yes"/>
      <point x="205" y="54"/>
      <point x="255" y="75"/>
      <point x="255" y="141" type="curve" smooth="yes"/>
      <point x="255" y="166"/>
      <point x="240" y="182"/>
      <point x="216" y="193" type="curve" smooth="yes"/>
      <point x="186" y="206"/>
      <point x="121" y="212"/>
      <point x="79" y="247" type="curve" smooth="yes"/>
      <point x="52" y="268"/>
      <point x="42" y="299"/>
      <point x="42" y="331" type="curve" smooth="yes"/>
      <point x="42" y="413"/>
      <point x="105" y="462"/>
      <point x="176" y="462" type="curve" smooth="yes"/>
      <point x="204" y="462"/>
      <point x="261" y="456"/>
      <point x="302" y="411" type="curve"/>
      <point x="256" y="357" type="line"/>
      <point x="223" y="387"/>
      <point x="200" y="392"/>
      <point x="176" y="392" type="curve" smooth="yes"/>
      <point x="136" y="392"/>
      <point x="114" y="359"/>
      <point x="114" y="331" type="curve" smooth="yes"/>
      <point x="114" y="316"/>
      <point x="121" y="306"/>
      <point x="132" y="297" type="curve" smooth="yes"/>
      <point x="163" y="276"/>
      <point x="226" y="267"/>
      <point x="260" y="249" type="curve" smooth="yes"/>
      <point x="309" y="223"/>
      <point x="327" y="176"/>
    </contour>
  </outline>
</glyph>
<glyph name="u1072" format="2">
  <advance width="0"/>
  <unicode hex="1072"/>
  <anchor x="-286" y="489" name="_U"/>
  <anchor x="-286" y="495" name="UM"/>
  <outline>
    <contour>
      <point x="-55" y="837" type="curve"/>
      <point x="-95" y="804" type="line"/>
      <point x="-118" y="843"/>
      <point x="-157" y="861"/>
      <point x="-191" y="861" type="curve" smooth="yes"/>
      <point x="-254" y="861"/>
      <point x="-319" y="811"/>
      <point x="-319" y="731" type="curve" smooth="yes"/>
      <point x="-319" y="633"/>
      <point x="-223" y="595"/>
      <point x="-189" y="595" type="curve"/>
      <point x="-189" y="540" type="line"/>
      <point x="-268" y="540"/>
      <point x="-374" y="613"/>
      <point x="-374" y="731" type="curve" smooth="yes"/>
      <point x="-374" y="842"/>
      <point x="-284" y="916"/>
      <point x="-192" y="916" type="curve" smooth="yes"/>
      <point x="-138" y="916"/>
      <point x="-83" y="889"/>
    </contour>
  </outline>
</glyph>
<glyph name="u1073" format="2">
  <advance width="457"/>
  <unicode hex="1073"/>
  <anchor x="430" y="495" name="_Y"/>
  <anchor x="229" y="495" name="_U"/>
  <anchor x="-293" y="495" name="UM"/>
  <outline>
    <contour>
      <point x="457" y="630" type="line"/>
      <point x="417" y="591" type="line"/>
      <point x="229" y="780" type="line"/>
      <point x="40" y="591" type="line"/>
      <point x="0" y="630" type="line"/>
      <point x="229" y="859" type="line"/>
    </contour>
  </outline>
</glyph>
<glyph name="u1074" format="2">
  <advance width="0"/>
  <unicode hex="1074"/>
  <anchor x="-83" y="495" name="_Y"/>
  <anchor x="-284" y="495" name="_U"/>
  <anchor x="-282" y="495" name="UM"/>
  <outline>
    <contour>
      <point x="-55" y="820" type="line"/>
      <point x="-284" y="591" type="line"/>
      <point x="-512" y="820" type="line"/>
      <point x="-473" y="859" type="line"/>
      <point x="-284" y="670" type="line"/>
      <point x="-95" y="859" type="line"/>
    </contour>
  </outline>
</glyph>
<glyph name="u1079" format="2">
  <advance width="942"/>
  <unicode hex="1079"/>
  <anchor x="0" y="0" name="_R"/>
  <anchor x="654" y="-53" name="BS"/>
  <anchor x="654" y="-53" name="L"/>
  <anchor x="471" y="-53" name="BD"/>
  <anchor x="654" y="495" name="U"/>
  <outline>
    <contour>
      <point x="887" y="222" type="curve" smooth="yes"/>
      <point x="887" y="90"/>
      <point x="782" y="-18"/>
      <point x="650" y="-18" type="curve" smooth="yes"/>
      <point x="521" y="-18"/>
      <point x="417" y="90"/>
      <point x="417" y="222" type="curve" smooth="yes"/>
      <point x="417" y="259"/>
      <point x="425" y="292"/>
      <point x="441" y="325" type="curve"/>
      <point x="396" y="369"/>
      <point x="343" y="390"/>
      <point x="294" y="390" type="curve" smooth="yes"/>
      <point x="214" y="390"/>
      <point x="150" y="331"/>
      <point x="139" y="258" type="curve"/>
      <point x="187" y="258"/>
      <point x="234" y="246"/>
      <point x="274" y="220" type="curve" smooth="yes"/>
      <point x="353" y="168"/>
      <point x="383" y="96"/>
      <point x="397" y="6" type="curve"/>
      <point x="366" y="-12"/>
      <point x="331" y="-18"/>
      <point x="297" y="-18" type="curve" smooth="yes"/>
      <point x="169" y="-18"/>
      <point x="55" y="82"/>
      <point x="55" y="222" type="curve" smooth="yes"/>
      <point x="55" y="354"/>
      <point x="163" y="461"/>
      <point x="294" y="461" type="curve" smooth="yes"/>
      <point x="372" y="461"/>
      <point x="432" y="437"/>
      <point x="482" y="386" type="curve"/>
      <point x="525" y="432"/>
      <point x="586" y="461"/>
      <point x="653" y="461" type="curve" smooth="yes"/>
      <point x="783" y="461"/>
      <point x="887" y="352"/>
    </contour>
    <contour>
      <point x="815" y="222" type="curve" smooth="yes"/>
      <point x="815" y="313"/>
      <point x="742" y="390"/>
      <point x="650" y="390" type="curve" smooth="yes"/>
      <point x="561" y="390"/>
      <point x="489" y="313"/>
      <point x="489" y="222" type="curve" smooth="yes"/>
      <point x="489" y="130"/>
      <point x="563" y="54"/>
      <point x="653" y="54" type="curve" smooth="yes"/>
      <point x="743" y="54"/>
      <point x="815" y="130"/>
    </contour>
    <contour>
      <point x="130" y="194" type="curve"/>
      <point x="144" y="113"/>
      <point x="214" y="55"/>
      <point x="293" y="55" type="curve" smooth="yes"/>
      <point x="301" y="55"/>
      <point x="310" y="56"/>
      <point x="318" y="57" type="curve"/>
      <point x="303" y="105"/>
      <point x="281" y="145"/>
      <point x="235" y="171" type="curve" smooth="yes"/>
      <point x="209" y="187"/>
      <point x="182" y="195"/>
      <point x="150" y="195" type="curve" smooth="yes"/>
      <point x="144" y="195"/>
      <point x="137" y="195"/>
    </contour>
  </outline>
</glyph>
<glyph name="u107A" format="2">
  <advance width="1011"/>
  <unicode hex="107A"/>
  <anchor x="0" y="0" name="_R"/>
  <anchor x="776" y="-53" name="BS"/>
  <anchor x="290" y="-53" name="LL"/>
  <anchor x="734" y="-53" name="L"/>
  <anchor x="581" y="495" name="U"/>
  <anchor x="750" y="-53" name="BD"/>
  <outline>
    <contour>
      <point x="956" y="222" type="curve" smooth="yes"/>
      <point x="956" y="90"/>
      <point x="848" y="-18"/>
      <point x="719" y="-18" type="curve" smooth="yes"/>
      <point x="652" y="-18"/>
      <point x="593" y="19"/>
      <point x="552" y="67" type="curve"/>
      <point x="552" y="-385" type="line"/>
      <point x="630" y="-385" type="line"/>
      <point x="630" y="-457" type="line"/>
      <point x="481" y="-457" type="line"/>
      <point x="481" y="180" type="line" smooth="yes"/>
      <point x="481" y="314"/>
      <point x="383" y="390"/>
      <point x="293" y="390" type="curve" smooth="yes"/>
      <point x="198" y="390"/>
      <point x="130" y="312"/>
      <point x="130" y="223" type="curve" smooth="yes"/>
      <point x="130" y="122"/>
      <point x="212" y="54"/>
      <point x="293" y="54" type="curve" smooth="yes"/>
      <point x="319" y="54"/>
      <point x="345" y="60"/>
      <point x="361" y="68" type="curve"/>
      <point x="385" y="0" type="line"/>
      <point x="361" y="-11"/>
      <point x="327" y="-18"/>
      <point x="293" y="-18" type="curve" smooth="yes"/>
      <point x="167" y="-18"/>
      <point x="58" y="86"/>
      <point x="58" y="222" type="curve" smooth="yes"/>
      <point x="58" y="346"/>
      <point x="156" y="460"/>
      <point x="293" y="460" type="curve" smooth="yes"/>
      <point x="423" y="460"/>
      <point x="538" y="367"/>
      <point x="551" y="209" type="curve"/>
      <point x="569" y="135"/>
      <point x="640" y="54"/>
      <point x="719" y="54" type="curve" smooth="yes"/>
      <point x="810" y="54"/>
      <point x="884" y="130"/>
      <point x="884" y="222" type="curve" smooth="yes"/>
      <point x="884" y="313"/>
      <point x="810" y="390"/>
      <point x="719" y="390" type="curve" smooth="yes"/>
      <point x="705" y="390"/>
      <point x="689" y="387"/>
      <point x="677" y="381" type="curve"/>
      <point x="649" y="447" type="line"/>
      <point x="670" y="457"/>
      <point x="695" y="461"/>
      <point x="719" y="461" type="curve" smooth="yes"/>
      <point x="848" y="461"/>
      <point x="956" y="353"/>
    </contour>
  </outline>
</glyph>
<glyph name="u107B" format="2">
  <advance width="942"/>
  <unicode hex="107B"/>
  <anchor x="-2" y="0" name="_R"/>
  <anchor x="641" y="-53" name="BS"/>
  <anchor x="641" y="-53" name="L"/>
  <anchor x="466" y="-53" name="BD"/>
  <anchor x="644" y="495" name="U"/>
  <outline>
    <contour>
      <point x="887" y="222" type="curve" smooth="yes"/>
      <point x="887" y="82"/>
      <point x="773" y="-18"/>
      <point x="645" y="-18" type="curve" smooth="yes"/>
      <point x="612" y="-18"/>
      <point x="576" y="-12"/>
      <point x="545" y="6" type="curve"/>
      <point x="562" y="105"/>
      <point x="595" y="172"/>
      <point x="666" y="216" type="curve" smooth="yes"/>
      <point x="711" y="245"/>
      <point x="754" y="257"/>
      <point x="803" y="258" type="curve"/>
      <point x="792" y="331"/>
      <point x="728" y="390"/>
      <point x="648" y="390" type="curve" smooth="yes"/>
      <point x="599" y="390"/>
      <point x="546" y="369"/>
      <point x="501" y="325" type="curve"/>
      <point x="517" y="292"/>
      <point x="525" y="258"/>
      <point x="525" y="222" type="curve" smooth="yes"/>
      <point x="525" y="90"/>
      <point x="421" y="-18"/>
      <point x="292" y="-18" type="curve" smooth="yes"/>
      <point x="160" y="-18"/>
      <point x="55" y="90"/>
      <point x="55" y="222" type="curve" smooth="yes"/>
      <point x="55" y="352"/>
      <point x="159" y="461"/>
      <point x="289" y="461" type="curve" smooth="yes"/>
      <point x="356" y="461"/>
      <point x="417" y="432"/>
      <point x="460" y="386" type="curve"/>
      <point x="510" y="436"/>
      <point x="570" y="461"/>
      <point x="648" y="461" type="curve" smooth="yes"/>
      <point x="779" y="461"/>
      <point x="887" y="354"/>
    </contour>
    <contour>
      <point x="453" y="222" type="curve" smooth="yes"/>
      <point x="453" y="313"/>
      <point x="381" y="390"/>
      <point x="292" y="390" type="curve" smooth="yes"/>
      <point x="200" y="390"/>
      <point x="127" y="313"/>
      <point x="127" y="222" type="curve" smooth="yes"/>
      <point x="127" y="130"/>
      <point x="199" y="54"/>
      <point x="289" y="54" type="curve" smooth="yes"/>
      <point x="379" y="54"/>
      <point x="453" y="130"/>
    </contour>
    <contour>
      <point x="811" y="194" type="curve"/>
      <point x="805" y="194"/>
      <point x="800" y="195"/>
      <point x="794" y="195" type="curve" smooth="yes"/>
      <point x="762" y="195"/>
      <point x="733" y="187"/>
      <point x="707" y="171" type="curve" smooth="yes"/>
      <point x="659" y="143"/>
      <point x="640" y="107"/>
      <point x="624" y="57" type="curve"/>
      <point x="632" y="56"/>
      <point x="640" y="55"/>
      <point x="648" y="55" type="curve" smooth="yes"/>
      <point x="727" y="55"/>
      <point x="796" y="112"/>
    </contour>
  </outline>
</glyph>
<glyph name="u107C" format="2">
  <advance width="1001"/>
  <unicode hex="107C"/>
  <anchor x="1" y="0" name="_R"/>
  <anchor x="714" y="-53" name="BS"/>
  <anchor x="714" y="-53" name="L"/>
  <anchor x="488" y="-53" name="BD"/>
  <anchor x="714" y="495" name="U"/>
  <outline>
    <contour>
      <point x="943" y="128" type="curve"/>
      <point x="932" y="96"/>
      <point x="874" y="-18"/>
      <point x="716" y="-18" type="curve" smooth="yes"/>
      <point x="622" y="-18"/>
      <point x="541" y="35"/>
      <point x="502" y="112" type="curve"/>
      <point x="462" y="35"/>
      <point x="377" y="-18"/>
      <point x="285" y="-18" type="curve" smooth="yes"/>
      <point x="127" y="-18"/>
      <point x="72" y="96"/>
      <point x="61" y="128" type="curve"/>
      <point x="115" y="221"/>
      <point x="203" y="252"/>
      <point x="285" y="252" type="curve" smooth="yes"/>
      <point x="344" y="252"/>
      <point x="396" y="236"/>
      <point x="448" y="185" type="curve"/>
      <point x="452" y="195"/>
      <point x="452" y="206"/>
      <point x="452" y="216" type="curve" smooth="yes"/>
      <point x="452" y="321"/>
      <point x="368" y="390"/>
      <point x="285" y="390" type="curve" smooth="yes"/>
      <point x="222" y="390"/>
      <point x="161" y="355"/>
      <point x="126" y="292" type="curve"/>
      <point x="64" y="327" type="line"/>
      <point x="102" y="416"/>
      <point x="200" y="461"/>
      <point x="285" y="461" type="curve" smooth="yes"/>
      <point x="378" y="461"/>
      <point x="463" y="405"/>
      <point x="502" y="328" type="curve"/>
      <point x="542" y="405"/>
      <point x="622" y="461"/>
      <point x="716" y="461" type="curve" smooth="yes"/>
      <point x="806" y="461"/>
      <point x="900" y="414"/>
      <point x="939" y="327" type="curve"/>
      <point x="876" y="292" type="line"/>
      <point x="840" y="354"/>
      <point x="784" y="390"/>
      <point x="716" y="390" type="curve" smooth="yes"/>
      <point x="631" y="390"/>
      <point x="550" y="322"/>
      <point x="550" y="216" type="curve" smooth="yes"/>
      <point x="550" y="206"/>
      <point x="552" y="194"/>
      <point x="554" y="185" type="curve"/>
      <point x="603" y="236"/>
      <point x="655" y="252"/>
      <point x="718" y="252" type="curve" smooth="yes"/>
      <point x="800" y="252"/>
      <point x="888" y="221"/>
    </contour>
    <contour>
      <point x="422" y="126" type="curve"/>
      <point x="386" y="163"/>
      <point x="331" y="190"/>
      <point x="285" y="190" type="curve" smooth="yes"/>
      <point x="232" y="190"/>
      <point x="183" y="173"/>
      <point x="143" y="128" type="curve"/>
      <point x="172" y="78"/>
      <point x="232" y="54"/>
      <point x="285" y="54" type="curve" smooth="yes"/>
      <point x="333" y="54"/>
      <point x="380" y="70"/>
    </contour>
    <contour>
      <point x="859" y="128" type="curve"/>
      <point x="823" y="173"/>
      <point x="772" y="190"/>
      <point x="718" y="190" type="curve" smooth="yes"/>
      <point x="680" y="190"/>
      <point x="622" y="169"/>
      <point x="580" y="125" type="curve"/>
      <point x="623" y="71"/>
      <point x="672" y="54"/>
      <point x="718" y="54" type="curve" smooth="yes"/>
      <point x="766" y="54"/>
      <point x="828" y="76"/>
    </contour>
  </outline>
</glyph>
<glyph name="u107D" format="2">
  <advance width="989"/>
  <unicode hex="107D"/>
  <anchor x="0" y="0" name="_R"/>
  <anchor x="698" y="-53" name="BS"/>
  <anchor x="698" y="-53" name="L"/>
  <anchor x="498" y="-53" name="BD"/>
  <anchor x="698" y="495" name="U"/>
  <outline>
    <contour>
      <point x="931" y="166" type="curve"/>
      <point x="929" y="88"/>
      <point x="833" y="-18"/>
      <point x="699" y="-18" type="curve" smooth="yes"/>
      <point x="609" y="-18"/>
      <point x="534" y="30"/>
      <point x="493" y="100" type="curve"/>
      <point x="455" y="30"/>
      <point x="385" y="-18"/>
      <point x="292" y="-18" type="curve" smooth="yes"/>
      <point x="150" y="-18"/>
      <point x="60" y="86"/>
      <point x="60" y="167" type="curve" smooth="yes"/>
      <point x="60" y="302"/>
      <point x="199" y="285"/>
      <point x="199" y="340" type="curve" smooth="yes"/>
      <point x="199" y="379"/>
      <point x="175" y="392"/>
      <point x="155" y="392" type="curve" smooth="yes"/>
      <point x="137" y="392"/>
      <point x="123" y="381"/>
      <point x="117" y="369" type="curve"/>
      <point x="60" y="404" type="line"/>
      <point x="75" y="434"/>
      <point x="112" y="459"/>
      <point x="153" y="459" type="curve" smooth="yes"/>
      <point x="213" y="459"/>
      <point x="266" y="419"/>
      <point x="266" y="340" type="curve" smooth="yes"/>
      <point x="266" y="239"/>
      <point x="131" y="249"/>
      <point x="131" y="167" type="curve" smooth="yes"/>
      <point x="131" y="140"/>
      <point x="180" y="54"/>
      <point x="292" y="54" type="curve" smooth="yes"/>
      <point x="373" y="54"/>
      <point x="460" y="120"/>
      <point x="460" y="240" type="curve" smooth="yes"/>
      <point x="460" y="309"/>
      <point x="439" y="358"/>
      <point x="395" y="400" type="curve"/>
      <point x="437" y="460" type="line"/>
      <point x="468" y="436"/>
      <point x="493" y="405"/>
      <point x="509" y="364" type="curve"/>
      <point x="549" y="420"/>
      <point x="618" y="461"/>
      <point x="699" y="461" type="curve" smooth="yes"/>
      <point x="778" y="461"/>
      <point x="878" y="419"/>
      <point x="920" y="327" type="curve"/>
      <point x="858" y="292" type="line"/>
      <point x="818" y="359"/>
      <point x="759" y="390"/>
      <point x="699" y="390" type="curve" smooth="yes"/>
      <point x="606" y="390"/>
      <point x="531" y="314"/>
      <point x="531" y="226" type="curve" smooth="yes"/>
      <point x="531" y="183"/>
      <point x="546" y="148"/>
      <point x="568" y="122" type="curve"/>
      <point x="614" y="183"/>
      <point x="691" y="221"/>
      <point x="763" y="221" type="curve" smooth="yes"/>
      <point x="812" y="221"/>
      <point x="870" y="203"/>
    </contour>
    <contour>
      <point x="850" y="136" type="curve"/>
      <point x="819" y="149"/>
      <point x="792" y="156"/>
      <point x="763" y="156" type="curve" smooth="yes"/>
      <point x="703" y="156"/>
      <point x="650" y="124"/>
      <point x="616" y="75" type="curve"/>
      <point x="640" y="62"/>
      <point x="668" y="54"/>
      <point x="699" y="54" type="curve" smooth="yes"/>
      <point x="754" y="54"/>
      <point x="812" y="77"/>
    </contour>
  </outline>
</glyph>
<glyph name="u107F" format="2">
  <advance width="590"/>
  <unicode hex="107F"/>
  <anchor x="0" y="0" name="_R"/>
  <anchor x="295" y="-53" name="BS"/>
  <anchor x="295" y="495" name="U"/>
  <anchor x="292" y="-53" name="BD"/>
  <anchor x="292" y="-53" name="L"/>
  <outline>
    <contour>
      <point x="534" y="239" type="curve" smooth="yes"/>
      <point x="534" y="88"/>
      <point x="427" y="-18"/>
      <point x="295" y="-18" type="curve" smooth="yes"/>
      <point x="162" y="-18"/>
      <point x="55" y="88"/>
      <point x="55" y="239" type="curve" smooth="yes"/>
      <point x="55" y="331"/>
      <point x="104" y="397"/>
      <point x="179" y="460" type="curve"/>
      <point x="238" y="414"/>
      <point x="286" y="340"/>
      <point x="286" y="252" type="curve" smooth="yes"/>
      <point x="286" y="180"/>
      <point x="258" y="128"/>
      <point x="207" y="82" type="curve"/>
      <point x="232" y="63"/>
      <point x="262" y="54"/>
      <point x="295" y="54" type="curve" smooth="yes"/>
      <point x="386" y="54"/>
      <point x="462" y="131"/>
      <point x="462" y="239" type="curve" smooth="yes"/>
      <point x="462" y="314"/>
      <point x="438" y="360"/>
      <point x="397" y="400" type="curve"/>
      <point x="439" y="460" type="line"/>
      <point x="500" y="411"/>
      <point x="534" y="343"/>
    </contour>
    <contour>
      <point x="221" y="252" type="curve" smooth="yes"/>
      <point x="221" y="287"/>
      <point x="213" y="324"/>
      <point x="186" y="362" type="curve"/>
      <point x="154" y="330"/>
      <point x="127" y="292"/>
      <point x="127" y="239" type="curve" smooth="yes"/>
      <point x="127" y="196"/>
      <point x="139" y="158"/>
      <point x="159" y="129" type="curve"/>
      <point x="199" y="160"/>
      <point x="221" y="201"/>
    </contour>
  </outline>
</glyph>
<glyph name="u1080" format="2">
  <advance width="990"/>
  <unicode hex="1080"/>
  <anchor x="0" y="0" name="_R"/>
  <anchor x="698" y="-53" name="BS"/>
  <anchor x="698" y="-53" name="L"/>
  <anchor x="498" y="-53" name="BD"/>
  <anchor x="698" y="495" name="U"/>
  <outline>
    <contour>
      <point x="934" y="222" type="curve" smooth="yes"/>
      <point x="934" y="90"/>
      <point x="828" y="-18"/>
      <point x="698" y="-18" type="curve" smooth="yes"/>
      <point x="613" y="-18"/>
      <point x="539" y="37"/>
      <point x="498" y="108" type="curve"/>
      <point x="459" y="34"/>
      <point x="381" y="-18"/>
      <point x="289" y="-18" type="curve" smooth="yes"/>
      <point x="153" y="-18"/>
      <point x="59" y="87"/>
      <point x="56" y="166" type="curve"/>
      <point x="119" y="204"/>
      <point x="174" y="221"/>
      <point x="223" y="221" type="curve" smooth="yes"/>
      <point x="292" y="221"/>
      <point x="371" y="185"/>
      <point x="419" y="122" type="curve"/>
      <point x="441" y="148"/>
      <point x="456" y="182"/>
      <point x="456" y="222" type="curve" smooth="yes"/>
      <point x="456" y="298"/>
      <point x="398" y="390"/>
      <point x="289" y="390" type="curve" smooth="yes"/>
      <point x="224" y="390"/>
      <point x="164" y="353"/>
      <point x="129" y="292" type="curve"/>
      <point x="68" y="327" type="line"/>
      <point x="107" y="416"/>
      <point x="202" y="461"/>
      <point x="289" y="461" type="curve" smooth="yes"/>
      <point x="423" y="461"/>
      <point x="522" y="350"/>
      <point x="527" y="231" type="curve"/>
      <point x="537" y="146"/>
      <point x="612" y="54"/>
      <point x="698" y="54" type="curve" smooth="yes"/>
      <point x="790" y="54"/>
      <point x="863" y="130"/>
      <point x="863" y="222" type="curve" smooth="yes"/>
      <point x="863" y="313"/>
      <point x="790" y="390"/>
      <point x="698" y="390" type="curve" smooth="yes"/>
      <point x="684" y="390"/>
      <point x="668" y="387"/>
      <point x="656" y="381" type="curve"/>
      <point x="628" y="447" type="line"/>
      <point x="649" y="456"/>
      <point x="675" y="461"/>
      <point x="698" y="461" type="curve" smooth="yes"/>
      <point x="828" y="461"/>
      <point x="934" y="353"/>
    </contour>
    <contour>
      <point x="371" y="75" type="curve"/>
      <point x="339" y="122"/>
      <point x="287" y="156"/>
      <point x="225" y="156" type="curve" smooth="yes"/>
      <point x="196" y="156"/>
      <point x="168" y="150"/>
      <point x="137" y="136" type="curve"/>
      <point x="175" y="76"/>
      <point x="234" y="54"/>
      <point x="289" y="54" type="curve" smooth="yes"/>
      <point x="320" y="54"/>
      <point x="346" y="62"/>
    </contour>
  </outline>
</glyph>
<glyph name="u1081" format="2">
  <advance width="571"/>
  <unicode hex="1081"/>
  <anchor x="292" y="495" name="U"/>
  <anchor x="490" y="-53" name="BS"/>
  <anchor x="490" y="-53" name="BD"/>
  <anchor x="0" y="0" name="_R"/>
  <anchor x="490" y="-53" name="L"/>
  <outline>
    <contour>
      <point x="516" y="327" type="curve"/>
      <point x="453" y="292" type="line"/>
      <point x="417" y="356"/>
      <point x="358" y="390"/>
      <point x="295" y="390" type="curve" smooth="yes"/>
      <point x="203" y="390"/>
      <point x="127" y="313"/>
      <point x="127" y="222" type="curve" smooth="yes"/>
      <point x="127" y="133"/>
      <point x="197" y="60"/>
      <point x="283" y="54" type="curve"/>
      <point x="325" y="171" type="line"/>
      <point x="393" y="147" type="line"/>
      <point x="176" y="-457" type="line"/>
      <point x="30" y="-404" type="line"/>
      <point x="55" y="-337" type="line"/>
      <point x="132" y="-365" type="line"/>
      <point x="258" y="-15" type="line"/>
      <point x="143" y="2"/>
      <point x="56" y="102"/>
      <point x="56" y="222" type="curve" smooth="yes"/>
      <point x="56" y="352"/>
      <point x="163" y="461"/>
      <point x="295" y="461" type="curve" smooth="yes"/>
      <point x="378" y="461"/>
      <point x="474" y="419"/>
    </contour>
  </outline>
</glyph>
<glyph name="u1082" format="2">
  <advance width="430"/>
  <unicode hex="1082"/>
  <anchor x="242" y="-53" name="_BS"/>
  <anchor x="566" y="-53" name="BSM"/>
  <anchor x="25" y="-53" name="_LM"/>
  <anchor x="238" y="-53" name="_BSM"/>
  <anchor x="-770" y="-53" name="_LLM"/>
  <outline>
    <contour>
      <point x="472" y="-391" type="line"/>
      <point x="446" y="-442"/>
      <point x="392" y="-467"/>
      <point x="336" y="-467" type="curve" smooth="yes"/>
      <point x="242" y="-467"/>
      <point x="152" y="-393"/>
      <point x="152" y="-283" type="curve" smooth="yes"/>
      <point x="152" y="-166"/>
      <point x="253" y="-93"/>
      <point x="337" y="-93" type="curve"/>
      <point x="337" y="-148" type="line"/>
      <point x="304" y="-148"/>
      <point x="207" y="-181"/>
      <point x="207" y="-283" type="curve" smooth="yes"/>
      <point x="207" y="-364"/>
      <point x="277" y="-411"/>
      <point x="336" y="-411" type="curve" smooth="yes"/>
      <point x="370" y="-411"/>
      <point x="406" y="-397"/>
      <point x="432" y="-357" type="curve"/>
    </contour>
  </outline>
</glyph>
<glyph name="u1088" format="2">
  <advance width="280"/>
  <unicode hex="1088"/>
  <outline>
    <contour>
      <point x="227" y="75" type="line" smooth="yes"/>
      <point x="226" y="-14"/>
      <point x="158" y="-91"/>
      <point x="119" y="-107" type="curve"/>
      <point x="107" y="-97" type="line"/>
      <point x="138" y="-77"/>
      <point x="164" y="-31"/>
      <point x="171" y="3" type="curve"/>
      <point x="161" y="-1"/>
      <point x="150" y="-3"/>
      <point x="140" y="-3" type="curve" smooth="yes"/>
      <point x="94" y="-3"/>
      <point x="53" y="37"/>
      <point x="53" y="85" type="curve" smooth="yes"/>
      <point x="53" y="133"/>
      <point x="94" y="171"/>
      <point x="140" y="171" type="curve" smooth="yes"/>
      <point x="186" y="171"/>
      <point x="227" y="133"/>
      <point x="227" y="81" type="curve" smooth="yes"/>
    </contour>
    <contour>
      <point x="186" y="85" type="curve" smooth="yes"/>
      <point x="186" y="107"/>
      <point x="167" y="130"/>
      <point x="140" y="130" type="curve" smooth="yes"/>
      <point x="112" y="130"/>
      <point x="94" y="107"/>
      <point x="94" y="85" type="curve" smooth="yes"/>
      <point x="94" y="64"/>
      <point x="112" y="37"/>
      <point x="140" y="37" type="curve" smooth="yes"/>
      <point x="167" y="37"/>
      <point x="186" y="63"/>
    </contour>
    <contour>
      <point x="227" y="375" type="curve" smooth="yes"/>
      <point x="227" y="326"/>
      <point x="186" y="287"/>
      <point x="140" y="287" type="curve" smooth="yes"/>
      <point x="94" y="287"/>
      <point x="53" y="326"/>
      <point x="53" y="375" type="curve" smooth="yes"/>
      <point x="53" y="422"/>
      <point x="94" y="461"/>
      <point x="140" y="461" type="curve" smooth="yes"/>
      <point x="186" y="461"/>
      <point x="227" y="422"/>
    </contour>
    <contour>
      <point x="186" y="375" type="curve" smooth="yes"/>
      <point x="186" y="396"/>
      <point x="167" y="420"/>
      <point x="140" y="420" type="curve" smooth="yes"/>
      <point x="112" y="420"/>
      <point x="94" y="396"/>
      <point x="94" y="375" type="curve" smooth="yes"/>
      <point x="94" y="353"/>
      <point x="112" y="327"/>
      <point x="140" y="327" type="curve" smooth="yes"/>
      <point x="167" y="327"/>
      <point x="186" y="352"/>
    </contour>
  </outline>
</glyph>
<glyph name="u1089" format="2">
  <advance width="280"/>
  <unicode hex="1089"/>
  <outline>
    <contour>
      <point x="227" y="84" type="curve" smooth="yes"/>
      <point x="227" y="36"/>
      <point x="186" y="-3"/>
      <point x="140" y="-3" type="curve" smooth="yes"/>
      <point x="93" y="-3"/>
      <point x="53" y="36"/>
      <point x="53" y="84" type="curve" smooth="yes"/>
      <point x="53" y="132"/>
      <point x="93" y="170"/>
      <point x="140" y="170" type="curve" smooth="yes"/>
      <point x="186" y="170"/>
      <point x="227" y="132"/>
    </contour>
    <contour>
      <point x="186" y="84" type="curve" smooth="yes"/>
      <point x="186" y="106"/>
      <point x="167" y="129"/>
      <point x="140" y="129" type="curve" smooth="yes"/>
      <point x="112" y="129"/>
      <point x="94" y="106"/>
      <point x="94" y="84" type="curve" smooth="yes"/>
      <point x="94" y="62"/>
      <point x="112" y="37"/>
      <point x="140" y="37" type="curve" smooth="yes"/>
      <point x="167" y="37"/>
      <point x="186" y="61"/>
    </contour>
  </outline>
</glyph>
<glyph name="u108D" format="2">
  <advance width="565"/>
  <unicode hex="108D"/>
  <anchor x="282" y="-53" name="_BS"/>
  <anchor x="-95" y="-53" name="LLM"/>
  <anchor x="282" y="-53" name="_BSM"/>
  <anchor x="480" y="-53" name="LM"/>
  <anchor x="-495" y="-53" name="BDM"/>
  <anchor x="-293" y="495" name="UM"/>
  <anchor x="-89" y="-53" name="BSM"/>
  <outline>
    <contour>
      <point x="510" y="-156" type="line"/>
      <point x="55" y="-156" type="line"/>
      <point x="55" y="-84" type="line"/>
      <point x="510" y="-84" type="line"/>
    </contour>
  </outline>
</glyph>
<glyph name="u108F" format="2">
  <advance width="280"/>
  <unicode hex="108F"/>
  <outline>
    <contour>
      <point x="227" y="85" type="curve" smooth="yes"/>
      <point x="227" y="37"/>
      <point x="186" y="-3"/>
      <point x="140" y="-3" type="curve" smooth="yes"/>
      <point x="129" y="-3"/>
      <point x="119" y="-1"/>
      <point x="109" y="3" type="curve"/>
      <point x="116" y="-32"/>
      <point x="142" y="-77"/>
      <point x="173" y="-97" type="curve"/>
      <point x="161" y="-107" type="line"/>
      <point x="121" y="-89"/>
      <point x="53" y="-17"/>
      <point x="53" y="75" type="curve" smooth="yes"/>
      <point x="53" y="81" type="line" smooth="yes"/>
      <point x="53" y="133"/>
      <point x="93" y="171"/>
      <point x="140" y="171" type="curve" smooth="yes"/>
      <point x="186" y="171"/>
      <point x="227" y="133"/>
    </contour>
    <contour>
      <point x="185" y="85" type="curve" smooth="yes"/>
      <point x="185" y="107"/>
      <point x="168" y="130"/>
      <point x="140" y="130" type="curve" smooth="yes"/>
      <point x="112" y="130"/>
      <point x="94" y="107"/>
      <point x="94" y="85" type="curve" smooth="yes"/>
      <point x="94" y="62"/>
      <point x="112" y="37"/>
      <point x="140" y="37" type="curve" smooth="yes"/>
      <point x="168" y="37"/>
      <point x="185" y="63"/>
    </contour>
    <contour>
      <point x="227" y="375" type="curve" smooth="yes"/>
      <point x="227" y="327"/>
      <point x="186" y="287"/>
      <point x="140" y="287" type="curve" smooth="yes"/>
      <point x="93" y="287"/>
      <point x="53" y="327"/>
      <point x="53" y="375" type="curve" smooth="yes"/>
      <point x="53" y="423"/>
      <point x="93" y="461"/>
      <point x="140" y="461" type="curve" smooth="yes"/>
      <point x="186" y="461"/>
      <point x="227" y="423"/>
    </contour>
    <contour>
      <point x="185" y="375" type="curve" smooth="yes"/>
      <point x="185" y="397"/>
      <point x="168" y="420"/>
      <point x="140" y="420" type="curve" smooth="yes"/>
      <point x="112" y="420"/>
      <point x="94" y="397"/>
      <point x="94" y="375" type="curve" smooth="yes"/>
      <point x="94" y="352"/>
      <point x="112" y="327"/>
      <point x="140" y="327" type="curve" smooth="yes"/>
      <point x="168" y="327"/>
      <point x="185" y="353"/>
    </contour>
  </outline>
</glyph>
<glyph name="u1090" format="2">
  <advance width="581"/>
  <unicode hex="1090"/>
  <anchor x="287" y="-40" name="BS"/>
  <anchor x="287" y="-40" name="L"/>
  <anchor x="289" y="515" name="U"/>
  <anchor x="283" y="-53" name="BD"/>
  <outline>
    <contour>
      <point x="526" y="-221" type="line" smooth="yes"/>
      <point x="526" y="-337"/>
      <point x="441" y="-457"/>
      <point x="290" y="-457" type="curve" smooth="yes"/>
      <point x="140" y="-457"/>
      <point x="55" y="-337"/>
      <point x="55" y="-221" type="curve" smooth="yes"/>
      <point x="55" y="222" type="line" smooth="yes"/>
      <point x="55" y="336"/>
      <point x="140" y="461"/>
      <point x="290" y="461" type="curve" smooth="yes"/>
      <point x="441" y="461"/>
      <point x="526" y="336"/>
      <point x="526" y="222" type="curve" smooth="yes"/>
    </contour>
    <contour>
      <point x="454" y="-218" type="curve" smooth="yes"/>
      <point x="454" y="222" type="line" smooth="yes"/>
      <point x="454" y="318"/>
      <point x="383" y="390"/>
      <point x="290" y="390" type="curve" smooth="yes"/>
      <point x="197" y="390"/>
      <point x="126" y="318"/>
      <point x="126" y="222" type="curve" smooth="yes"/>
      <point x="126" y="-218" type="line" smooth="yes"/>
      <point x="126" y="-317"/>
      <point x="197" y="-385"/>
      <point x="290" y="-385" type="curve" smooth="yes"/>
      <point x="383" y="-385"/>
      <point x="454" y="-317"/>
    </contour>
  </outline>
</glyph>
<glyph name="u1091" format="2">
  <advance width="616"/>
  <unicode hex="1091"/>
  <anchor x="165" y="515" name="U"/>
  <outline>
    <contour>
      <point x="561" y="-318" type="line"/>
      <point x="272" y="-457" type="line"/>
      <point x="272" y="345" type="line"/>
      <point x="83" y="254" type="line"/>
      <point x="55" y="319" type="line"/>
      <point x="344" y="457" type="line"/>
      <point x="344" y="-345" type="line"/>
      <point x="533" y="-254" type="line"/>
    </contour>
  </outline>
</glyph>
<glyph name="u1094" format="2">
  <advance width="735"/>
  <unicode hex="1094"/>
  <anchor x="209" y="515" name="U"/>
  <outline>
    <contour>
      <point x="680" y="-318" type="line"/>
      <point x="391" y="-457" type="line"/>
      <point x="391" y="240" type="line"/>
      <point x="370" y="183"/>
      <point x="150" y="-402"/>
      <point x="130" y="-457" type="curve"/>
      <point x="55" y="-457" type="line"/>
      <point x="396" y="455" type="line"/>
      <point x="463" y="455" type="line"/>
      <point x="463" y="-345" type="line"/>
      <point x="652" y="-254" type="line"/>
    </contour>
  </outline>
</glyph>
<glyph name="u1095" format="2">
  <advance width="652"/>
  <unicode hex="1095"/>
  <anchor x="1" y="0" name="_R"/>
  <outline>
    <contour>
      <point x="597" y="-49" type="line"/>
      <point x="534" y="-49" type="line"/>
      <point x="534" y="-199" type="line" smooth="yes"/>
      <point x="534" y="-354"/>
      <point x="425" y="-457"/>
      <point x="292" y="-457" type="curve" smooth="yes"/>
      <point x="160" y="-457"/>
      <point x="55" y="-349"/>
      <point x="55" y="-218" type="curve" smooth="yes"/>
      <point x="55" y="-86"/>
      <point x="149" y="21"/>
      <point x="340" y="21" type="curve" smooth="yes"/>
      <point x="462" y="21" type="line"/>
      <point x="462" y="461" type="line"/>
      <point x="534" y="461" type="line"/>
      <point x="534" y="21" type="line"/>
      <point x="597" y="21" type="line"/>
    </contour>
    <contour>
      <point x="462" y="-199" type="curve" smooth="yes"/>
      <point x="462" y="-49" type="line"/>
      <point x="340" y="-49" type="line" smooth="yes"/>
      <point x="198" y="-49"/>
      <point x="127" y="-121"/>
      <point x="127" y="-216" type="curve" smooth="yes"/>
      <point x="127" y="-307"/>
      <point x="203" y="-387"/>
      <point x="292" y="-387" type="curve" smooth="yes"/>
      <point x="384" y="-387"/>
      <point x="462" y="-311"/>
    </contour>
  </outline>
</glyph>
<glyph name="u1096" format="2">
  <advance width="652"/>
  <unicode hex="1096"/>
  <anchor x="1" y="0" name="_R"/>
  <outline>
    <contour>
      <point x="596" y="-18" type="line"/>
      <point x="534" y="-18" type="line"/>
      <point x="534" y="-457" type="line"/>
      <point x="462" y="-457" type="line"/>
      <point x="462" y="-18" type="line"/>
      <point x="340" y="-18" type="line" smooth="yes"/>
      <point x="149" y="-18"/>
      <point x="55" y="90"/>
      <point x="55" y="222" type="curve" smooth="yes"/>
      <point x="55" y="352"/>
      <point x="161" y="461"/>
      <point x="292" y="461" type="curve" smooth="yes"/>
      <point x="425" y="461"/>
      <point x="534" y="357"/>
      <point x="534" y="203" type="curve" smooth="yes"/>
      <point x="534" y="53" type="line"/>
      <point x="596" y="53" type="line"/>
    </contour>
    <contour>
      <point x="462" y="53" type="line"/>
      <point x="462" y="203" type="line" smooth="yes"/>
      <point x="462" y="314"/>
      <point x="384" y="391"/>
      <point x="292" y="391" type="curve" smooth="yes"/>
      <point x="202" y="391"/>
      <point x="127" y="315"/>
      <point x="127" y="220" type="curve" smooth="yes"/>
      <point x="127" y="123"/>
      <point x="198" y="53"/>
      <point x="340" y="53" type="curve" smooth="yes"/>
    </contour>
  </outline>
</glyph>
<glyph name="u1098" format="2">
  <advance width="589"/>
  <unicode hex="1098"/>
  <anchor x="294" y="-40" name="BS"/>
  <anchor x="294" y="-40" name="L"/>
  <anchor x="294" y="515" name="U"/>
  <anchor x="290" y="-53" name="BD"/>
  <outline>
    <contour>
      <point x="530" y="-209" type="curve" smooth="yes"/>
      <point x="530" y="-338"/>
      <point x="432" y="-457"/>
      <point x="295" y="-457" type="curve" smooth="yes"/>
      <point x="163" y="-457"/>
      <point x="60" y="-338"/>
      <point x="60" y="-209" type="curve" smooth="yes"/>
      <point x="60" y="-126"/>
      <point x="102" y="-38"/>
      <point x="186" y="5" type="curve"/>
      <point x="130" y="39"/>
      <point x="55" y="109"/>
      <point x="55" y="239" type="curve" smooth="yes"/>
      <point x="55" y="343"/>
      <point x="89" y="408"/>
      <point x="150" y="460" type="curve"/>
      <point x="192" y="400" type="line"/>
      <point x="150" y="357"/>
      <point x="127" y="314"/>
      <point x="127" y="239" type="curve" smooth="yes"/>
      <point x="127" y="135"/>
      <point x="199" y="46"/>
      <point x="295" y="46" type="curve" smooth="yes"/>
      <point x="391" y="46"/>
      <point x="462" y="135"/>
      <point x="462" y="239" type="curve" smooth="yes"/>
      <point x="462" y="314"/>
      <point x="439" y="357"/>
      <point x="397" y="400" type="curve"/>
      <point x="439" y="460" type="line"/>
      <point x="503" y="407"/>
      <point x="534" y="343"/>
      <point x="534" y="239" type="curve" smooth="yes"/>
      <point x="534" y="108"/>
      <point x="456" y="35"/>
      <point x="401" y="4" type="curve"/>
      <point x="488" y="-39"/>
      <point x="530" y="-127"/>
    </contour>
    <contour>
      <point x="458" y="-209" type="curve" smooth="yes"/>
      <point x="458" y="-114"/>
      <point x="377" y="-28"/>
      <point x="294" y="-28" type="curve" smooth="yes"/>
      <point x="211" y="-28"/>
      <point x="131" y="-115"/>
      <point x="131" y="-209" type="curve" smooth="yes"/>
      <point x="131" y="-313"/>
      <point x="209" y="-385"/>
      <point x="294" y="-385" type="curve" smooth="yes"/>
      <point x="380" y="-385"/>
      <point x="458" y="-311"/>
    </contour>
  </outline>
</glyph>
<glyph name="u109B" format="2">
  <advance width="280"/>
  <unicode hex="109B"/>
  <outline>
    <contour>
      <point x="227" y="631" type="curve" smooth="yes"/>
      <point x="227" y="537"/>
      <point x="166" y="467"/>
      <point x="119" y="442" type="curve"/>
      <point x="107" y="453" type="line"/>
      <point x="137" y="471"/>
      <point x="164" y="518"/>
      <point x="171" y="552" type="curve"/>
      <point x="161" y="548"/>
      <point x="150" y="547"/>
      <point x="140" y="547" type="curve" smooth="yes"/>
      <point x="93" y="547"/>
      <point x="53" y="586"/>
      <point x="53" y="634" type="curve" smooth="yes"/>
      <point x="53" y="682"/>
      <point x="93" y="720"/>
      <point x="140" y="720" type="curve" smooth="yes"/>
      <point x="186" y="720"/>
      <point x="227" y="683"/>
    </contour>
    <contour>
      <point x="186" y="634" type="curve" smooth="yes"/>
      <point x="186" y="656"/>
      <point x="167" y="679"/>
      <point x="140" y="679" type="curve" smooth="yes"/>
      <point x="112" y="679"/>
      <point x="94" y="656"/>
      <point x="94" y="634" type="curve" smooth="yes"/>
      <point x="94" y="612"/>
      <point x="112" y="586"/>
      <point x="140" y="586" type="curve" smooth="yes"/>
      <point x="167" y="586"/>
      <point x="186" y="611"/>
    </contour>
  </outline>
</glyph>
<glyph name="u109F" format="2">
  <advance width="803"/>
  <unicode hex="109F"/>
  <outline>
    <contour>
      <point x="738" y="-316" type="line" smooth="yes"/>
      <point x="738" y="-401"/>
      <point x="677" y="-457"/>
      <point x="609" y="-457" type="curve" smooth="yes"/>
      <point x="539" y="-457"/>
      <point x="481" y="-401"/>
      <point x="481" y="-316" type="curve" smooth="yes"/>
      <point x="481" y="180" type="line" smooth="yes"/>
      <point x="481" y="315"/>
      <point x="387" y="390"/>
      <point x="294" y="390" type="curve" smooth="yes"/>
      <point x="203" y="390"/>
      <point x="127" y="314"/>
      <point x="127" y="210" type="curve" smooth="yes"/>
      <point x="127" y="139"/>
      <point x="161" y="85"/>
      <point x="211" y="51" type="curve"/>
      <point x="177" y="-14" type="line"/>
      <point x="105" y="26"/>
      <point x="55" y="98"/>
      <point x="55" y="209" type="curve" smooth="yes"/>
      <point x="55" y="354"/>
      <point x="158" y="460"/>
      <point x="294" y="460" type="curve" smooth="yes"/>
      <point x="433" y="460"/>
      <point x="552" y="358"/>
      <point x="552" y="184" type="curve" smooth="yes"/>
      <point x="552" y="-316" type="line" smooth="yes"/>
      <point x="552" y="-368"/>
      <point x="581" y="-385"/>
      <point x="609" y="-385" type="curve" smooth="yes"/>
      <point x="636" y="-385"/>
      <point x="666" y="-368"/>
      <point x="666" y="-316" type="curve" smooth="yes"/>
      <point x="666" y="387" type="line" smooth="yes"/>
      <point x="666" y="561"/>
      <point x="419" y="557"/>
      <point x="419" y="728" type="curve" smooth="yes"/>
      <point x="419" y="834"/>
      <point x="503" y="911"/>
      <point x="603" y="911" type="curve" smooth="yes"/>
      <point x="683" y="911"/>
      <point x="732" y="863"/>
      <point x="747" y="816" type="curve"/>
      <point x="684" y="782" type="line"/>
      <point x="673" y="816"/>
      <point x="639" y="839"/>
      <point x="603" y="839" type="curve" smooth="yes"/>
      <point x="537" y="839"/>
      <point x="490" y="791"/>
      <point x="490" y="728" type="curve" smooth="yes"/>
      <point x="490" y="610"/>
      <point x="738" y="601"/>
      <point x="738" y="387" type="curve" smooth="yes"/>
    </contour>
  </outline>
</glyph>
